<svg width="20" height="21" viewBox="0 0 20 21" fill="none" xmlns="http://www.w3.org/2000/svg">
<g clip-path="url(#clip0_4443_11856)">
<path d="M13.3818 15.3723L6.56359 15.3723L6.56359 5.82688L13.3818 5.82688M13.3818 3.09961L6.56359 3.09961C5.80677 3.09961 5.19995 3.70643 5.19995 4.46325L5.19995 16.736C5.19995 17.0976 5.34362 17.4445 5.59935 17.7002C5.85508 17.9559 6.20193 18.0996 6.56359 18.0996L13.3818 18.0996C13.7434 18.0996 14.0903 17.9559 14.346 17.7002C14.6017 17.4445 14.7454 17.0976 14.7454 16.736L14.7454 4.46325C14.7454 4.10159 14.6017 3.75474 14.346 3.49901C14.0903 3.24328 13.7434 3.09961 13.3818 3.09961Z" fill="#7F8A9A" fill-opacity="0.8"/>
</g>
<defs>
<clipPath id="clip0_4443_11856">
<rect width="20" height="20" fill="white" transform="translate(0 0.5)"/>
</clipPath>
</defs>
</svg>
