<svg width="18" height="16" viewBox="0 0 18 16" fill="none" xmlns="http://www.w3.org/2000/svg">
<path fill-rule="evenodd" clip-rule="evenodd" d="M14.8334 6.16659C15.3397 6.1666 15.8341 6.32034 16.2511 6.60746C16.6681 6.89458 16.9881 7.30155 17.1688 7.77452C17.3494 8.24749 17.3822 8.76417 17.2628 9.25619C17.1434 9.74821 16.8774 10.1924 16.5001 10.5299V14.6591C16.5001 14.7301 16.4819 14.8 16.4473 14.8621C16.4127 14.9241 16.3628 14.9763 16.3023 15.0136C16.2418 15.0509 16.1728 15.0722 16.1019 15.0753C16.0309 15.0785 15.9603 15.0634 15.8967 15.0316L14.8334 14.4999L13.7701 15.0316C13.7066 15.0634 13.6359 15.0785 13.565 15.0753C13.494 15.0722 13.425 15.0509 13.3645 15.0136C13.3041 14.9763 13.2542 14.9241 13.2195 14.8621C13.1849 14.8 13.1667 14.7301 13.1667 14.6591V10.5299C12.7894 10.1924 12.5234 9.74821 12.404 9.25619C12.2846 8.76417 12.3174 8.24749 12.4981 7.77452C12.6787 7.30155 12.9987 6.89458 13.4157 6.60746C13.8328 6.32034 14.3271 6.1666 14.8334 6.16659ZM15.6667 0.333252C16.1088 0.333252 16.5327 0.508847 16.8453 0.821407C17.1578 1.13397 17.3334 1.55789 17.3334 1.99992V5.33325C16.531 4.73146 15.5385 4.4393 14.538 4.5104C13.5376 4.5815 12.5963 5.01109 11.8871 5.72031C11.1779 6.42952 10.7483 7.37076 10.6772 8.37121C10.6061 9.37167 10.8983 10.3642 11.5001 11.1666V13.6666H2.33341C1.89139 13.6666 1.46746 13.491 1.1549 13.1784C0.842343 12.8659 0.666748 12.4419 0.666748 11.9999V1.99992C0.666748 1.55789 0.842343 1.13397 1.1549 0.821407C1.46746 0.508847 1.89139 0.333252 2.33341 0.333252H15.6667ZM5.66675 7.83325H4.00008C3.77907 7.83325 3.56711 7.92105 3.41083 8.07733C3.25455 8.23361 3.16675 8.44557 3.16675 8.66659C3.16675 8.8876 3.25455 9.09956 3.41083 9.25584C3.56711 9.41212 3.77907 9.49992 4.00008 9.49992H5.66675C5.88776 9.49992 6.09972 9.41212 6.256 9.25584C6.41228 9.09956 6.50008 8.8876 6.50008 8.66659C6.50008 8.44557 6.41228 8.23361 6.256 8.07733C6.09972 7.92105 5.88776 7.83325 5.66675 7.83325ZM9.00008 4.49992H4.00008C3.78768 4.50015 3.58339 4.58148 3.42894 4.72729C3.27449 4.8731 3.18155 5.07238 3.1691 5.28441C3.15666 5.49645 3.22564 5.70524 3.36197 5.86811C3.49829 6.03099 3.69167 6.13567 3.90258 6.16075L4.00008 6.16659H9.00008C9.21248 6.16635 9.41677 6.08502 9.57122 5.93921C9.72567 5.7934 9.81861 5.59412 9.83106 5.38209C9.84351 5.17005 9.77452 4.96127 9.63819 4.79839C9.50187 4.63551 9.30849 4.53084 9.09758 4.50575L9.00008 4.49992Z" fill="#7F8A9A"/>
</svg>
