<svg width="12" height="13" viewBox="0 0 12 13" fill="none" xmlns="http://www.w3.org/2000/svg">
<path d="M11.92 6.11994C11.8724 5.99719 11.801 5.88505 11.71 5.78994L6.71 0.789941C6.61676 0.696703 6.50607 0.622742 6.38425 0.572282C6.26243 0.521822 6.13186 0.49585 6 0.49585C5.7337 0.49585 5.4783 0.601638 5.29 0.789941C5.19676 0.88318 5.1228 0.99387 5.07234 1.11569C5.02188 1.23751 4.99591 1.36808 4.99591 1.49994C4.99591 1.76624 5.1017 2.02164 5.29 2.20994L8.59 5.49994H1C0.734784 5.49994 0.48043 5.6053 0.292893 5.79283C0.105357 5.98037 0 6.23472 0 6.49994C0 6.76516 0.105357 7.01951 0.292893 7.20705C0.48043 7.39458 0.734784 7.49994 1 7.49994H8.59L5.29 10.7899C5.19627 10.8829 5.12188 10.9935 5.07111 11.1154C5.02034 11.2372 4.9942 11.3679 4.9942 11.4999C4.9942 11.632 5.02034 11.7627 5.07111 11.8845C5.12188 12.0064 5.19627 12.117 5.29 12.2099C5.38296 12.3037 5.49356 12.3781 5.61542 12.4288C5.73728 12.4796 5.86799 12.5057 6 12.5057C6.13201 12.5057 6.26272 12.4796 6.38458 12.4288C6.50644 12.3781 6.61704 12.3037 6.71 12.2099L11.71 7.20994C11.801 7.11484 11.8724 7.00269 11.92 6.87994C12.02 6.63648 12.02 6.3634 11.92 6.11994Z" fill="#E82827"/>
</svg>
