<svg width="25" height="24" viewBox="0 0 25 24" fill="none" xmlns="http://www.w3.org/2000/svg">
<mask id="mask0_5285_8631" style="mask-type:luminance" maskUnits="userSpaceOnUse" x="1" y="4" width="23" height="16">
<path d="M2.5 14C2.5 13.7348 2.60536 13.4804 2.79289 13.2929C2.98043 13.1054 3.23478 13 3.5 13H5.5V19H3.5C3.23478 19 2.98043 18.8946 2.79289 18.7071C2.60536 18.5196 2.5 18.2652 2.5 18V14ZM19.5 13H21.5C21.7652 13 22.0196 13.1054 22.2071 13.2929C22.3946 13.4804 22.5 13.7348 22.5 14V18C22.5 18.2652 22.3946 18.5196 22.2071 18.7071C22.0196 18.8946 21.7652 19 21.5 19H19.5V13Z" fill="white"/>
<path d="M5.5 18V12C5.5 8.134 8.634 5 12.5 5C16.366 5 19.5 8.134 19.5 12V18M5.5 13H3.5C3.23478 13 2.98043 13.1054 2.79289 13.2929C2.60536 13.4804 2.5 13.7348 2.5 14V18C2.5 18.2652 2.60536 18.5196 2.79289 18.7071C2.98043 18.8946 3.23478 19 3.5 19H5.5V13ZM19.5 13H21.5C21.7652 13 22.0196 13.1054 22.2071 13.2929C22.3946 13.4804 22.5 13.7348 22.5 14V18C22.5 18.2652 22.3946 18.5196 22.2071 18.7071C22.0196 18.8946 21.7652 19 21.5 19H19.5V13Z" stroke="white" stroke-width="2" stroke-linecap="round" stroke-linejoin="round"/>
<path d="M8.5 16H10.5L11.5 13L13.5 19L14.5 16H16.5" stroke="white" stroke-width="2" stroke-linecap="round" stroke-linejoin="round"/>
</mask>
<g mask="url(#mask0_5285_8631)">
<path d="M0.5 0H24.5V24H0.5V0Z" fill="#7F8A9A" fill-opacity="0.6"/>
</g>
</svg>
