<svg width="51" height="50" viewBox="0 0 51 50" fill="none" xmlns="http://www.w3.org/2000/svg">
<g clip-path="url(#clip0_5349_942)">
<circle cx="25.5" cy="25" r="25" fill="#F4D4CF"/>
<mask id="mask0_5349_942" style="mask-type:alpha" maskUnits="userSpaceOnUse" x="0" y="0" width="51" height="50">
<circle cx="25.5" cy="25" r="25" fill="#F4D4CF"/>
</mask>
<g mask="url(#mask0_5349_942)">
<path d="M40.1605 48.052L38.4615 39.5189C38.0869 37.6423 36.721 36.8734 35.9402 36.582C35.9081 36.5702 31.0172 35.1284 30.9845 35.1187L29.4516 34.082V33.1087C31.7473 31.9009 33.4017 29.5775 33.5786 26.6741C33.596 26.386 33.7788 26.1297 34.0517 26.0357C35.6494 25.4849 36.3469 23.7599 35.3722 22.4425C35.3755 22.3964 35.3743 20.5563 35.3743 20.51C35.3742 15.2661 31.1081 11 25.8643 11C20.6205 11 16.3543 15.2661 16.3543 20.5099C16.3543 20.5562 16.3531 22.3965 16.3565 22.4425C15.4266 23.6997 16.0187 25.3286 17.4645 25.9534C17.8611 26.1247 18.1304 26.5061 18.1703 26.9363C18.4253 29.6864 20.0189 31.9118 22.2564 33.0978V34.0961L20.7601 35.1079C20.7238 35.1186 15.8032 36.5689 15.7677 36.5821C14.9868 36.8733 13.621 37.6422 13.2463 39.5192L11.5472 48.052C11.3623 48.9828 11.6365 50.8058 13.9057 50.8058H37.802C38.6354 50.8058 39.2709 50.5606 39.6908 50.077C40.1579 49.5391 40.2892 48.6947 40.1605 48.052Z" fill="#CD888B"/>
</g>
</g>
<defs>
<clipPath id="clip0_5349_942">
<rect width="50" height="50" fill="white" transform="translate(0.5)"/>
</clipPath>
</defs>
</svg>
