<svg width="36" height="36" viewBox="0 0 36 36" fill="none" xmlns="http://www.w3.org/2000/svg">
<path fill-rule="evenodd" clip-rule="evenodd" d="M7.07393 15.4126C7.28918 15.6376 7.55618 15.7501 7.87493 15.7501C8.19369 15.7501 8.46106 15.6421 8.67706 15.4261C8.89232 15.2108 9.01869 14.9438 9.05619 14.6251C9.16869 13.6688 9.4267 12.7733 9.8302 11.9385C10.233 11.1045 10.7625 10.3313 11.4187 9.61878C11.625 9.37502 11.7281 9.10315 11.7281 8.80314C11.7281 8.50314 11.625 8.25001 11.4187 8.04376C11.1937 7.81876 10.9218 7.70626 10.6031 7.70626C10.2843 7.70626 10.0218 7.80938 9.81558 8.01564C8.97182 8.91564 8.29231 9.93265 7.77706 11.0667C7.26105 12.2014 6.93742 13.3876 6.80617 14.6251C6.76867 14.9251 6.85792 15.1876 7.07393 15.4126ZM27.3376 15.4261C27.5626 15.6421 27.8251 15.7501 28.1251 15.7501C28.4439 15.7501 28.7109 15.6376 28.9261 15.4126C29.1421 15.1876 29.2314 14.9251 29.1939 14.6251C29.0626 13.3876 28.7394 12.2014 28.2241 11.0667C27.7081 9.93265 27.0282 8.91564 26.1845 8.01564C25.9782 7.80938 25.7202 7.70626 25.4105 7.70626C25.1015 7.70626 24.8345 7.81876 24.6095 8.04376C24.3845 8.25001 24.272 8.50314 24.272 8.80314C24.272 9.10315 24.3751 9.37502 24.5813 9.61878C25.2376 10.3313 25.7675 11.1045 26.171 11.9385C26.5737 12.7733 26.8314 13.6688 26.9439 14.6251C26.9814 14.9438 27.1126 15.2108 27.3376 15.4261ZM9.32282 25.5512C9.53882 25.7672 9.8062 25.8752 10.125 25.8752H22.5472C22.3362 25.4027 22.2188 24.8792 22.2188 24.3282C22.2188 22.675 23.2754 21.2686 24.7501 20.7474V15.7501C24.7501 14.1938 24.2813 12.8108 23.3438 11.601C22.4063 10.392 21.1876 9.60003 19.6875 9.22502V8.43752C19.6875 7.96876 19.5233 7.57051 19.1948 7.24275C18.867 6.91425 18.4688 6.75 18 6.75C17.5313 6.75 17.133 6.91425 16.8053 7.24275C16.4768 7.57051 16.3125 7.96876 16.3125 8.43752V9.22502C14.8125 9.60003 13.5937 10.392 12.6562 11.601C11.7187 12.8108 11.25 14.1938 11.25 15.7501V23.6252H10.125C9.8062 23.6252 9.53882 23.7332 9.32282 23.9492C9.10757 24.1644 8.99994 24.4314 8.99994 24.7502C8.99994 25.0689 9.10757 25.3359 9.32282 25.5512ZM16.4115 28.5898C16.8518 29.0301 17.3813 29.2502 18 29.2502C18.6188 29.2502 19.1487 29.0301 19.5897 28.5898C20.0299 28.1488 20.25 27.6189 20.25 27.0002H15.75C15.75 27.6189 15.9705 28.1488 16.4115 28.5898Z" fill="white"/>
<circle cx="26.0156" cy="24.3281" r="2.10939" fill="white"/>
</svg>
