<svg width="24" height="25" viewBox="0 0 24 25" fill="none" xmlns="http://www.w3.org/2000/svg">
<g clip-path="url(#clip0_4633_13866)">
<path d="M9 3.61914C9.26522 3.61914 9.51957 3.7245 9.70711 3.91203C9.89464 4.09957 10 4.35392 10 4.61914L10 20.6191C10 20.8844 9.89464 21.1387 9.70711 21.3262C9.51957 21.5138 9.26522 21.6191 9 21.6191L7 21.6191C6.73478 21.6191 6.48043 21.5138 6.29289 21.3262C6.10536 21.1387 6 20.8844 6 20.6191L6 4.61914C6 4.35392 6.10536 4.09957 6.29289 3.91203C6.48043 3.7245 6.73478 3.61914 7 3.61914L9 3.61914ZM17 3.61914C17.2652 3.61914 17.5196 3.7245 17.7071 3.91203C17.8946 4.09957 18 4.35392 18 4.61914L18 20.6191C18 20.8844 17.8946 21.1387 17.7071 21.3262C17.5196 21.5138 17.2652 21.6191 17 21.6191L15 21.6191C14.7348 21.6191 14.4804 21.5138 14.2929 21.3262C14.1054 21.1387 14 20.8844 14 20.6191L14 4.61914C14 4.35392 14.1054 4.09957 14.2929 3.91203C14.4804 3.7245 14.7348 3.61914 15 3.61914L17 3.61914Z" fill="#231F20"/>
</g>
<defs>
<clipPath id="clip0_4633_13866">
<rect width="24" height="24" fill="white" transform="translate(0 0.5)"/>
</clipPath>
</defs>
</svg>
