<svg width="20" height="21" viewBox="0 0 20 21" fill="none" xmlns="http://www.w3.org/2000/svg">
<path d="M5.83325 12.1675H7.49992V13.8341H5.83325V12.1675Z" fill="#E82827"/>
<path d="M15.8333 2.16675H9.16667C8.72464 2.16675 8.30072 2.34234 7.98816 2.6549C7.67559 2.96746 7.5 3.39139 7.5 3.83341V8.83341H4.16667C3.2475 8.83341 2.5 9.58091 2.5 10.5001V18.0001C2.5 18.2211 2.5878 18.4331 2.74408 18.5893C2.90036 18.7456 3.11232 18.8334 3.33333 18.8334H16.6667C16.8877 18.8334 17.0996 18.7456 17.2559 18.5893C17.4122 18.4331 17.5 18.2211 17.5 18.0001V3.83341C17.5 3.39139 17.3244 2.96746 17.0118 2.6549C16.6993 2.34234 16.2754 2.16675 15.8333 2.16675ZM4.16667 17.1667V10.5001H9.16667V17.1667H4.16667ZM11.6667 7.16675H10V5.50008H11.6667V7.16675ZM15 13.8334H13.3333V12.1667H15V13.8334ZM15 10.5001H13.3333V8.83341H15V10.5001ZM15 7.16675H13.3333V5.50008H15V7.16675Z" fill="#E82827"/>
</svg>
