<svg width="16" height="16" viewBox="0 0 16 16" fill="none" xmlns="http://www.w3.org/2000/svg">
<path d="M4.54492 2.08008C4.64438 2.08008 4.73976 2.11959 4.81009 2.18991C4.88041 2.26024 4.91992 2.35562 4.91992 2.45508V2.83008H10.9199V2.45508C10.9199 2.35562 10.9594 2.26024 11.0298 2.18991C11.1001 2.11959 11.1955 2.08008 11.2949 2.08008C11.3944 2.08008 11.4898 2.11959 11.5601 2.18991C11.6304 2.26024 11.6699 2.35562 11.6699 2.45508V2.83008H12.4199C12.8177 2.83008 13.1993 2.98811 13.4806 3.26942C13.7619 3.55072 13.9199 3.93225 13.9199 4.33008V12.5801C13.9199 12.9779 13.7619 13.3594 13.4806 13.6407C13.1993 13.922 12.8177 14.0801 12.4199 14.0801H3.41992C3.0221 14.0801 2.64057 13.922 2.35926 13.6407C2.07796 13.3594 1.91992 12.9779 1.91992 12.5801V4.33008C1.91992 3.93225 2.07796 3.55072 2.35926 3.26942C2.64057 2.98811 3.0221 2.83008 3.41992 2.83008H4.16992V2.45508C4.16992 2.35562 4.20943 2.26024 4.27976 2.18991C4.35008 2.11959 4.44547 2.08008 4.54492 2.08008ZM12.0104 4.33008H3.82867C3.60367 4.33008 3.41992 4.49808 3.41992 4.70508V5.45508C3.41992 5.66208 3.60292 5.83008 3.82867 5.83008H12.0112C12.2362 5.83008 12.4199 5.66208 12.4199 5.45508V4.70508C12.4199 4.49808 12.2369 4.33008 12.0104 4.33008ZM8.29492 7.33008C8.19547 7.33008 8.10008 7.36959 8.02976 7.43991C7.95943 7.51024 7.91992 7.60562 7.91992 7.70508V8.45508C7.91992 8.55453 7.95943 8.64992 8.02976 8.72024C8.10008 8.79057 8.19547 8.83008 8.29492 8.83008H9.04492C9.14438 8.83008 9.23976 8.79057 9.31009 8.72024C9.38041 8.64992 9.41992 8.55453 9.41992 8.45508V7.70508C9.41992 7.60562 9.38041 7.51024 9.31009 7.43991C9.23976 7.36959 9.14438 7.33008 9.04492 7.33008H8.29492ZM10.5449 7.33008C10.4455 7.33008 10.3501 7.36959 10.2798 7.43991C10.2094 7.51024 10.1699 7.60562 10.1699 7.70508V8.45508C10.1699 8.55453 10.2094 8.64992 10.2798 8.72024C10.3501 8.79057 10.4455 8.83008 10.5449 8.83008H11.2949C11.3944 8.83008 11.4898 8.79057 11.5601 8.72024C11.6304 8.64992 11.6699 8.55453 11.6699 8.45508V7.70508C11.6699 7.60562 11.6304 7.51024 11.5601 7.43991C11.4898 7.36959 11.3944 7.33008 11.2949 7.33008H10.5449ZM4.16992 9.95508V10.7051C4.16992 10.8045 4.20943 10.8999 4.27976 10.9702C4.35008 11.0406 4.44547 11.0801 4.54492 11.0801H5.29492C5.39438 11.0801 5.48976 11.0406 5.56009 10.9702C5.63041 10.8999 5.66992 10.8045 5.66992 10.7051V9.95508C5.66992 9.85562 5.63041 9.76024 5.56009 9.68991C5.48976 9.61959 5.39438 9.58008 5.29492 9.58008H4.54492C4.44547 9.58008 4.35008 9.61959 4.27976 9.68991C4.20943 9.76024 4.16992 9.85562 4.16992 9.95508ZM6.79492 9.58008C6.69547 9.58008 6.60008 9.61959 6.52976 9.68991C6.45943 9.76024 6.41992 9.85562 6.41992 9.95508V10.7051C6.41992 10.8045 6.45943 10.8999 6.52976 10.9702C6.60008 11.0406 6.69547 11.0801 6.79492 11.0801H7.54492C7.64438 11.0801 7.73976 11.0406 7.81009 10.9702C7.88041 10.8999 7.91992 10.8045 7.91992 10.7051V9.95508C7.91992 9.85562 7.88041 9.76024 7.81009 9.68991C7.73976 9.61959 7.64438 9.58008 7.54492 9.58008H6.79492Z" fill="#7F8A9A" fill-opacity="0.8"/>
</svg>
