<svg width="32" height="32" viewBox="0 0 32 32" fill="none" xmlns="http://www.w3.org/2000/svg">
<path d="M24.4533 8.74514C23.6561 7.87605 22.218 7.82274 21.2597 8.78106L11.8735 18.1672C11.6302 18.4106 11.6302 18.7188 11.8735 18.9622C12.1169 19.2055 12.4251 19.2055 12.6684 18.9622L20.4323 11.1983C20.6509 10.9872 20.9436 10.8704 21.2474 10.8731C21.5512 10.8757 21.8419 10.9976 22.0567 11.2124C22.2716 11.4273 22.3934 11.7179 22.3961 12.0217C22.3987 12.3256 22.2819 12.6183 22.0708 12.8368L14.307 20.6007C14.0424 20.873 13.7259 21.0894 13.3761 21.2372C13.0264 21.385 12.6506 21.4611 12.271 21.4611C11.8913 21.4611 11.5155 21.385 11.1658 21.2372C10.8161 21.0894 10.4996 20.873 10.235 20.6007C9.96271 20.3361 9.74628 20.0196 9.59849 19.6699C9.45069 19.3202 9.37454 18.9444 9.37454 18.5647C9.37454 18.1851 9.45069 17.8092 9.59849 17.4595C9.74628 17.1098 9.96271 16.7933 10.235 16.5287L19.6212 7.14253C21.437 5.32555 24.3896 5.26646 26.1451 7.15992C27.9436 8.97805 27.9957 11.9156 26.1104 13.6642L15.1181 24.6565C12.5804 27.1942 8.60109 27.1942 6.06334 24.6565C3.5256 22.1187 3.5256 18.1394 6.06334 15.6017L15.4495 6.2155C15.6681 6.00442 15.9608 5.88762 16.2646 5.89026C16.5684 5.8929 16.8591 6.01477 17.0739 6.22962C17.2888 6.44447 17.4107 6.73511 17.4133 7.03894C17.4159 7.34277 17.2991 7.63548 17.0881 7.85403L7.70187 17.2402C6.06798 18.8741 6.06798 21.384 7.70187 23.0179C9.33576 24.6518 11.8457 24.6518 13.4796 23.0179L24.4881 12.0094L24.524 11.9747C25.3931 11.1786 25.4464 9.73938 24.4881 8.78106C24.4762 8.76932 24.4646 8.75735 24.4533 8.74514Z" fill="#7F8A9A" fill-opacity="0.8"/>
</svg>
