<svg width="27" height="25" viewBox="0 0 27 25" fill="none" xmlns="http://www.w3.org/2000/svg">
<path d="M4.14461 12.4967C4.14461 7.85015 8.00571 4.06408 12.7443 4.06408H19.9738C21.3913 4.06408 22.5591 5.19593 22.5658 6.58592C22.5726 7.26768 22.3026 7.90972 21.8166 8.39953C21.3238 8.88272 20.669 9.1541 19.9738 9.1541H14.3779C10.4763 9.1541 7.30369 12.2386 7.24969 16.0511H11.401C11.455 14.4824 12.7713 13.2182 14.3846 13.2182H19.9805C21.7896 13.2182 23.4906 12.5232 24.7664 11.2656C26.0422 10.0079 26.7374 8.33334 26.7239 6.55944C26.6969 2.94547 23.6729 5.84807e-06 19.9805 5.84807e-06H12.7443C5.7174 -0.00661316 0 5.60631 0 12.4967C0 19.3871 5.7174 25 12.7511 25H26.2649V20.9293H12.7443C8.00571 20.9293 4.14461 17.1432 4.14461 12.4967Z" fill="white"/>
</svg>
