<svg width="27" height="26" viewBox="0 0 27 26" fill="none" xmlns="http://www.w3.org/2000/svg">
<path d="M4.14461 12.9967C4.14461 8.35015 8.00571 4.56408 12.7443 4.56408H19.9738C21.3913 4.56408 22.5591 5.69593 22.5658 7.08592C22.5726 7.76768 22.3026 8.40972 21.8166 8.89953C21.3238 9.38272 20.669 9.6541 19.9738 9.6541H14.3779C10.4763 9.6541 7.30369 12.7386 7.24969 16.5511H11.401C11.455 14.9824 12.7713 13.7182 14.3846 13.7182H19.9805C21.7896 13.7182 23.4906 13.0232 24.7664 11.7656C26.0422 10.5079 26.7374 8.83334 26.7239 7.05944C26.6969 3.44547 23.6729 0.500006 19.9805 0.500006H12.7443C5.7174 0.493387 0 6.10631 0 12.9967C0 19.8871 5.7174 25.5 12.7511 25.5H26.2649V21.4293H12.7443C8.00571 21.4293 4.14461 17.6432 4.14461 12.9967Z" fill="#E82827"/>
</svg>
