<svg width="32" height="32" viewBox="0 0 32 32" fill="none" xmlns="http://www.w3.org/2000/svg">
<path d="M15.84 22.7602C18.636 22.7602 21 21.0082 21.972 18.5602H9.70797C10.668 21.0082 13.044 22.7602 15.84 22.7602ZM11.64 14.9602C12.1174 14.9602 12.5752 14.7705 12.9128 14.4329C13.2503 14.0954 13.44 13.6375 13.44 13.1602C13.44 12.6828 13.2503 12.2249 12.9128 11.8874C12.5752 11.5498 12.1174 11.3602 11.64 11.3602C11.1626 11.3602 10.7047 11.5498 10.3672 11.8874C10.0296 12.2249 9.83997 12.6828 9.83997 13.1602C9.83997 13.6375 10.0296 14.0954 10.3672 14.4329C10.7047 14.7705 11.1626 14.9602 11.64 14.9602ZM20.04 14.9602C20.5174 14.9602 20.9752 14.7705 21.3128 14.4329C21.6503 14.0954 21.84 13.6375 21.84 13.1602C21.84 12.6828 21.6503 12.2249 21.3128 11.8874C20.9752 11.5498 20.5174 11.3602 20.04 11.3602C19.5626 11.3602 19.1047 11.5498 18.7672 11.8874C18.4296 12.2249 18.24 12.6828 18.24 13.1602C18.24 13.6375 18.4296 14.0954 18.7672 14.4329C19.1047 14.7705 19.5626 14.9602 20.04 14.9602ZM15.84 25.7602C13.2939 25.7602 10.8521 24.7487 9.05174 22.9484C7.25139 21.148 6.23997 18.7062 6.23997 16.1602C6.23997 13.6141 7.25139 11.1723 9.05174 9.37193C10.8521 7.57158 13.2939 6.56016 15.84 6.56016C18.386 6.56016 20.8278 7.57158 22.6282 9.37193C24.4285 11.1723 25.44 13.6141 25.44 16.1602C25.44 18.7062 24.4285 21.148 22.6282 22.9484C20.8278 24.7487 18.386 25.7602 15.84 25.7602ZM15.84 4.16016C9.20397 4.16016 3.83997 9.56016 3.83997 16.1602C3.83997 19.3428 5.10425 22.395 7.35468 24.6454C8.46899 25.7597 9.79186 26.6437 11.2478 27.2467C12.7037 27.8498 14.2641 28.1602 15.84 28.1602C19.0226 28.1602 22.0748 26.8959 24.3252 24.6454C26.5757 22.395 27.84 19.3428 27.84 16.1602C27.84 14.5843 27.5296 13.0239 26.9265 11.568C26.3235 10.112 25.4396 8.78918 24.3252 7.67488C23.2109 6.56057 21.8881 5.67666 20.4322 5.0736C18.9763 4.47055 17.4158 4.16016 15.84 4.16016Z" fill="#7F8A9A" fill-opacity="0.8"/>
</svg>
