<svg width="24" height="25" viewBox="0 0 24 25" fill="none" xmlns="http://www.w3.org/2000/svg">
<rect x="3.56409" y="5.07141" width="2" height="22.4065" transform="rotate(-42.4688 3.56409 5.07141)" fill="#C4C4C4"/>
<path fill-rule="evenodd" clip-rule="evenodd" d="M4.58365 7.63137C3.30039 8.96156 2.38579 10.6368 2 12.5C2.945 17.064 7.063 20.5 12 20.5C13.317 20.5 14.5757 20.2555 15.7314 19.8103L13.4265 17.2922C12.9676 17.4288 12.4875 17.5 12 17.5C10.6739 17.5 9.40215 16.9732 8.46447 16.0355C7.52678 15.0979 7 13.8261 7 12.5C7 11.8625 7.12175 11.2375 7.35238 10.6562L4.58365 7.63137ZM9.00031 12.4566C9.0001 12.471 9 12.4855 9 12.5C9 13.2956 9.31607 14.0587 9.87868 14.6213C10.3889 15.1315 11.0639 15.439 11.7786 15.4918L9.00031 12.4566ZM14.9409 13.0924L11.6694 9.51826C11.7787 9.50615 11.889 9.5 12 9.5C12.7957 9.5 13.5587 9.81607 14.1213 10.3787C14.6839 10.9413 15 11.7044 15 12.5C15 12.7004 14.9799 12.8988 14.9409 13.0924ZM16.4627 14.7549C16.8127 14.0621 17 13.2907 17 12.5C17 11.1739 16.4732 9.90215 15.5355 8.96447C14.5979 8.02678 13.3261 7.5 12 7.5C11.3594 7.5 10.7314 7.62295 10.1477 7.85577L7.86052 5.35705C9.12564 4.80614 10.5263 4.5 12 4.5C16.937 4.5 21.055 7.936 22 12.5C21.5854 14.5024 20.56 16.2877 19.1226 17.6609L16.4627 14.7549Z" fill="#C4C4C4"/>
</svg>
