<svg width="40" height="40" viewBox="0 0 40 40" fill="none" xmlns="http://www.w3.org/2000/svg">
<g clip-path="url(#clip0_4304_5756)">
<path d="M10.55 5.2002C10.2875 5.2002 10.0625 5.2377 9.83755 5.3127C8.37505 5.6127 7.21255 6.7752 6.91255 8.2377C6.80005 8.4627 6.80005 8.6877 6.80005 8.9502V29.5752C6.80005 32.6877 9.31255 35.2002 12.425 35.2002H33.0501V31.4502H12.425C11.375 31.4502 10.55 30.6252 10.55 29.5752C10.55 28.5252 11.375 27.7002 12.425 27.7002H33.0501V7.0752C33.0501 6.0252 32.225 5.2002 31.1751 5.2002H29.3001V16.4502L25.5501 12.7002L21.8 16.4502V5.2002H10.55Z" fill="#E82827"/>
</g>
<defs>
<clipPath id="clip0_4304_5756">
<rect width="40" height="40" fill="white"/>
</clipPath>
</defs>
</svg>
