<svg width="20" height="20" viewBox="0 0 20 20" fill="none" xmlns="http://www.w3.org/2000/svg">
<g clip-path="url(#clip0_4699_7926)">
<path d="M17.4002 10.1C17.4002 12.0891 16.61 13.9968 15.2035 15.4034C13.797 16.8099 11.8893 17.6001 9.90013 17.6001C7.91097 17.6001 6.00329 16.8099 4.59675 15.4034C3.19021 13.9968 2.40002 12.0891 2.40002 10.1C2.40002 9.95791 2.45647 9.82165 2.55693 9.72118C2.6574 9.62072 2.79366 9.56428 2.93575 9.56428C3.07783 9.56428 3.21409 9.62072 3.31456 9.72118C3.41503 9.82165 3.47147 9.95791 3.47147 10.1C3.46926 11.5347 3.94632 12.929 4.82691 14.0616C5.70751 15.1943 6.94118 16.0003 8.33213 16.3519C9.72307 16.7035 11.1916 16.5804 12.5046 16.0021C13.8176 15.4239 14.8999 14.4237 15.5796 13.1603C16.2593 11.8968 16.4976 10.4425 16.2566 9.02824C16.0155 7.61394 15.309 6.32067 14.2492 5.3537C13.1893 4.38672 11.8369 3.80145 10.4064 3.69077C8.97603 3.58009 7.54963 3.95035 6.35365 4.74278L6.6858 4.74278C6.82788 4.74278 6.96414 4.79922 7.06461 4.89969C7.16508 5.00016 7.22152 5.13642 7.22152 5.2785C7.22152 5.42059 7.16508 5.55685 7.06461 5.65732C6.96414 5.75778 6.82788 5.81423 6.6858 5.81423L5.07863 5.81423C4.93655 5.81423 4.80029 5.75778 4.69982 5.65732C4.59935 5.55685 4.54291 5.42059 4.54291 5.2785L4.54291 3.67134C4.54291 3.52926 4.59935 3.39299 4.69982 3.29253C4.80029 3.19206 4.93655 3.13562 5.07863 3.13562C5.22071 3.13562 5.35698 3.19206 5.45744 3.29253C5.55791 3.39299 5.61435 3.52926 5.61435 3.67134L5.61435 3.9467C6.73873 3.1631 8.05635 2.70263 9.42406 2.61533C10.7918 2.52803 12.1572 2.81722 13.3721 3.4515C14.587 4.08578 15.6048 5.04088 16.315 6.21302C17.0251 7.38516 17.4005 8.72951 17.4002 10.1ZM14.7216 10.1C14.7216 11.0536 14.4388 11.9858 13.9091 12.7787C13.3793 13.5716 12.6262 14.1895 11.7452 14.5545C10.8642 14.9194 9.89478 15.0149 8.9595 14.8288C8.02422 14.6428 7.16511 14.1836 6.49081 13.5093C5.81652 12.835 5.35731 11.9759 5.17128 11.0406C4.98524 10.1053 5.08072 9.1359 5.44565 8.25489C5.81057 7.37388 6.42856 6.62086 7.22145 6.09107C8.01434 5.56128 8.94652 5.2785 9.90013 5.2785C11.1784 5.27992 12.404 5.78835 13.3079 6.69225C14.2118 7.59615 14.7202 8.82169 14.7216 10.1ZM11.8046 10.7257L10.4358 9.81339L10.4358 7.42139C10.4358 7.27931 10.3794 7.14304 10.2789 7.04258C10.1785 6.94211 10.0422 6.88567 9.90013 6.88567C9.75804 6.88567 9.62178 6.94211 9.52131 7.04258C9.42085 7.14304 9.3644 7.27931 9.3644 7.42139L9.3644 10.1C9.36439 10.1882 9.38614 10.275 9.42773 10.3527C9.46932 10.4305 9.52945 10.4968 9.6028 10.5457L11.21 11.6172C11.3282 11.696 11.4729 11.7247 11.6122 11.6969C11.7516 11.669 11.8742 11.587 11.953 11.4688C12.0319 11.3506 12.0605 11.2059 12.0327 11.0665C12.0049 10.9272 11.9228 10.8046 11.8046 10.7257Z" fill="#E82827"/>
</g>
<defs>
<clipPath id="clip0_4699_7926">
<rect width="20" height="20" fill="white"/>
</clipPath>
</defs>
</svg>
