<svg width="12" height="17" viewBox="0 0 12 17" fill="none" xmlns="http://www.w3.org/2000/svg">
<path d="M-3.93428e-07 16.7499L11.7857 16.7499L11.7857 13.8035C11.7845 12.7098 11.3495 11.6613 10.5762 10.888C9.80283 10.1147 8.75435 9.67972 7.66071 9.67847L4.125 9.67847C3.03137 9.67971 1.98288 10.1147 1.20956 10.888C0.436245 11.6613 0.00124756 12.7098 -2.295e-07 13.8035L-3.93428e-07 16.7499Z" fill="#E82827"/>
<path d="M1.76782 4.375C1.76782 5.19085 2.00975 5.98837 2.46301 6.66673C2.91627 7.34508 3.56051 7.87379 4.31425 8.186C5.068 8.49821 5.8974 8.5799 6.69757 8.42074C7.49774 8.26158 8.23275 7.86871 8.80964 7.29182C9.38653 6.71492 9.7794 5.97992 9.93856 5.17975C10.0977 4.37958 10.016 3.55018 9.70382 2.79643C9.39161 2.04269 8.8629 1.39845 8.18455 0.945188C7.5062 0.491927 6.70867 0.25 5.89282 0.25C4.7988 0.25 3.74959 0.684597 2.97601 1.45818C2.20242 2.23177 1.76782 3.28098 1.76782 4.375Z" fill="#E82827"/>
</svg>
