<svg width="24" height="24" viewBox="0 0 24 24" fill="none" xmlns="http://www.w3.org/2000/svg">
<path d="M11.2159 4.24502C11.4405 4.08564 11.709 4.00002 11.9844 4.00002C12.2598 4.00002 12.5284 4.08564 12.7529 4.24502L18.5824 8.38101C19.3066 8.89502 18.944 10.0366 18.0564 10.0386H5.91541C5.02486 10.0386 4.66027 8.89602 5.38745 8.38101L11.2159 4.24502ZM11.9849 7.92179C12.2051 7.92179 12.4163 7.83431 12.572 7.6786C12.7277 7.5229 12.8152 7.31171 12.8152 7.0915C12.8152 6.8713 12.7277 6.66011 12.572 6.5044C12.4163 6.34869 12.2051 6.26122 11.9849 6.26122C11.7647 6.26122 11.5535 6.34869 11.3978 6.5044C11.2421 6.66011 11.1546 6.8713 11.1546 7.0915C11.1546 7.31171 11.2421 7.5229 11.3978 7.6786C11.5535 7.83431 11.7647 7.92179 11.9849 7.92179ZM6.50612 11.0357V15.0203H8.49841V11.0357H6.50612ZM5.01191 18.1741C5.01191 16.9817 5.97816 16.0155 7.16955 16.0155H10.3273C10.1058 16.4827 9.99147 16.9936 9.99262 17.5107C9.99262 18.0456 10.1122 18.5516 10.3283 19.0049H5.50998C5.37788 19.0049 5.25119 18.9524 5.15779 18.859C5.06438 18.7656 5.01191 18.6389 5.01191 18.5068V18.1751V18.1741ZM11.0386 15.0193C11.178 14.8838 11.3275 14.7603 11.4868 14.6487V11.0347H9.49455V15.0193H11.0386ZM13.4791 14.0232H14.4753V11.0357H12.483V14.1686C12.8063 14.0725 13.1418 14.0238 13.4791 14.0242V14.0232ZM15.4714 14.0232H17.4637V11.0357H15.4714V14.0242V14.0232ZM13.4791 15.0193C12.8186 15.0193 12.1852 15.2817 11.7182 15.7487C11.2511 16.2157 10.9888 16.8492 10.9888 17.5097C10.9888 18.1701 11.2511 18.8036 11.7182 19.2706C12.1852 19.7376 12.8186 20 13.4791 20H13.9772C14.1093 20 14.236 19.9475 14.3294 19.8541C14.4228 19.7607 14.4753 19.634 14.4753 19.502C14.4753 19.3699 14.4228 19.2432 14.3294 19.1498C14.236 19.0564 14.1093 19.0039 13.9772 19.0039H13.4791C13.0828 19.0039 12.7028 18.8465 12.4226 18.5662C12.1423 18.286 11.9849 17.906 11.9849 17.5097C11.9849 17.1134 12.1423 16.7333 12.4226 16.4531C12.7028 16.1729 13.0828 16.0155 13.4791 16.0155H13.9772C14.1093 16.0155 14.236 15.963 14.3294 15.8696C14.4228 15.7762 14.4753 15.6495 14.4753 15.5174C14.4753 15.3853 14.4228 15.2586 14.3294 15.1652C14.236 15.0718 14.1093 15.0193 13.9772 15.0193H13.4791ZM16.9656 15.0193C16.8335 15.0193 16.7068 15.0718 16.6134 15.1652C16.52 15.2586 16.4675 15.3853 16.4675 15.5174C16.4675 15.6495 16.52 15.7762 16.6134 15.8696C16.7068 15.963 16.8335 16.0155 16.9656 16.0155H17.4637C17.86 16.0155 18.24 16.1729 18.5203 16.4531C18.8005 16.7333 18.9579 17.1134 18.9579 17.5097C18.9579 17.906 18.8005 18.286 18.5203 18.5662C18.24 18.8465 17.86 19.0039 17.4637 19.0039H16.9656C16.8335 19.0039 16.7068 19.0564 16.6134 19.1498C16.52 19.2432 16.4675 19.3699 16.4675 19.502C16.4675 19.634 16.52 19.7607 16.6134 19.8541C16.7068 19.9475 16.8335 20 16.9656 20H17.4637C18.1242 20 18.7576 19.7376 19.2246 19.2706C19.6917 18.8036 19.954 18.1701 19.954 17.5097C19.954 16.8492 19.6917 16.2157 19.2246 15.7487C18.7576 15.2817 18.1242 15.0193 17.4637 15.0193H16.9656ZM12.981 17.5097C12.981 17.3776 13.0335 17.2509 13.1269 17.1575C13.2203 17.0641 13.347 17.0116 13.4791 17.0116H17.4637C17.5958 17.0116 17.7225 17.0641 17.8159 17.1575C17.9093 17.2509 17.9618 17.3776 17.9618 17.5097C17.9618 17.6418 17.9093 17.7684 17.8159 17.8619C17.7225 17.9553 17.5958 18.0077 17.4637 18.0077H13.4791C13.347 18.0077 13.2203 17.9553 13.1269 17.8619C13.0335 17.7684 12.981 17.6418 12.981 17.5097Z" fill="#E82827"/>
</svg>
