<svg width="19" height="19" viewBox="0 0 19 19" fill="none" xmlns="http://www.w3.org/2000/svg">
<path fill-rule="evenodd" clip-rule="evenodd" d="M18.38 9.12008C18.38 14.0906 14.3506 18.1201 9.38 18.1201C4.40944 18.1201 0.380005 14.0906 0.380005 9.12008C0.380005 4.14952 4.40944 0.120083 9.38 0.120083C14.3506 0.120083 18.38 4.14952 18.38 9.12008ZM8.03272 12.3667C8.17187 12.4244 8.32104 12.454 8.47167 12.4538C8.62231 12.454 8.77151 12.4244 8.91069 12.3667C9.04987 12.309 9.17628 12.2244 9.28267 12.1178L13.6559 7.74458C13.8691 7.52912 13.9884 7.23798 13.9876 6.93482C13.9868 6.63166 13.866 6.34115 13.6516 6.12681C13.4372 5.91247 13.1467 5.79174 12.8435 5.79102C12.5404 5.79031 12.2493 5.90966 12.0339 6.12298L8.47167 9.68618L6.72567 7.94038C6.62051 7.82858 6.49398 7.73903 6.35358 7.67703C6.21317 7.61503 6.06175 7.58186 5.90829 7.57947C5.75482 7.57708 5.60244 7.60552 5.46017 7.66312C5.3179 7.72071 5.18865 7.80628 5.08007 7.91476C4.97148 8.02323 4.88578 8.15241 4.82805 8.29462C4.77031 8.43683 4.74172 8.58918 4.74396 8.74265C4.74619 8.89611 4.77922 9.04757 4.84108 9.18804C4.90294 9.3285 4.99236 9.45512 5.10406 9.56038L7.66086 12.1178C7.7672 12.2245 7.89358 12.3091 8.03272 12.3667Z" fill="#7F8A9A" fill-opacity="0.8"/>
</svg>
