<svg width="20" height="20" viewBox="0 0 20 20" fill="none" xmlns="http://www.w3.org/2000/svg">
<path d="M0 3.75C0 2.37109 1.12109 1.25 2.5 1.25H17.5C18.8789 1.25 20 2.37109 20 3.75V16.25C20 17.6289 18.8789 18.75 17.5 18.75H2.5C1.12109 18.75 0 17.6289 0 16.25V3.75ZM12.6484 7.91016C12.4727 7.65234 12.1836 7.5 11.875 7.5C11.5664 7.5 11.2734 7.65234 11.1016 7.91016L7.70312 12.8945L6.66797 11.6016C6.48828 11.3789 6.21875 11.25 5.9375 11.25C5.65625 11.25 5.38281 11.3789 5.20703 11.6016L2.70703 14.7266C2.48047 15.0078 2.4375 15.3945 2.59375 15.7188C2.75 16.043 3.07812 16.25 3.4375 16.25H16.5625C16.9102 16.25 17.2305 16.0586 17.3906 15.75C17.5508 15.4414 17.5312 15.0703 17.3359 14.7852L12.6484 7.91016ZM4.375 7.5C4.87228 7.5 5.34919 7.30246 5.70083 6.95083C6.05246 6.59919 6.25 6.12228 6.25 5.625C6.25 5.12772 6.05246 4.65081 5.70083 4.29917C5.34919 3.94754 4.87228 3.75 4.375 3.75C3.87772 3.75 3.40081 3.94754 3.04917 4.29917C2.69754 4.65081 2.5 5.12772 2.5 5.625C2.5 6.12228 2.69754 6.59919 3.04917 6.95083C3.40081 7.30246 3.87772 7.5 4.375 7.5Z" fill="#7F8A9A" fill-opacity="0.6"/>
</svg>
