<svg width="85" height="85" viewBox="0 0 85 85" fill="none" xmlns="http://www.w3.org/2000/svg">
<g clip-path="url(#clip0_4049_6545)">
<path d="M0.522118 30.5825C0.183449 31.0205 -0.000196829 31.5586 1.58309e-07 32.1123V82.4843C1.58309e-07 83.2185 0.316425 83.8765 0.817792 84.3364C1.26504 84.747 1.85987 84.9998 2.51546 84.9998H81.7949C82.45 84.9998 83.0453 84.747 83.4927 84.3364C83.9941 83.8765 84.3099 83.2185 84.3099 82.4843V32.1123C84.3099 31.5357 84.114 31.0066 83.7886 30.5825C83.3287 29.9838 82.6076 29.5967 81.7949 29.5967H2.51546C1.70232 29.5967 0.981815 29.9838 0.522118 30.5825Z" fill="#FECB5B"/>
<path d="M83.2994 30.097L43.66 0.499982C43.2254 0.175384 42.6975 0 42.1551 0C41.6127 0 41.0848 0.175384 40.6503 0.499982L1.01031 30.0969C0.587103 30.4131 0.274199 30.8546 0.11597 31.3586C-0.0422603 31.8627 -0.037785 32.4038 0.128761 32.9052C0.295307 33.4066 0.61547 33.8428 1.04385 34.152C1.47223 34.4612 1.98708 34.6277 2.5154 34.6279H81.7948C82.8786 34.6279 83.8401 33.9333 84.1821 32.9048C84.3485 32.4034 84.3527 31.8623 84.1943 31.3583C84.0358 30.8543 83.7228 30.4131 83.2994 30.097Z" fill="#F7B545"/>
<path d="M40.6504 0.500039L1.01007 30.0968C0.58686 30.4131 0.273956 30.8545 0.115726 31.3586C-0.0425045 31.8627 -0.0380292 32.4038 0.128517 32.9051C0.295063 33.4065 0.615227 33.8428 1.04361 34.152C1.47199 34.4612 1.98684 34.6277 2.51517 34.6279H42.1547V2.70715e-07C41.6123 -0.000251548 41.0845 0.175183 40.6501 0.500039H40.6504Z" fill="#FECB5B"/>
<path d="M45.5183 59.951L83.7887 30.5825C83.3288 29.9838 82.6078 29.5967 81.7952 29.5967H2.51557C1.70242 29.5967 0.981914 29.9838 0.522217 30.5825L38.7926 59.951C40.7757 61.473 43.5344 61.473 45.5183 59.951Z" fill="#F4A22A"/>
<path d="M2.51557 29.5967C1.70242 29.5967 0.981914 29.9838 0.522217 30.5825L38.7926 59.951C39.7568 60.6922 40.939 61.0938 42.1551 61.0932V29.5967H2.51557Z" fill="#F7B545"/>
<path d="M66.3161 25.8965H17.9946C16.6054 25.8965 15.479 27.0224 15.479 28.4115V74.9101C15.479 76.2992 16.6054 77.4256 17.9946 77.4256H66.3161C67.7052 77.4256 68.8309 76.2992 68.8309 74.9101V28.4115C68.8309 27.0224 67.7054 25.8965 66.3161 25.8965Z" fill="#E3E4E8"/>
<path d="M17.9945 25.8965C16.6054 25.8965 15.479 27.0224 15.479 28.4115V74.9101C15.479 76.2992 16.6054 77.4256 17.9946 77.4256H42.1549V25.8965H17.9945Z" fill="#F9FAFA"/>
<path d="M84.3099 82.4845V32.1124C84.3099 31.5358 84.114 31.0067 83.7887 30.5825L54.6863 52.9154L83.4926 84.3366C83.994 83.8767 84.3098 83.2186 84.3098 82.4845H84.3099Z" fill="#FECB5B"/>
<path d="M0.522119 30.5825C0.183449 31.0206 -0.00019683 31.5587 1.58309e-07 32.1124V82.4845C1.58309e-07 83.2186 0.316426 83.8767 0.817793 84.3366L29.6238 52.9154L0.522119 30.5825Z" fill="#FEE09D"/>
<path d="M54.6866 52.9155L45.5182 59.9513C43.5344 61.4731 40.7757 61.4731 38.7926 59.9513L29.6241 52.9155L0.817871 84.3366C1.26512 84.7472 1.85995 85 2.51555 85H81.7952C82.4502 85 83.0456 84.7472 83.493 84.3366L54.6866 52.9155Z" fill="#F7B545"/>
<path d="M38.7926 59.9511L29.6241 52.9155L0.817871 84.3366C1.26512 84.7472 1.85995 85 2.51555 85H42.1551V61.0931C40.939 61.0938 39.7568 60.6922 38.7926 59.9511Z" fill="#FECB5B"/>
<path d="M52.0686 40.9572H32.2419C30.8528 40.9572 29.7271 39.8314 29.7271 38.4417C29.7271 37.0525 30.8526 35.9268 32.2419 35.9268H52.0684C53.4575 35.9268 54.5832 37.0525 54.5832 38.4417C54.5832 39.8313 53.4575 40.9572 52.0684 40.9572H52.0686ZM47.6665 50.6334H36.6434C35.2542 50.6334 34.1278 49.507 34.1278 48.1179C34.1278 46.7289 35.2542 45.6023 36.6434 45.6023H47.6665C49.0563 45.6023 50.182 46.7289 50.182 48.1179C50.182 49.507 49.0564 50.6334 47.6665 50.6334Z" fill="#8D92A1"/>
<path d="M32.0802 36.0327C30.6913 36.0327 29.5654 37.1585 29.5654 38.5477C29.5654 39.9372 30.6913 41.0632 32.0804 41.0632H41.9932V36.0329L32.0802 36.0327ZM33.9662 48.2239C33.9662 49.613 35.0926 50.7394 36.4818 50.7394H41.9934V45.7084H36.4816C35.0926 45.7084 33.9662 46.8349 33.9662 48.2239Z" fill="#C6C9D0"/>
<circle cx="66.5218" cy="26.7935" r="5.54348" fill="#E82827"/>
</g>
<defs>
<clipPath id="clip0_4049_6545">
<rect width="85" height="85" rx="4" fill="white"/>
</clipPath>
</defs>
</svg>
