<svg width="24" height="25" viewBox="0 0 24 25" fill="none" xmlns="http://www.w3.org/2000/svg">
<g clip-path="url(#clip0_4478_11024)">
<path fill-rule="evenodd" clip-rule="evenodd" d="M12.1201 21.6201C13.302 21.6201 14.4723 21.3873 15.5643 20.935C16.6562 20.4827 17.6483 19.8198 18.4841 18.9841C19.3198 18.1483 19.9827 17.1562 20.435 16.0643C20.8873 14.9723 21.1201 13.802 21.1201 12.6201C21.1201 11.4382 20.8873 10.2679 20.435 9.17597C19.9827 8.08404 19.3198 7.09188 18.4841 6.25616C17.6483 5.42043 16.6562 4.75749 15.5643 4.3052C14.4723 3.85291 13.302 3.62012 12.1201 3.62012C9.73317 3.62012 7.44398 4.56833 5.75616 6.25616C4.06833 7.94398 3.12012 10.2332 3.12012 12.6201C3.12012 15.0071 4.06833 17.2962 5.75616 18.9841C7.44398 20.6719 9.73317 21.6201 12.1201 21.6201ZM13.1201 7.12012C13.1201 6.8549 13.0148 6.60055 12.8272 6.41301C12.6397 6.22547 12.3853 6.12012 12.1201 6.12012C11.8549 6.12012 11.6005 6.22547 11.413 6.41301C11.2255 6.60055 11.1201 6.8549 11.1201 7.12012V12.3701C11.1201 13.0601 11.6801 13.6201 12.3701 13.6201H15.6201C15.8853 13.6201 16.1397 13.5148 16.3272 13.3272C16.5148 13.1397 16.6201 12.8853 16.6201 12.6201C16.6201 12.3549 16.5148 12.1005 16.3272 11.913C16.1397 11.7255 15.8853 11.6201 15.6201 11.6201H13.1201V7.12012Z" fill="#E82827"/>
</g>
<defs>
<clipPath id="clip0_4478_11024">
<rect width="24" height="24" fill="white" transform="translate(0 0.5)"/>
</clipPath>
</defs>
</svg>
