<svg width="24" height="25" viewBox="0 0 24 25" fill="none" xmlns="http://www.w3.org/2000/svg">
<g clip-path="url(#clip0_4478_11027)">
<path fill-rule="evenodd" clip-rule="evenodd" d="M12.0002 3.62012C8.02392 3.62012 4.80005 7.2229 4.80005 11.2703C4.80005 15.2862 7.0978 19.6513 10.6835 21.3271C11.0956 21.5201 11.5451 21.6201 12.0002 21.6201C12.4553 21.6201 12.9048 21.5201 13.3169 21.3271C16.9026 19.6513 19.2004 15.2862 19.2004 11.2703C19.2004 7.2229 15.9765 3.62012 12.0002 3.62012ZM12.0002 12.6203C12.4776 12.6203 12.9355 12.4307 13.273 12.0931C13.6106 11.7555 13.8002 11.2977 13.8002 10.8203C13.8002 10.3429 13.6106 9.88503 13.273 9.54746C12.9355 9.20988 12.4776 9.02024 12.0002 9.02024C11.5228 9.02024 11.065 9.20988 10.7274 9.54746C10.3898 9.88503 10.2002 10.3429 10.2002 10.8203C10.2002 11.2977 10.3898 11.7555 10.7274 12.0931C11.065 12.4307 11.5228 12.6203 12.0002 12.6203Z" fill="#E82827"/>
</g>
<defs>
<clipPath id="clip0_4478_11027">
<rect width="24" height="24" fill="white" transform="translate(0 0.5)"/>
</clipPath>
</defs>
</svg>
