<svg width="20" height="21" viewBox="0 0 20 21" fill="none" xmlns="http://www.w3.org/2000/svg">
<path d="M17.7637 16.5087C17.7637 16.6654 17.7014 16.8157 17.5906 16.9265C17.4798 17.0374 17.3295 17.0996 17.1728 17.0996H2.99093C2.83421 17.0996 2.68391 17.0374 2.5731 16.9265C2.46228 16.8157 2.40002 16.6654 2.40002 16.5087C2.40002 16.352 2.46228 16.2017 2.5731 16.0909C2.68391 15.98 2.83421 15.9178 2.99093 15.9178H17.1728C17.3295 15.9178 17.4798 15.98 17.5906 16.0909C17.7014 16.2017 17.7637 16.352 17.7637 16.5087ZM17.7637 5.28143V13.5542C17.7637 13.8676 17.6391 14.1682 17.4175 14.3898C17.1959 14.6115 16.8953 14.736 16.5818 14.736H3.58184C3.2684 14.736 2.9678 14.6115 2.74617 14.3898C2.52454 14.1682 2.40002 13.8676 2.40002 13.5542V5.28143C2.40002 4.96799 2.52454 4.66739 2.74617 4.44576C2.9678 4.22412 3.2684 4.09961 3.58184 4.09961H16.5818C16.8953 4.09961 17.1959 4.22412 17.4175 4.44576C17.6391 4.66739 17.7637 4.96799 17.7637 5.28143ZM12.7409 9.41779C12.7409 9.31834 12.7158 9.2205 12.6679 9.13335C12.62 9.0462 12.5508 8.97254 12.4669 8.91921L9.2169 6.85103C9.12757 6.79428 9.02463 6.76256 8.91885 6.75918C8.81307 6.75581 8.70833 6.78091 8.61556 6.83186C8.5228 6.88281 8.44542 6.95774 8.39151 7.04881C8.3376 7.13989 8.30915 7.24377 8.30911 7.34961V11.486C8.30915 11.5918 8.3376 11.6957 8.39151 11.7868C8.44542 11.8778 8.5228 11.9528 8.61556 12.0037C8.70833 12.0547 8.81307 12.0798 8.91885 12.0764C9.02463 12.073 9.12757 12.0413 9.2169 11.9846L12.4669 9.91637C12.5508 9.86304 12.62 9.78939 12.6679 9.70223C12.7158 9.61508 12.7409 9.51724 12.7409 9.41779Z" fill="#7F8A9A" fill-opacity="0.8"/>
</svg>
