<svg width="20" height="21" viewBox="0 0 20 21" fill="none" xmlns="http://www.w3.org/2000/svg">
<g clip-path="url(#clip0_4049_6228)">
<path fill-rule="evenodd" clip-rule="evenodd" d="M8.82164 2.25008C9.11663 1.95548 9.51132 1.78213 9.92785 1.76423C10.3444 1.74634 10.7525 1.8852 11.0716 2.15342L11.1783 2.25092L12.7616 3.83342H15C15.4203 3.83349 15.8251 3.99239 16.1332 4.27828C16.4414 4.56417 16.6301 4.95593 16.6616 5.37508L16.6666 5.50008V7.73842L18.25 9.32175C18.5448 9.61678 18.7183 10.0116 18.7362 10.4284C18.7541 10.8451 18.6151 11.2534 18.3466 11.5726L18.2491 11.6784L16.6658 13.2617V15.5001C16.6659 15.9206 16.5071 16.3256 16.2212 16.6339C15.9353 16.9422 15.5434 17.131 15.1241 17.1626L15 17.1667H12.7625L11.1791 18.7501C10.8841 19.0449 10.4892 19.2184 10.0725 19.2363C9.65581 19.2542 9.24753 19.1152 8.92831 18.8468L8.82247 18.7501L7.23914 17.1667H4.99998C4.57949 17.1669 4.1745 17.0081 3.86619 16.7222C3.55787 16.4363 3.36901 16.0444 3.33748 15.6251L3.33331 15.5001V13.2617L1.74998 11.6784C1.45514 11.3834 1.28164 10.9885 1.26374 10.5718C1.24585 10.1551 1.38485 9.74681 1.65331 9.42758L1.74998 9.32175L3.33331 7.73842V5.50008C3.33339 5.07975 3.49228 4.67496 3.77817 4.36682C4.06406 4.05868 4.45582 3.86994 4.87498 3.83842L4.99998 3.83342H7.23831L8.82164 2.25008ZM12.5658 7.98592L9.02914 11.5226L7.55581 10.0492C7.39944 9.89299 7.18741 9.80525 6.96635 9.80533C6.74529 9.80541 6.53332 9.8933 6.37706 10.0497C6.2208 10.206 6.13306 10.4181 6.13314 10.6391C6.13322 10.8602 6.22111 11.0722 6.37748 11.2284L8.38081 13.2317C8.46593 13.3169 8.56701 13.3845 8.67825 13.4306C8.78949 13.4767 8.90873 13.5004 9.02914 13.5004C9.14956 13.5004 9.26879 13.4767 9.38003 13.4306C9.49128 13.3845 9.59235 13.3169 9.67747 13.2317L13.7441 9.16425C13.8959 9.00708 13.9799 8.79658 13.978 8.57808C13.9761 8.35958 13.8885 8.15057 13.734 7.99607C13.5795 7.84156 13.3705 7.75392 13.152 7.75202C12.9335 7.75012 12.723 7.83412 12.5658 7.98592Z" fill="#E82827"/>
</g>
<defs>
<clipPath id="clip0_4049_6228">
<rect width="20" height="20" fill="white" transform="translate(0 0.5)"/>
</clipPath>
</defs>
</svg>
