<svg width="17" height="16" viewBox="0 0 17 16" fill="none" xmlns="http://www.w3.org/2000/svg">
<g clip-path="url(#clip0_4443_11610)">
<path d="M14.5727 2.93722L14.5727 13.2229C14.5727 13.4503 14.4824 13.6683 14.3217 13.829C14.1609 13.9898 13.9429 14.0801 13.7156 14.0801L13.1442 14.0801C12.9168 14.0801 12.6988 13.9898 12.5381 13.829C12.3773 13.6683 12.287 13.4503 12.287 13.2229L12.287 2.93722C12.287 2.70989 12.3773 2.49187 12.5381 2.33113C12.6988 2.17038 12.9168 2.08008 13.1442 2.08008L13.7156 2.08008C13.9429 2.08008 14.1609 2.17038 14.3217 2.33113C14.4824 2.49187 14.5727 2.70989 14.5727 2.93722ZM10.6585 7.15436L4.42417 2.36579C4.25759 2.24028 4.05984 2.16275 3.85234 2.14159C3.64484 2.12044 3.43551 2.15647 3.24703 2.24579C3.05097 2.34048 2.88604 2.48921 2.77164 2.67446C2.65725 2.85972 2.59816 3.0738 2.60132 3.29151L2.60132 12.8686C2.59998 13.0809 2.65778 13.2893 2.76823 13.4706C2.87868 13.6518 3.03743 13.7987 3.22667 13.8948C3.41592 13.9909 3.62819 14.0324 3.83969 14.0147C4.0512 13.9969 4.25359 13.9207 4.42417 13.7944L10.6585 9.01151C10.8007 8.9021 10.9159 8.76147 10.9952 8.60047C11.0745 8.43947 11.1157 8.2624 11.1157 8.08293C11.1157 7.90347 11.0745 7.7264 10.9952 7.5654C10.9159 7.4044 10.8007 7.26377 10.6585 7.15436Z" fill="#E82827"/>
</g>
<defs>
<clipPath id="clip0_4443_11610">
<rect width="16" height="16" fill="white" transform="translate(0.521179)"/>
</clipPath>
</defs>
</svg>
