<svg width="150" height="181" viewBox="0 0 150 181" fill="none" xmlns="http://www.w3.org/2000/svg">
<g clip-path="url(#clip0_3527_2438)">
<path d="M64.0932 67.9896L62.9441 64.6205C62.5715 63.5261 61.5631 62.8486 60.3098 62.8486H43.7325C41.8252 62.8486 39.9413 64.3964 39.527 66.3037L38.7765 69.7615L38.1981 72.4349L29.0939 114.441C28.6796 116.351 29.8912 117.896 31.8012 117.896H94.642C96.5519 117.896 98.4332 116.348 98.8475 114.441L107.782 73.2166C108.197 71.3092 106.985 69.7615 105.075 69.7615H66.7275C65.4742 69.7615 64.4658 69.084 64.0932 67.9896Z" fill="#BB2027"/>
<path d="M57.0204 104.149H111.619C113.589 104.149 115.184 102.755 115.184 101.032V96.9413C115.184 95.2189 113.587 93.8249 111.619 93.8249H108.448C106.479 93.8249 104.884 92.4309 104.884 90.7085V87.5921C104.884 85.8698 106.481 84.4758 108.448 84.4758H119.418C121.388 84.4758 122.983 83.0817 122.983 81.3594V75.9057C122.983 74.1834 121.386 72.7894 119.418 72.7894H116.075C114.105 72.7894 112.511 71.3953 112.511 69.673V66.752C112.511 65.0297 114.108 63.6357 116.075 63.6357H125.435C127.405 63.6357 128.999 62.2416 128.999 60.5193V54.482C128.999 52.7596 127.402 51.3656 125.435 51.3656H92.2307C90.2608 51.3656 88.6662 49.9716 88.6662 48.2492V45.7165C88.6662 43.9942 90.2635 42.6001 92.2307 42.6001H102.481C104.451 42.6001 106.046 41.2061 106.046 39.4838V34.6164C106.046 32.894 104.449 31.5 102.481 31.5H49.8887C47.9188 31.5 46.3241 32.894 46.3241 34.6164V40.07C46.3241 41.7924 47.9214 43.1864 49.8887 43.1864H52.1165C54.0864 43.1864 55.6811 44.5804 55.6811 46.3028C55.6811 48.0251 54.0838 49.4192 52.1165 49.4192H28.2721C26.3022 49.4192 24.7075 50.8132 24.7075 52.5355V57.5983C24.7075 59.3207 26.3048 60.7147 28.2721 60.7147H45.6545C47.6243 60.7147 49.219 62.1087 49.219 63.8311V65.5847C49.219 67.307 47.6217 68.7011 45.6545 68.7011H42.981C41.0112 68.7011 39.4165 70.0951 39.4165 71.8174V101.032C39.4165 102.755 41.0138 104.149 42.981 104.149H57.0204Z" fill="#E82827"/>
<path d="M45.4858 67.9896L43.0807 64.6205C42.299 63.5261 41.0379 62.8486 39.7872 62.8486H23.2099C21.3026 62.8486 19.9946 64.3964 20.2942 66.3037L20.8336 69.7615L21.2505 72.4349L27.8063 114.441C28.1034 116.348 29.8935 117.896 31.8008 117.896H94.6416C96.5516 117.896 97.857 116.348 97.5574 114.441L91.124 73.2166C90.827 71.3092 89.0369 69.7615 87.1295 69.7615H48.7793C47.5286 69.7615 46.2675 69.084 45.4858 67.9896Z" fill="#E4C8C3"/>
<path d="M59.8381 38.1516C61.5136 38.1516 61.5188 35.5459 59.8381 35.5459C58.1627 35.5459 58.1601 38.1516 59.8381 38.1516Z" fill="#E5E5E5"/>
<path d="M67.8611 56.426C69.5365 56.426 69.5417 53.8203 67.8611 53.8203C66.1856 53.8203 66.183 56.426 67.8611 56.426Z" fill="#E5E5E5"/>
<path d="M97.7219 56.8713C99.3974 56.8713 99.4026 54.2656 97.7219 54.2656C96.0465 54.2656 96.0439 56.8713 97.7219 56.8713Z" fill="#E5E5E5"/>
<path d="M95.4939 78.2639C97.1693 78.2639 97.1745 75.6582 95.4939 75.6582C93.8184 75.6582 93.8158 78.2639 95.4939 78.2639Z" fill="#E5E5E5"/>
<path d="M105.298 68.9045C106.974 68.9045 106.979 66.2988 105.298 66.2988C103.623 66.2988 103.62 68.9045 105.298 68.9045Z" fill="#E5E5E5"/>
<path d="M105.298 68.9045C106.974 68.9045 106.979 66.2988 105.298 66.2988C103.623 66.2988 103.62 68.9045 105.298 68.9045Z" fill="#E5E5E5"/>
<path d="M59.3928 59.0988C61.0683 59.0988 61.0735 56.4932 59.3928 56.4932C57.7174 56.4932 57.7148 59.0988 59.3928 59.0988Z" fill="#E5E5E5"/>
<path d="M29.0857 56.8713C30.7611 56.8713 30.7663 54.2656 29.0857 54.2656C27.4076 54.2656 27.405 56.8713 29.0857 56.8713Z" fill="#E5E5E5"/>
<path d="M91.9289 38.1516C93.6044 38.1516 93.6096 35.5459 91.9289 35.5459C90.2509 35.5459 90.2483 38.1516 91.9289 38.1516Z" fill="#E5E5E5"/>
<path d="M102.18 38.5979C103.855 38.5979 103.861 35.9922 102.18 35.9922C100.502 35.9922 100.499 38.5979 102.18 38.5979Z" fill="#E5E5E5"/>
<path d="M107.081 100.55C108.756 100.55 108.761 97.9443 107.081 97.9443C105.405 97.9443 105.403 100.55 107.081 100.55Z" fill="#E5E5E5"/>
<path d="M79.448 68.9045C81.1234 68.9045 81.1286 66.2988 79.448 66.2988C77.7726 66.2988 77.7699 68.9045 79.448 68.9045Z" fill="#E5E5E5"/>
<path d="M67.4151 39.0984C68.5876 39.0984 68.5902 37.2744 67.4151 37.2744C66.2425 37.2744 66.2399 39.0984 67.4151 39.0984Z" fill="#E5E5E5"/>
<path d="M68.3057 48.0124C69.4783 48.0124 69.4809 46.1885 68.3057 46.1885C67.1331 46.1885 67.1305 48.0124 68.3057 48.0124Z" fill="#E5E5E5"/>
<path d="M85.2422 48.4578C86.4148 48.4578 86.4174 46.6338 85.2422 46.6338C84.0697 46.6338 84.067 48.4578 85.2422 48.4578Z" fill="#E5E5E5"/>
<path d="M78.1111 35.9763C79.2836 35.9763 79.2862 34.1523 78.1111 34.1523C76.9386 34.1523 76.936 35.9763 78.1111 35.9763Z" fill="#E5E5E5"/>
<path d="M82.124 60.9353C83.2966 60.9353 83.2992 59.1113 82.124 59.1113C80.9489 59.1113 80.9463 60.9353 82.124 60.9353Z" fill="#E5E5E5"/>
<path d="M102.625 57.3708C103.798 57.3708 103.801 55.5469 102.625 55.5469C101.453 55.5469 101.45 57.3708 102.625 57.3708Z" fill="#E5E5E5"/>
<path d="M111.539 64.5037C112.712 64.5037 112.714 62.6797 111.539 62.6797C110.367 62.6797 110.364 64.5037 111.539 64.5037Z" fill="#E5E5E5"/>
<path d="M125.354 55.5896C126.527 55.5896 126.529 53.7656 125.354 53.7656C124.181 53.7656 124.179 55.5896 125.354 55.5896Z" fill="#E5E5E5"/>
<path d="M46.9141 54.698C48.0866 54.698 48.0893 52.874 46.9141 52.874C45.7389 52.874 45.7389 54.698 46.9141 54.698Z" fill="#E5E5E5"/>
<path d="M35.7686 54.2497C36.9411 54.2497 36.9437 52.4258 35.7686 52.4258C34.596 52.4258 34.5934 54.2497 35.7686 54.2497Z" fill="#E5E5E5"/>
<path d="M49.5864 56.9255C50.759 56.9255 50.7616 55.1016 49.5864 55.1016C48.4139 55.1016 48.4113 56.9255 49.5864 56.9255Z" fill="#E5E5E5"/>
<path d="M56.273 68.5134C57.4455 68.5134 57.4481 66.6895 56.273 66.6895C55.0978 66.6895 55.0978 68.5134 56.273 68.5134Z" fill="#E5E5E5"/>
<path d="M70.0884 67.6218C71.2609 67.6218 71.2635 65.7979 70.0884 65.7979C68.9159 65.7979 68.9132 67.6218 70.0884 67.6218Z" fill="#E5E5E5"/>
<path d="M95.4932 68.5134C96.6658 68.5134 96.6684 66.6895 95.4932 66.6895C94.3206 66.6895 94.318 68.5134 95.4932 68.5134Z" fill="#E5E5E5"/>
<path d="M104.408 80.1004C105.581 80.1004 105.583 78.2764 104.408 78.2764C103.236 78.2764 103.233 80.1004 104.408 80.1004Z" fill="#E5E5E5"/>
<path d="M111.539 76.5368C112.712 76.5368 112.714 74.7129 111.539 74.7129C110.367 74.7129 110.364 76.5368 111.539 76.5368Z" fill="#E5E5E5"/>
<path d="M100.844 91.6911C102.016 91.6911 102.019 89.8672 100.844 89.8672C99.6686 89.8672 99.6686 91.6911 100.844 91.6911Z" fill="#E5E5E5"/>
<path d="M97.2759 92.1365C98.4484 92.1365 98.4511 90.3125 97.2759 90.3125C96.1033 90.3125 96.1007 92.1365 97.2759 92.1365Z" fill="#E5E5E5"/>
<path d="M43.6044 100.517C45.9185 100.517 47.7943 98.6407 47.7943 96.3266C47.7943 94.0126 45.9185 92.1367 43.6044 92.1367C41.2904 92.1367 39.4146 94.0126 39.4146 96.3266C39.4146 98.6407 41.2904 100.517 43.6044 100.517Z" fill="#E82827"/>
<path d="M58.5796 100.517C60.8936 100.517 62.7695 98.6407 62.7695 96.3266C62.7695 94.0126 60.8936 92.1367 58.5796 92.1367C56.2655 92.1367 54.3896 94.0126 54.3896 96.3266C54.3896 98.6407 56.2655 100.517 58.5796 100.517Z" fill="#E82827"/>
<path d="M73.5546 100.517C75.8687 100.517 77.7445 98.6407 77.7445 96.3266C77.7445 94.0126 75.8687 92.1367 73.5546 92.1367C71.2406 92.1367 69.3647 94.0126 69.3647 96.3266C69.3647 98.6407 71.2406 100.517 73.5546 100.517Z" fill="#E82827"/>
</g>
<path d="M46.9366 175L45.3406 175L40.5386 167.706L40.5386 175L38.9426 175L38.9426 165.13L40.5386 165.13L45.3406 172.452L45.3406 165.13L46.9366 165.13L46.9366 175ZM52.3963 167.188C53.143 167.188 53.815 167.347 54.4123 167.664C55.0097 167.981 55.4763 168.439 55.8123 169.036C56.1483 169.633 56.3163 170.333 56.3163 171.136C56.3163 171.948 56.1483 172.653 55.8123 173.25C55.4763 173.847 55.0097 174.305 54.4123 174.622C53.815 174.939 53.143 175.098 52.3963 175.098C51.6497 175.098 50.9777 174.939 50.3803 174.622C49.7923 174.305 49.3257 173.847 48.9803 173.25C48.6443 172.643 48.4763 171.939 48.4763 171.136C48.4763 170.333 48.6443 169.633 48.9803 169.036C49.3257 168.439 49.7923 167.981 50.3803 167.664C50.9777 167.347 51.6497 167.188 52.3963 167.188ZM52.3963 168.574C51.9857 168.574 51.6077 168.667 51.2623 168.854C50.917 169.041 50.637 169.33 50.4223 169.722C50.217 170.105 50.1143 170.576 50.1143 171.136C50.1143 171.705 50.217 172.181 50.4223 172.564C50.637 172.947 50.917 173.231 51.2623 173.418C51.6077 173.605 51.9857 173.698 52.3963 173.698C52.807 173.698 53.185 173.605 53.5303 173.418C53.8757 173.231 54.151 172.947 54.3563 172.564C54.571 172.181 54.6783 171.705 54.6783 171.136C54.6783 170.576 54.571 170.105 54.3563 169.722C54.151 169.33 53.8757 169.041 53.5303 168.854C53.185 168.667 52.807 168.574 52.3963 168.574ZM71.38 165.27L71.38 175L69.77 175L69.77 167.706L66.956 175L65.556 175L62.728 167.706L62.728 175L61.132 175L61.132 165.27L63.064 165.27L66.284 173.04L69.448 165.27L71.38 165.27ZM76.828 167.188C77.5747 167.188 78.2467 167.347 78.844 167.664C79.4413 167.981 79.908 168.439 80.244 169.036C80.58 169.633 80.748 170.333 80.748 171.136C80.748 171.948 80.58 172.653 80.244 173.25C79.908 173.847 79.4413 174.305 78.844 174.622C78.2467 174.939 77.5747 175.098 76.828 175.098C76.0813 175.098 75.4093 174.939 74.812 174.622C74.224 174.305 73.7573 173.847 73.412 173.25C73.076 172.643 72.908 171.939 72.908 171.136C72.908 170.333 73.076 169.633 73.412 169.036C73.7573 168.439 74.224 167.981 74.812 167.664C75.4093 167.347 76.0813 167.188 76.828 167.188ZM76.828 168.574C76.4173 168.574 76.0393 168.667 75.694 168.854C75.3487 169.041 75.0687 169.33 74.854 169.722C74.6487 170.105 74.546 170.576 74.546 171.136C74.546 171.705 74.6487 172.181 74.854 172.564C75.0687 172.947 75.3487 173.231 75.694 173.418C76.0393 173.605 76.4173 173.698 76.828 173.698C77.2387 173.698 77.6167 173.605 77.962 173.418C78.3073 173.231 78.5827 172.947 78.788 172.564C79.0027 172.181 79.11 171.705 79.11 171.136C79.11 170.576 79.0027 170.105 78.788 169.722C78.5827 169.33 78.3073 169.041 77.962 168.854C77.6167 168.667 77.2387 168.574 76.828 168.574ZM85.3764 167.188C86.0764 167.188 86.6737 167.361 87.1684 167.706C87.6631 168.051 88.0084 168.509 88.2044 169.078L88.2044 164.64L89.8144 164.64L89.8144 175L88.2044 175L88.2044 173.208C88.0084 173.777 87.6631 174.235 87.1684 174.58C86.6737 174.925 86.0764 175.098 85.3764 175.098C84.7044 175.098 84.1024 174.939 83.5704 174.622C83.0477 174.305 82.6371 173.847 82.3384 173.25C82.0397 172.653 81.8904 171.948 81.8904 171.136C81.8904 170.333 82.0397 169.633 82.3384 169.036C82.6371 168.439 83.0477 167.981 83.5704 167.664C84.1024 167.347 84.7044 167.188 85.3764 167.188ZM85.8664 168.588C85.1571 168.588 84.5877 168.817 84.1584 169.274C83.7384 169.722 83.5284 170.343 83.5284 171.136C83.5284 171.929 83.7384 172.555 84.1584 173.012C84.5877 173.46 85.1571 173.684 85.8664 173.684C86.3144 173.684 86.7157 173.581 87.0704 173.376C87.4251 173.161 87.7051 172.863 87.9104 172.48C88.1157 172.097 88.2184 171.649 88.2184 171.136C88.2184 170.632 88.1157 170.189 87.9104 169.806C87.7051 169.414 87.4251 169.115 87.0704 168.91C86.7157 168.695 86.3144 168.588 85.8664 168.588ZM98.8417 167.286L98.8417 175L97.2317 175L97.2317 173.32C97.0357 173.889 96.695 174.333 96.2097 174.65C95.7243 174.958 95.1597 175.112 94.5157 175.112C93.6197 175.112 92.901 174.823 92.3597 174.244C91.8183 173.665 91.5477 172.839 91.5477 171.766L91.5477 167.286L93.1437 167.286L93.1437 171.598C93.1437 172.298 93.321 172.839 93.6757 173.222C94.0303 173.595 94.5157 173.782 95.1317 173.782C95.7663 173.782 96.275 173.577 96.6577 173.166C97.0403 172.755 97.2317 172.158 97.2317 171.374L97.2317 167.286L98.8417 167.286ZM102.349 164.64L102.349 175L100.753 175L100.753 164.64L102.349 164.64ZM111.448 170.772C111.448 171.033 111.43 171.262 111.392 171.458L105.456 171.458C105.484 172.251 105.704 172.839 106.114 173.222C106.525 173.605 107.034 173.796 107.64 173.796C108.172 173.796 108.62 173.661 108.984 173.39C109.358 173.119 109.586 172.76 109.67 172.312L111.378 172.312C111.276 172.853 111.061 173.334 110.734 173.754C110.408 174.174 109.983 174.505 109.46 174.748C108.938 174.981 108.354 175.098 107.71 175.098C106.964 175.098 106.301 174.939 105.722 174.622C105.153 174.305 104.705 173.847 104.378 173.25C104.052 172.653 103.888 171.948 103.888 171.136C103.888 170.333 104.052 169.633 104.378 169.036C104.705 168.439 105.153 167.981 105.722 167.664C106.301 167.347 106.964 167.188 107.71 167.188C108.466 167.188 109.124 167.347 109.684 167.664C110.254 167.972 110.688 168.401 110.986 168.952C111.294 169.493 111.448 170.1 111.448 170.772ZM109.838 170.73C109.857 170.226 109.768 169.806 109.572 169.47C109.386 169.125 109.124 168.873 108.788 168.714C108.462 168.546 108.102 168.462 107.71 168.462C107.085 168.462 106.562 168.653 106.142 169.036C105.722 169.419 105.494 169.983 105.456 170.73L109.838 170.73Z" fill="#848484"/>
<defs>
<clipPath id="clip0_3527_2438">
<rect width="108.75" height="86.3986" fill="white" transform="translate(20.25 31.5)"/>
</clipPath>
</defs>
</svg>
