<svg width="20" height="20" viewBox="0 0 20 20" fill="none" xmlns="http://www.w3.org/2000/svg">
<path d="M10.0001 1.66504C14.6034 1.66504 18.3351 5.39671 18.3351 10C18.3351 14.6025 14.6034 18.3334 10.0001 18.3334C5.39675 18.3342 1.66675 14.6025 1.66675 10C1.66591 5.39671 5.39675 1.66504 10.0001 1.66504ZM9.99675 8.54004C9.79253 8.54032 9.59551 8.61558 9.44312 8.75153C9.29073 8.88749 9.19357 9.07467 9.17008 9.27754L9.16425 9.37421L9.16758 13.9592L9.17258 14.0559C9.19587 14.2591 9.29312 14.4467 9.44579 14.5829C9.59847 14.7191 9.79591 14.7943 10.0005 14.7943C10.2051 14.7943 10.4025 14.7191 10.5552 14.5829C10.7079 14.4467 10.8051 14.2591 10.8284 14.0559L10.8334 13.9584L10.8301 9.37337L10.8242 9.27587C10.8002 9.07317 10.7025 8.88636 10.5498 8.75088C10.3971 8.6154 10.2 8.54067 9.99592 8.54087L9.99675 8.54004ZM10.0009 5.41587C9.72432 5.41587 9.45905 5.52575 9.26346 5.72134C9.06788 5.91692 8.958 6.18219 8.958 6.45879C8.958 6.73539 9.06788 7.00066 9.26346 7.19624C9.45905 7.39183 9.72432 7.50171 10.0009 7.50171C10.1378 7.50165 10.2734 7.47463 10.3998 7.42219C10.5263 7.36975 10.6412 7.29291 10.738 7.19607C10.8347 7.09923 10.9115 6.98427 10.9638 6.85777C11.0161 6.73127 11.0431 6.59569 11.043 6.45879C11.0429 6.32189 11.0159 6.18633 10.9635 6.05987C10.911 5.93341 10.8342 5.81852 10.7374 5.72175C10.6405 5.62499 10.5256 5.54824 10.3991 5.4959C10.2726 5.44356 10.137 5.41665 10.0001 5.41671L10.0009 5.41587Z" fill="#C12121"/>
</svg>
