<svg width="312" height="104" viewBox="0 0 312 104" fill="none" xmlns="http://www.w3.org/2000/svg">
<rect y="0.712891" width="312" height="102.713" fill="#77D4E0" fill-opacity="0.25"/>
<path d="M27.2302 31.0684H25.4062L19.9182 22.7324V31.0684H18.0942V19.7884H19.9182L25.4062 28.1564V19.7884H27.2302V31.0684ZM33.47 22.1404C34.3233 22.1404 35.0913 22.3217 35.774 22.6844C36.4567 23.047 36.99 23.5697 37.374 24.2524C37.758 24.935 37.95 25.735 37.95 26.6524C37.95 27.5804 37.758 28.3857 37.374 29.0684C36.99 29.751 36.4567 30.2737 35.774 30.6364C35.0913 30.999 34.3233 31.1804 33.47 31.1804C32.6167 31.1804 31.8487 30.999 31.166 30.6364C30.494 30.2737 29.9607 29.751 29.566 29.0684C29.182 28.375 28.99 27.5697 28.99 26.6524C28.99 25.735 29.182 24.935 29.566 24.2524C29.9607 23.5697 30.494 23.047 31.166 22.6844C31.8487 22.3217 32.6167 22.1404 33.47 22.1404ZM33.47 23.7244C33.0007 23.7244 32.5687 23.831 32.174 24.0444C31.7793 24.2577 31.4593 24.5884 31.214 25.0364C30.9793 25.4737 30.862 26.0124 30.862 26.6524C30.862 27.303 30.9793 27.847 31.214 28.2844C31.4593 28.7217 31.7793 29.047 32.174 29.2604C32.5687 29.4737 33.0007 29.5804 33.47 29.5804C33.9393 29.5804 34.3713 29.4737 34.766 29.2604C35.1607 29.047 35.4753 28.7217 35.71 28.2844C35.9553 27.847 36.078 27.303 36.078 26.6524C36.078 26.0124 35.9553 25.4737 35.71 25.0364C35.4753 24.5884 35.1607 24.2577 34.766 24.0444C34.3713 23.831 33.9393 23.7244 33.47 23.7244ZM43.3196 29.1804L45.8156 22.2524H47.7676L44.4076 31.0684H42.1996L38.8396 22.2524H40.7916L43.3196 29.1804ZM57.3019 26.2364C57.3019 26.535 57.2805 26.7964 57.2379 27.0204H50.4539C50.4859 27.927 50.7365 28.599 51.2059 29.0364C51.6752 29.4737 52.2565 29.6924 52.9499 29.6924C53.5579 29.6924 54.0699 29.5377 54.4859 29.2284C54.9125 28.919 55.1739 28.5084 55.2699 27.9964H57.2219C57.1045 28.615 56.8592 29.1644 56.4859 29.6444C56.1125 30.1244 55.6272 30.503 55.0299 30.7804C54.4325 31.047 53.7659 31.1804 53.0299 31.1804C52.1765 31.1804 51.4192 30.999 50.7579 30.6364C50.1072 30.2737 49.5952 29.751 49.2219 29.0684C48.8485 28.3857 48.6619 27.5804 48.6619 26.6524C48.6619 25.735 48.8485 24.935 49.2219 24.2524C49.5952 23.5697 50.1072 23.047 50.7579 22.6844C51.4192 22.3217 52.1765 22.1404 53.0299 22.1404C53.8939 22.1404 54.6459 22.3217 55.2859 22.6844C55.9365 23.0364 56.4325 23.527 56.7739 24.1564C57.1259 24.775 57.3019 25.4684 57.3019 26.2364ZM55.4619 26.1884C55.4832 25.6124 55.3819 25.1324 55.1579 24.7484C54.9445 24.3537 54.6459 24.0657 54.2619 23.8844C53.8885 23.6924 53.4779 23.5964 53.0299 23.5964C52.3152 23.5964 51.7179 23.815 51.2379 24.2524C50.7579 24.6897 50.4965 25.335 50.4539 26.1884H55.4619ZM70.087 22.1084C71.1323 22.1084 71.9643 22.439 72.583 23.1004C73.2123 23.7617 73.527 24.7057 73.527 25.9324V31.0684H71.703V26.1244C71.703 25.3564 71.511 24.7644 71.127 24.3484C70.743 23.9217 70.215 23.7084 69.543 23.7084C68.8283 23.7084 68.2577 23.9377 67.831 24.3964C67.415 24.8444 67.207 25.5057 67.207 26.3804V31.0684H65.383V26.1244C65.383 25.3564 65.191 24.7644 64.807 24.3484C64.423 23.9217 63.895 23.7084 63.223 23.7084C62.5083 23.7084 61.9377 23.9377 61.511 24.3964C61.095 24.8444 60.887 25.5057 60.887 26.3804V31.0684H59.063V22.2524H60.887V24.0924C61.111 23.4524 61.4843 22.9617 62.007 22.6204C62.5297 22.279 63.143 22.1084 63.847 22.1084C64.583 22.1084 65.2177 22.2897 65.751 22.6524C66.295 23.015 66.6897 23.5377 66.935 24.2204C67.191 23.559 67.6017 23.0417 68.167 22.6684C68.7323 22.295 69.3723 22.1084 70.087 22.1084ZM80.7127 22.1404C81.4807 22.1404 82.1634 22.3217 82.7607 22.6844C83.3687 23.047 83.8434 23.5697 84.1847 24.2524C84.5261 24.935 84.6967 25.735 84.6967 26.6524C84.6967 27.5804 84.5261 28.3857 84.1847 29.0684C83.8434 29.751 83.3687 30.2737 82.7607 30.6364C82.1634 30.999 81.4807 31.1804 80.7127 31.1804C79.9127 31.1804 79.2301 30.983 78.6647 30.5884C78.0994 30.1937 77.7047 29.671 77.4807 29.0204V31.0684H75.6567V19.2284H77.4807V24.3004C77.7047 23.6497 78.0994 23.127 78.6647 22.7324C79.2301 22.3377 79.9127 22.1404 80.7127 22.1404ZM80.1527 23.7404C79.6407 23.7404 79.1821 23.863 78.7767 24.1084C78.3714 24.343 78.0514 24.6844 77.8167 25.1324C77.5821 25.5697 77.4647 26.0764 77.4647 26.6524C77.4647 27.239 77.5821 27.751 77.8167 28.1884C78.0514 28.6257 78.3714 28.967 78.7767 29.2124C79.1821 29.447 79.6407 29.5644 80.1527 29.5644C80.9634 29.5644 81.6141 29.3084 82.1047 28.7964C82.5954 28.2737 82.8407 27.559 82.8407 26.6524C82.8407 25.7564 82.5954 25.047 82.1047 24.5244C81.6141 24.0017 80.9634 23.7404 80.1527 23.7404ZM94.6456 26.2364C94.6456 26.535 94.6243 26.7964 94.5816 27.0204H87.7976C87.8296 27.927 88.0803 28.599 88.5496 29.0364C89.0189 29.4737 89.6003 29.6924 90.2936 29.6924C90.9016 29.6924 91.4136 29.5377 91.8296 29.2284C92.2563 28.919 92.5176 28.5084 92.6136 27.9964H94.5656C94.4483 28.615 94.2029 29.1644 93.8296 29.6444C93.4563 30.1244 92.9709 30.503 92.3736 30.7804C91.7763 31.047 91.1096 31.1804 90.3736 31.1804C89.5203 31.1804 88.7629 30.999 88.1016 30.6364C87.4509 30.2737 86.9389 29.751 86.5656 29.0684C86.1923 28.3857 86.0056 27.5804 86.0056 26.6524C86.0056 25.735 86.1923 24.935 86.5656 24.2524C86.9389 23.5697 87.4509 23.047 88.1016 22.6844C88.7629 22.3217 89.5203 22.1404 90.3736 22.1404C91.2376 22.1404 91.9896 22.3217 92.6296 22.6844C93.2803 23.0364 93.7763 23.527 94.1176 24.1564C94.4696 24.775 94.6456 25.4684 94.6456 26.2364ZM92.8056 26.1884C92.8269 25.6124 92.7256 25.1324 92.5016 24.7484C92.2883 24.3537 91.9896 24.0657 91.6056 23.8844C91.2323 23.6924 90.8216 23.5964 90.3736 23.5964C89.6589 23.5964 89.0616 23.815 88.5816 24.2524C88.1016 24.6897 87.8403 25.335 87.7976 26.1884H92.8056ZM98.2307 23.9804C98.5294 23.4044 98.9561 22.951 99.5107 22.6204C100.065 22.279 100.705 22.1084 101.431 22.1084V24.0924H100.887C100.087 24.0924 99.4414 24.2897 98.9507 24.6844C98.4707 25.0684 98.2307 25.7084 98.2307 26.6044V31.0684H96.4067V22.2524H98.2307V23.9804ZM17.6302 53.6444C19.3582 52.4604 20.7396 51.303 21.7742 50.1724C22.8196 49.031 23.3422 47.975 23.3422 47.0044C23.3422 46.4284 23.1982 45.9697 22.9102 45.6284C22.6329 45.287 22.1796 45.1164 21.5502 45.1164C20.8996 45.1164 20.4089 45.3297 20.0782 45.7564C19.7476 46.1724 19.5609 46.7697 19.5182 47.5484H17.7422C17.8169 46.2577 18.2116 45.271 18.9262 44.5884C19.6516 43.9057 20.5742 43.5644 21.6942 43.5644C22.7929 43.5644 23.6516 43.8577 24.2702 44.4444C24.8996 45.0204 25.2142 45.8204 25.2142 46.8444C25.2142 47.6657 24.9582 48.4977 24.4462 49.3404C23.9449 50.183 23.3049 50.9617 22.5262 51.6764C21.7476 52.3804 20.9422 52.9884 20.1102 53.5004H25.4702V54.9884H17.6302V53.6444ZM27.8604 53.5804C27.2204 52.5564 26.9004 51.143 26.9004 49.3404C26.9004 47.5484 27.2204 46.1457 27.8604 45.1324C28.5004 44.119 29.567 43.6124 31.0604 43.6124C32.5537 43.6124 33.6204 44.1244 34.2604 45.1484C34.9004 46.1617 35.2204 47.559 35.2204 49.3404C35.2204 51.1324 34.9004 52.5404 34.2604 53.5644C33.6204 54.5884 32.5537 55.1004 31.0604 55.1004C29.567 55.1004 28.5004 54.5937 27.8604 53.5804ZM32.9164 52.3324C33.2364 51.639 33.3964 50.6417 33.3964 49.3404C33.3964 48.0604 33.2364 47.079 32.9164 46.3964C32.5964 45.703 31.9777 45.3564 31.0604 45.3564C30.1324 45.3564 29.5084 45.6977 29.1884 46.3804C28.8684 47.063 28.7084 48.0497 28.7084 49.3404C28.7084 50.6417 28.8684 51.639 29.1884 52.3324C29.5084 53.0257 30.1324 53.3724 31.0604 53.3724C31.9777 53.3724 32.5964 53.0257 32.9164 52.3324ZM36.6771 53.6444C38.4051 52.4604 39.7864 51.303 40.8211 50.1724C41.8664 49.031 42.3891 47.975 42.3891 47.0044C42.3891 46.4284 42.2451 45.9697 41.9571 45.6284C41.6798 45.287 41.2264 45.1164 40.5971 45.1164C39.9464 45.1164 39.4558 45.3297 39.1251 45.7564C38.7944 46.1724 38.6078 46.7697 38.5651 47.5484H36.7891C36.8638 46.2577 37.2584 45.271 37.9731 44.5884C38.6984 43.9057 39.6211 43.5644 40.7411 43.5644C41.8398 43.5644 42.6984 43.8577 43.3171 44.4444C43.9464 45.0204 44.2611 45.8204 44.2611 46.8444C44.2611 47.6657 44.0051 48.4977 43.4931 49.3404C42.9918 50.183 42.3518 50.9617 41.5731 51.6764C40.7944 52.3804 39.9891 52.9884 39.1571 53.5004H44.5171V54.9884H36.6771V53.6444ZM49.9152 43.4204C50.6619 43.4204 51.3019 43.5537 51.8352 43.8204C52.3686 44.0764 52.7686 44.4337 53.0352 44.8924C53.3126 45.351 53.4512 45.863 53.4512 46.4284C53.4512 47.143 53.2486 47.7404 52.8432 48.2204C52.4486 48.6897 51.8886 48.9724 51.1632 49.0684V49.1484C51.9419 49.3724 52.5499 49.7084 52.9872 50.1564C53.4352 50.5937 53.6592 51.2017 53.6592 51.9804C53.6592 52.9297 53.3446 53.703 52.7152 54.3004C52.0859 54.887 51.1846 55.1804 50.0112 55.1804C48.8059 55.1804 47.8352 54.8764 47.0992 54.2684C46.3632 53.6497 45.9419 52.7377 45.8352 51.5324H47.6432C47.7072 52.1724 47.9366 52.6844 48.3312 53.0684C48.7259 53.4417 49.2592 53.6284 49.9312 53.6284C50.5606 53.6284 51.0406 53.463 51.3712 53.1324C51.7126 52.8017 51.8832 52.375 51.8832 51.8524C51.8832 51.223 51.6379 50.743 51.1472 50.4124C50.6672 50.0817 49.9686 49.9164 49.0512 49.9164H48.6192V48.4124H49.0512C50.7899 48.4337 51.6592 47.8417 51.6592 46.6364C51.6592 46.1137 51.4992 45.703 51.1792 45.4044C50.8592 45.1057 50.4219 44.9564 49.8672 44.9564C49.3126 44.9564 48.8486 45.127 48.4752 45.4684C48.1019 45.799 47.8779 46.2844 47.8032 46.9244H46.0112C46.0859 45.815 46.4592 44.9564 47.1312 44.3484C47.8032 43.7297 48.7312 43.4204 49.9152 43.4204Z" fill="#231F20"/>
<path fill-rule="evenodd" clip-rule="evenodd" d="M312 80.0163V103.427H0V81.1515C28.37 68.8234 95.3116 45.83 174.149 72.6083C248.624 97.9053 276.444 90.779 312 80.0163Z" fill="#C0DFE3"/>
<path fill-rule="evenodd" clip-rule="evenodd" d="M312 97.3995V103.082H0V96.9112C19.0667 93.7603 48.7815 90.2235 83.7921 89.5671C103.783 89.1922 134.205 91.4049 167.288 93.811C218.88 97.5634 276.942 101.786 312 97.3995Z" fill="#A2CDD2"/>
<path d="M204.653 81.8026L256.396 25.8125L279.564 32.3769L267.208 89.5254C229.212 100.028 209.931 90.5551 204.653 81.8026Z" fill="white" fill-opacity="0.4"/>
<path fill-rule="evenodd" clip-rule="evenodd" d="M181.789 76.7108C178.165 71.8538 174.301 65.4274 176.962 64.0022C178.333 63.2677 179.647 64.8208 180.794 67.3248C180.223 63.5674 180.375 60.4335 182.299 60.193C184.299 59.943 184.83 63.2437 184.712 67.2941C185.856 64.8081 187.165 63.2707 188.53 64.0022C191.19 65.4274 187.326 71.8538 183.702 76.7108C183.965 77.8844 184.186 78.9926 184.358 79.9583C183.861 79.3682 183.314 78.6947 182.746 77.9652C182.177 78.6947 181.63 79.3682 181.134 79.9583C181.306 78.9926 181.526 77.8844 181.789 76.7108Z" fill="#C0DFE3"/>
<path fill-rule="evenodd" clip-rule="evenodd" d="M99.1553 61.2636C95.5316 56.4066 91.6677 49.9801 94.3278 48.555C95.6988 47.8204 97.013 49.3735 98.1598 51.8776C97.589 48.1201 97.7416 44.9862 99.6653 44.7457C101.665 44.4957 102.196 47.7964 102.078 51.8468C103.222 49.3608 104.531 47.8234 105.896 48.555C108.556 49.9801 104.692 56.4066 101.069 61.2636C101.331 62.4372 101.552 63.5454 101.724 64.511C101.227 63.9209 100.681 63.2474 100.112 62.5179C99.5434 63.2474 98.9966 63.9209 98.5001 64.511C98.6721 63.5454 98.8927 62.4372 99.1553 61.2636Z" fill="#C0DFE3"/>
<path fill-rule="evenodd" clip-rule="evenodd" d="M60.5416 92.9276C56.9178 88.0706 53.0539 81.6442 55.714 80.219C57.085 79.4845 58.3992 81.0376 59.546 83.5416C58.9752 79.7842 59.1278 76.6503 61.0515 76.4098C63.0515 76.1598 63.5823 79.4605 63.4645 83.5109C64.608 81.0249 65.917 79.4875 67.2824 80.219C69.9425 81.6442 66.0787 88.0706 62.4549 92.9276C62.7175 94.1012 62.9381 95.2094 63.1101 96.1751C62.6136 95.585 62.0668 94.9115 61.4982 94.182C60.9296 94.9115 60.3829 95.585 59.8863 96.1751C60.0584 95.2094 60.2789 94.1012 60.5416 92.9276Z" fill="#A2CDD2"/>
<path fill-rule="evenodd" clip-rule="evenodd" d="M136.997 92.9276C133.373 88.0706 129.509 81.6442 132.17 80.219C133.541 79.4845 134.855 81.0376 136.002 83.5416C135.431 79.7842 135.583 76.6503 137.507 76.4098C139.507 76.1598 140.038 79.4605 139.92 83.5109C141.064 81.0249 142.373 79.4875 143.738 80.219C146.398 81.6442 142.534 88.0706 138.91 92.9276C139.173 94.1012 139.394 95.2094 139.566 96.1751C139.069 95.585 138.522 94.9115 137.954 94.182C137.385 94.9115 136.838 95.585 136.342 96.1751C136.514 95.2094 136.734 94.1012 136.997 92.9276Z" fill="#A2CDD2"/>
<path fill-rule="evenodd" clip-rule="evenodd" d="M13.776 75.5505C10.9145 71.7151 7.86338 66.6405 9.96391 65.5151C11.0466 64.9351 12.0844 66.1616 12.99 68.139C12.5391 65.1716 12.6595 62.6965 14.1786 62.5066C15.7581 62.3092 16.1772 64.9159 16.0841 68.1146C16.987 66.1515 18.0207 64.9375 19.0989 65.5151C21.1995 66.6405 18.1484 71.7151 15.2868 75.5505C15.4943 76.4772 15.6684 77.3523 15.8042 78.1148C15.4122 77.6489 14.9804 77.117 14.5314 76.541C14.0824 77.117 13.6507 77.6489 13.2586 78.1148C13.3944 77.3523 13.5686 76.4772 13.776 75.5505Z" fill="#C0DFE3"/>
<circle cx="267.208" cy="31.6033" r="13.1287" fill="#A1D3DA"/>
<circle cx="267.208" cy="31.603" r="17.7847" stroke="#C0DFE3" stroke-width="1.5"/>
</svg>
