<svg width="312" height="103" viewBox="0 0 312 103" fill="none" xmlns="http://www.w3.org/2000/svg">
<rect width="312" height="102.713" fill="#E82827" fill-opacity="0.1"/>
<rect x="250.99" y="13.9004" width="61.0099" height="41.703" fill="#FFCFCF"/>
<rect x="16.9902" y="50.1973" width="52.5149" height="52.5149" fill="#FAD9D9"/>
<rect x="121.248" y="33.207" width="74.1386" height="27.802" rx="13.901" fill="#FAD9D9"/>
<circle cx="135.148" cy="47.1088" r="10.8119" fill="white"/>
<path d="M60.1519 42.4746H87.4456C90.7593 42.4746 93.4456 45.1609 93.4456 48.4746V75.5518C93.4456 78.8656 90.7593 81.5518 87.4456 81.5518H60.1519V42.4746Z" fill="#DC7D82"/>
<path d="M53.2871 49.3393C53.2871 45.548 56.3605 42.4746 60.1518 42.4746V81.5518C56.3605 81.5518 53.2871 78.4784 53.2871 74.6872V49.3393Z" fill="#FFA9A9"/>
<path d="M53.2871 75.4348C53.2871 72.0568 56.0255 69.3184 59.4035 69.3184H93.4455V81.5512H59.4035C56.0255 81.5512 53.2871 78.8128 53.2871 75.4348Z" fill="#D17276"/>
<path d="M56.7192 75.4351C56.7192 73.3707 58.3927 71.6973 60.4571 71.6973H93.4453V79.1729H60.4571C58.3927 79.1729 56.7192 77.4994 56.7192 75.4351Z" fill="white"/>
<path fill-rule="evenodd" clip-rule="evenodd" d="M57.4171 73.2598C57.3973 73.4157 57.387 73.5747 57.387 73.7361C57.387 75.8004 59.0605 77.4739 61.1249 77.4739H93.4453V79.1729H60.4571C58.3927 79.1729 56.7192 77.4994 56.7192 75.4351C56.7192 74.6236 56.9778 73.8725 57.4171 73.2598Z" fill="#FFD7D7"/>
<rect x="64.6138" y="48.5918" width="24.3696" height="10.1941" fill="white"/>
<path d="M79.373 75.7754H87.2674V84.95L83.3202 82.4015L79.373 84.95V75.7754Z" fill="#FFABAB"/>
<circle cx="126.654" cy="83.4052" r="4.63366" fill="#FFB0B0"/>
<circle cx="140.555" cy="83.4052" r="4.63366" fill="#FFB0B0"/>
<circle cx="153.683" cy="83.4052" r="4.63366" fill="#FFB0B0"/>
<path fill-rule="evenodd" clip-rule="evenodd" d="M233.294 0C232.886 12.9138 222.289 23.2574 209.276 23.2574C196.263 23.2574 185.666 12.9138 185.259 0H182.257C182.666 14.571 194.606 26.2574 209.276 26.2574C223.946 26.2574 235.886 14.571 236.295 0H233.294Z" fill="white"/>
<path fill-rule="evenodd" clip-rule="evenodd" d="M221.644 95.7037V56.373L260.974 95.7037H221.644ZM226.691 69.8891V90.7405H248.315L226.691 69.8891Z" fill="#FFB0B0"/>
<rect x="221.644" y="71.0488" width="3.08911" height="0.772277" fill="white"/>
<rect x="221.644" y="75.6816" width="2.31683" height="0.772277" fill="white"/>
<rect x="221.644" y="84.9492" width="2.31683" height="0.772277" fill="white"/>
<rect x="221.644" y="80.3164" width="3.08911" height="0.772277" fill="white"/>
<path d="M30.53 13.948C31.4633 13.948 32.308 14.1673 33.064 14.606C33.8293 15.0353 34.4313 15.6373 34.87 16.412C35.3087 17.1773 35.528 18.0453 35.528 19.016C35.528 19.9867 35.304 20.8593 34.856 21.634C34.4173 22.4087 33.8153 23.0153 33.05 23.454C32.294 23.8833 31.454 24.098 30.53 24.098C29.606 24.098 28.7613 23.8833 27.996 23.454C27.24 23.0153 26.638 22.4087 26.19 21.634C25.7513 20.8593 25.532 19.9867 25.532 19.016C25.532 18.0453 25.7513 17.1773 26.19 16.412C26.638 15.6373 27.24 15.0353 27.996 14.606C28.7613 14.1673 29.606 13.948 30.53 13.948ZM30.53 16.174C29.746 16.174 29.1207 16.4307 28.654 16.944C28.1967 17.448 27.968 18.1387 27.968 19.016C27.968 19.884 28.1967 20.5747 28.654 21.088C29.1207 21.6013 29.746 21.858 30.53 21.858C31.3047 21.858 31.9253 21.6013 32.392 21.088C32.8587 20.5747 33.092 19.884 33.092 19.016C33.092 18.148 32.8587 17.4573 32.392 16.944C31.9347 16.4307 31.314 16.174 30.53 16.174ZM40.3169 16.09C41.3249 16.09 42.1695 16.37 42.8509 16.93C43.5322 17.4807 43.9615 18.2413 44.1389 19.212H41.6049C41.5302 18.876 41.3762 18.6147 41.1429 18.428C40.9095 18.2413 40.6155 18.148 40.2609 18.148C39.8409 18.148 39.4955 18.316 39.2249 18.652C38.9542 18.9787 38.8189 19.4593 38.8189 20.094C38.8189 20.7287 38.9542 21.214 39.2249 21.55C39.4955 21.8767 39.8409 22.04 40.2609 22.04C40.6155 22.04 40.9095 21.9467 41.1429 21.76C41.3762 21.5733 41.5302 21.312 41.6049 20.976H44.1389C43.9615 21.9467 43.5322 22.712 42.8509 23.272C42.1695 23.8227 41.3249 24.098 40.3169 24.098C39.5515 24.098 38.8702 23.9393 38.2729 23.622C37.6849 23.2953 37.2229 22.8287 36.8869 22.222C36.5509 21.6153 36.3829 20.906 36.3829 20.094C36.3829 19.2727 36.5462 18.5633 36.8729 17.966C37.2089 17.3593 37.6755 16.8973 38.2729 16.58C38.8702 16.2533 39.5515 16.09 40.3169 16.09ZM49.7285 21.942V24H48.6505C47.7358 24 47.0218 23.776 46.5085 23.328C46.0045 22.8707 45.7525 22.1193 45.7525 21.074V18.204H44.7025V16.188H45.7525V14.27H48.1465V16.188H49.7145V18.204H48.1465V21.116C48.1465 21.424 48.2072 21.6387 48.3285 21.76C48.4592 21.8813 48.6738 21.942 48.9725 21.942H49.7285ZM54.644 16.09C55.4187 16.09 56.1093 16.2533 56.716 16.58C57.332 16.8973 57.8127 17.3593 58.158 17.966C58.5127 18.5727 58.69 19.282 58.69 20.094C58.69 20.906 58.5127 21.6153 58.158 22.222C57.8127 22.8287 57.332 23.2953 56.716 23.622C56.1093 23.9393 55.4187 24.098 54.644 24.098C53.8693 24.098 53.174 23.9393 52.558 23.622C51.942 23.2953 51.4567 22.8287 51.102 22.222C50.7567 21.6153 50.584 20.906 50.584 20.094C50.584 19.282 50.7567 18.5727 51.102 17.966C51.4567 17.3593 51.942 16.8973 52.558 16.58C53.174 16.2533 53.8693 16.09 54.644 16.09ZM54.644 18.162C54.1867 18.162 53.7993 18.33 53.482 18.666C53.174 18.9927 53.02 19.4687 53.02 20.094C53.02 20.7193 53.174 21.1953 53.482 21.522C53.7993 21.8487 54.1867 22.012 54.644 22.012C55.1013 22.012 55.484 21.8487 55.792 21.522C56.1 21.1953 56.254 20.7193 56.254 20.094C56.254 19.4687 56.1 18.9927 55.792 18.666C55.484 18.33 55.1013 18.162 54.644 18.162ZM64.7194 16.09C65.3634 16.09 65.9374 16.2533 66.4414 16.58C66.9548 16.8973 67.3561 17.3593 67.6454 17.966C67.9441 18.5633 68.0934 19.2727 68.0934 20.094C68.0934 20.906 67.9441 21.6153 67.6454 22.222C67.3561 22.8287 66.9548 23.2953 66.4414 23.622C65.9374 23.9393 65.3634 24.098 64.7194 24.098C64.1221 24.098 63.6088 23.9627 63.1794 23.692C62.7501 23.4213 62.4374 23.0527 62.2414 22.586V24H59.8474V13.64H62.2414V17.602C62.4374 17.1353 62.7501 16.7667 63.1794 16.496C63.6088 16.2253 64.1221 16.09 64.7194 16.09ZM63.9494 18.19C63.4454 18.19 63.0301 18.3627 62.7034 18.708C62.3861 19.044 62.2274 19.506 62.2274 20.094C62.2274 20.6727 62.3861 21.1347 62.7034 21.48C63.0301 21.8253 63.4454 21.998 63.9494 21.998C64.4628 21.998 64.8734 21.83 65.1814 21.494C65.4988 21.158 65.6574 20.6913 65.6574 20.094C65.6574 19.4967 65.4988 19.03 65.1814 18.694C64.8734 18.358 64.4628 18.19 63.9494 18.19ZM76.6717 19.884C76.6717 20.08 76.6484 20.2947 76.6017 20.528H71.1837C71.2117 21.116 71.361 21.5407 71.6317 21.802C71.9024 22.054 72.2477 22.18 72.6677 22.18C73.0224 22.18 73.3164 22.0913 73.5497 21.914C73.783 21.7367 73.937 21.508 74.0117 21.228H76.5457C76.443 21.7787 76.219 22.2733 75.8737 22.712C75.5284 23.1413 75.0897 23.482 74.5577 23.734C74.0257 23.9767 73.433 24.098 72.7797 24.098C72.0144 24.098 71.333 23.9393 70.7357 23.622C70.1477 23.2953 69.6857 22.8287 69.3497 22.222C69.0137 21.6153 68.8457 20.906 68.8457 20.094C68.8457 19.2727 69.009 18.5633 69.3357 17.966C69.6717 17.3593 70.1384 16.8973 70.7357 16.58C71.333 16.2533 72.0144 16.09 72.7797 16.09C73.5544 16.09 74.2357 16.2487 74.8237 16.566C75.4117 16.8833 75.8644 17.3313 76.1817 17.91C76.5084 18.4793 76.6717 19.1373 76.6717 19.884ZM74.2497 19.52C74.259 19.0067 74.119 18.624 73.8297 18.372C73.5497 18.1107 73.1997 17.98 72.7797 17.98C72.341 17.98 71.977 18.1107 71.6877 18.372C71.3984 18.6333 71.235 19.016 71.1977 19.52H74.2497ZM80.2297 17.658C80.5283 17.182 80.911 16.804 81.3777 16.524C81.8537 16.244 82.367 16.104 82.9177 16.104V18.666H82.2317C81.597 18.666 81.1023 18.8013 80.7477 19.072C80.4023 19.3427 80.2297 19.8 80.2297 20.444V24H77.8357V16.188H80.2297V17.658ZM86.2044 22.096C89.1724 19.9773 90.6564 18.2927 90.6564 17.042C90.6564 16.2767 90.3251 15.894 89.6624 15.894C89.2891 15.894 89.0137 16.0247 88.8364 16.286C88.6684 16.5473 88.5751 16.9533 88.5564 17.504H86.2184C86.2744 16.3 86.6384 15.3947 87.3104 14.788C87.9824 14.1813 88.8317 13.878 89.8584 13.878C90.9317 13.878 91.7391 14.1487 92.2804 14.69C92.8311 15.2313 93.1064 15.936 93.1064 16.804C93.1064 17.7653 92.7377 18.708 92.0004 19.632C91.2631 20.5467 90.3811 21.3213 89.3544 21.956H93.2604V23.888H86.2044V22.096ZM95.1001 22.628C94.4747 21.7227 94.1621 20.4953 94.1621 18.946C94.1621 17.406 94.4747 16.188 95.1001 15.292C95.7254 14.3867 96.7241 13.934 98.0961 13.934C99.4587 13.934 100.453 14.3867 101.078 15.292C101.713 16.188 102.03 17.406 102.03 18.946C102.03 20.4953 101.713 21.7227 101.078 22.628C100.453 23.5333 99.4587 23.986 98.0961 23.986C96.7241 23.986 95.7254 23.5333 95.1001 22.628ZM99.3281 21.004C99.5427 20.5187 99.6501 19.8327 99.6501 18.946C99.6501 18.0593 99.5427 17.3827 99.3281 16.916C99.1227 16.44 98.7121 16.202 98.0961 16.202C97.4707 16.202 97.0507 16.44 96.8361 16.916C96.6214 17.392 96.5141 18.0687 96.5141 18.946C96.5141 19.8327 96.6214 20.5187 96.8361 21.004C97.0507 21.48 97.4707 21.718 98.0961 21.718C98.7121 21.718 99.1227 21.48 99.3281 21.004ZM102.976 22.096C105.944 19.9773 107.428 18.2927 107.428 17.042C107.428 16.2767 107.097 15.894 106.434 15.894C106.061 15.894 105.785 16.0247 105.608 16.286C105.44 16.5473 105.347 16.9533 105.328 17.504H102.99C103.046 16.3 103.41 15.3947 104.082 14.788C104.754 14.1813 105.603 13.878 106.63 13.878C107.703 13.878 108.511 14.1487 109.052 14.69C109.603 15.2313 109.878 15.936 109.878 16.804C109.878 17.7653 109.509 18.708 108.772 19.632C108.035 20.5467 107.153 21.3213 106.126 21.956H110.032V23.888H102.976V22.096ZM114.574 13.668C115.264 13.668 115.857 13.7893 116.352 14.032C116.846 14.2653 117.22 14.592 117.472 15.012C117.733 15.4227 117.864 15.8893 117.864 16.412C117.864 17.056 117.696 17.574 117.36 17.966C117.033 18.358 116.622 18.6053 116.128 18.708V18.778C117.406 19.1887 118.046 19.9867 118.046 21.172C118.046 21.7413 117.915 22.25 117.654 22.698C117.392 23.1367 117.01 23.482 116.506 23.734C116.011 23.9767 115.414 24.098 114.714 24.098C113.575 24.098 112.67 23.818 111.998 23.258C111.335 22.698 110.976 21.844 110.92 20.696H113.258C113.276 21.1347 113.398 21.48 113.622 21.732C113.846 21.984 114.172 22.11 114.602 22.11C114.947 22.11 115.218 22.0073 115.414 21.802C115.619 21.5967 115.722 21.3307 115.722 21.004C115.722 20.192 115.134 19.786 113.958 19.786H113.51V17.84H113.944C114.998 17.8587 115.526 17.4807 115.526 16.706C115.526 16.37 115.432 16.1133 115.246 15.936C115.068 15.7493 114.826 15.656 114.518 15.656C114.182 15.656 113.916 15.7727 113.72 16.006C113.524 16.23 113.412 16.5333 113.384 16.916H111.046C111.092 15.8707 111.419 15.068 112.026 14.508C112.632 13.948 113.482 13.668 114.574 13.668Z" fill="#231F20"/>
</svg>
