<svg width="20" height="21" viewBox="0 0 20 21" fill="none" xmlns="http://www.w3.org/2000/svg">
<g clip-path="url(#clip0_4450_6522)">
<path d="M16.7157 13.5647L11.8543 13.5647C11.2207 13.5647 10.6094 13.7595 10.0971 14.1194C9.58494 13.7595 8.97363 13.5647 8.34 13.5647L3.47855 13.5647L3.47855 15.3219L2.59998 15.3219L2.59998 16.2004L8.34 16.2004C8.58237 16.2004 8.77929 16.3974 8.77929 16.6397L8.77929 17.079L11.415 17.079L11.415 16.6397C11.415 16.3974 11.6119 16.2004 11.8543 16.2004L17.5943 16.2004L17.5943 15.3219L16.7157 15.3219L16.7157 13.5647ZM9.12849 11.6874L10.0971 12.9787L11.0658 11.6874C12.8054 11.249 14.0507 9.66346 14.0507 7.85398C14.0507 5.67385 12.2773 3.90039 10.0971 3.90039C7.91702 3.90039 6.14356 5.67385 6.14356 7.85398C6.14356 9.66346 7.38891 11.249 9.12849 11.6874ZM10.5364 10.0504L9.65786 10.0504L9.65786 9.17184L10.5364 9.17184L10.5364 10.0504ZM10.0971 5.65754C10.8238 5.65754 11.415 6.2487 11.415 6.9754C11.415 7.39237 11.2143 7.7892 10.8783 8.03672C10.6643 8.1946 10.5364 8.44684 10.5364 8.71197L9.65786 8.73255C9.65786 8.16886 9.91912 7.65235 10.3567 7.32976C10.4708 7.24568 10.5364 7.11656 10.5364 6.9754C10.5364 6.73303 10.3395 6.53612 10.0971 6.53612C9.85478 6.53612 9.65786 6.73303 9.65786 6.9754L8.77929 6.9754C8.77929 6.24868 9.37045 5.65754 10.0971 5.65754Z" fill="#7F8A9A" fill-opacity="0.8"/>
</g>
<defs>
<clipPath id="clip0_4450_6522">
<rect width="20" height="20" fill="white" transform="translate(0 0.5)"/>
</clipPath>
</defs>
</svg>
