<svg width="115" height="46" viewBox="0 0 115 46" fill="none" xmlns="http://www.w3.org/2000/svg">
<rect y="0.5" width="115" height="45" rx="8" fill="white"/>
<g clip-path="url(#clip0_4765_1340)">
<path d="M31.3639 29.3108H30.3737C30.1365 29.3108 29.944 29.1183 29.944 28.881V19.3393C29.944 18.6341 29.3723 18.0624 28.6671 18.0624H28.1907V29.3108H26.6025V16.2891C26.6025 15.7992 26.1049 15.4659 25.652 15.6526L20.5909 17.7365C20.1125 17.9336 19.8 18.4 19.8 18.9173V29.3108V29.9554C19.8 30.3114 20.0886 30.6 20.4447 30.6H31.3821C31.7485 30.6 32.0437 30.2945 32.0259 29.9241C32.0101 29.5777 31.7111 29.3108 31.3639 29.3108ZM25.1613 24.6539H24.4816V22.4554L25.1613 21.9597V24.6539Z" fill="#E82827"/>
</g>
<path d="M48.2384 24.672C48.2384 26.212 47.0064 27.598 44.7804 27.598C42.7504 27.598 41.1824 26.534 41.1544 24.686L43.2544 24.686C43.3104 25.47 43.8284 25.988 44.7384 25.988C45.6624 25.988 46.2084 25.498 46.2084 24.798C46.2084 22.684 41.1684 23.958 41.1824 20.416C41.1824 18.652 42.6104 17.588 44.6264 17.588C46.6284 17.588 48.0004 18.61 48.1264 20.374L45.9704 20.374C45.9284 19.73 45.4104 19.226 44.5704 19.212C43.8004 19.184 43.2264 19.562 43.2264 20.36C43.2264 22.32 48.2384 21.228 48.2384 24.672ZM49.9377 27.5L49.9377 19.744L51.8977 19.744L51.8977 27.5L49.9377 27.5ZM50.9317 18.82C50.2317 18.82 49.7277 18.316 49.7277 17.672C49.7277 17.028 50.2317 16.524 50.9317 16.524C51.6177 16.524 52.1357 17.028 52.1357 17.672C52.1357 18.316 51.6177 18.82 50.9317 18.82ZM53.3302 23.594C53.3302 21.172 54.8982 19.618 56.8722 19.618C58.0902 19.618 58.9722 20.178 59.4342 20.85L59.4342 19.744L61.4082 19.744L61.4082 27.556C61.4082 29.656 60.1202 31.322 57.5722 31.322C55.3882 31.322 53.8622 30.23 53.6662 28.452L55.6122 28.452C55.8082 29.152 56.5362 29.614 57.5162 29.614C58.5942 29.614 59.4342 28.998 59.4342 27.556L59.4342 26.352C58.9722 27.024 58.0902 27.626 56.8722 27.626C54.8982 27.626 53.3302 26.016 53.3302 23.594ZM59.4342 23.622C59.4342 22.152 58.4542 21.34 57.3762 21.34C56.3262 21.34 55.3322 22.124 55.3322 23.594C55.3322 25.064 56.3262 25.904 57.3762 25.904C58.4542 25.904 59.4342 25.092 59.4342 23.622ZM68.7544 27.5L68.7544 23.216C68.7544 21.97 68.0684 21.298 67.0324 21.298C65.9684 21.298 65.2824 21.97 65.2824 23.216L65.2824 27.5L63.3224 27.5L63.3224 19.744L65.2824 19.744L65.2824 20.71C65.7864 20.052 66.6264 19.632 67.6204 19.632C69.4264 19.632 70.7144 20.808 70.7144 22.95L70.7144 27.5L68.7544 27.5ZM83.4042 23.622C83.4042 26.058 81.6122 27.626 79.3582 27.626C77.1182 27.626 75.4242 26.058 75.4242 23.622C75.4242 21.172 77.1742 19.618 79.4142 19.618C81.6542 19.618 83.4042 21.172 83.4042 23.622ZM77.4122 23.622C77.4122 25.162 78.3082 25.918 79.3582 25.918C80.3942 25.918 81.3882 25.162 81.3882 23.622C81.3882 22.068 80.4222 21.326 79.3862 21.326C78.3502 21.326 77.4122 22.068 77.4122 23.622ZM92.164 19.744L92.164 27.5L90.19 27.5L90.19 26.52C89.7 27.178 88.846 27.598 87.88 27.598C86.074 27.598 84.772 26.422 84.772 24.294L84.772 19.744L86.732 19.744L86.732 24.014C86.732 25.26 87.418 25.932 88.454 25.932C89.518 25.932 90.19 25.26 90.19 24.014L90.19 19.744L92.164 19.744ZM94.4058 25.092L94.4058 21.354L93.4818 21.354L93.4818 19.744L94.4058 19.744L94.4058 17.826L96.3798 17.826L96.3798 19.744L98.1158 19.744L98.1158 21.354L96.3798 21.354L96.3798 25.106C96.3798 25.624 96.5898 25.848 97.2058 25.848L98.1158 25.848L98.1158 27.5L96.8838 27.5C95.3998 27.5 94.4058 26.87 94.4058 25.092Z" fill="#E82827"/>
<defs>
<clipPath id="clip0_4765_1340">
<rect width="20" height="20" fill="white" transform="translate(16 13)"/>
</clipPath>
</defs>
</svg>
