<svg width="24" height="24" viewBox="0 0 24 24" fill="none" xmlns="http://www.w3.org/2000/svg">
<g clip-path="url(#clip0_4633_13456)">
<path d="M5.8879 21.1191C5.58758 21.1186 5.29258 21.0399 5.03192 20.8907C4.44497 20.5581 4.08008 19.9125 4.08008 19.2115L4.08008 5.02683C4.08008 4.32395 4.44497 3.68026 5.03192 3.34765C5.29879 3.19428 5.60196 3.1154 5.90974 3.11928C6.21752 3.12315 6.51861 3.20962 6.78153 3.36966L18.9046 10.6264C19.1572 10.7848 19.3655 11.0048 19.5099 11.2657C19.6543 11.5267 19.73 11.82 19.73 12.1182C19.73 12.4164 19.6543 12.7098 19.5099 12.9707C19.3655 13.2316 19.1572 13.4516 18.9046 13.61L6.77958 20.8687C6.5105 21.0314 6.20231 21.1179 5.8879 21.1191Z" fill="#E82827"/>
</g>
<defs>
<clipPath id="clip0_4633_13456">
<rect width="24" height="24" fill="white"/>
</clipPath>
</defs>
</svg>
