<svg width="25" height="24" viewBox="0 0 25 24" fill="none" xmlns="http://www.w3.org/2000/svg">
<path d="M22.25 19.5C22.25 19.6989 22.171 19.8897 22.0303 20.0303C21.8897 20.171 21.6989 20.25 21.5 20.25H3.5C3.30109 20.25 3.11032 20.171 2.96967 20.0303C2.82902 19.8897 2.75 19.6989 2.75 19.5C2.75 19.3011 2.82902 19.1103 2.96967 18.9697C3.11032 18.829 3.30109 18.75 3.5 18.75H21.5C21.6989 18.75 21.8897 18.829 22.0303 18.9697C22.171 19.1103 22.25 19.3011 22.25 19.5ZM22.25 5.25V15.75C22.25 16.1478 22.092 16.5294 21.8107 16.8107C21.5294 17.092 21.1478 17.25 20.75 17.25H4.25C3.85218 17.25 3.47064 17.092 3.18934 16.8107C2.90804 16.5294 2.75 16.1478 2.75 15.75V5.25C2.75 4.85218 2.90804 4.47064 3.18934 4.18934C3.47064 3.90804 3.85218 3.75 4.25 3.75H20.75C21.1478 3.75 21.5294 3.90804 21.8107 4.18934C22.092 4.47064 22.25 4.85218 22.25 5.25ZM15.875 10.5C15.875 10.3738 15.8431 10.2496 15.7823 10.139C15.7215 10.0284 15.6337 9.93488 15.5272 9.86719L11.4022 7.24219C11.2888 7.17015 11.1582 7.12989 11.0239 7.12561C10.8896 7.12133 10.7567 7.15319 10.639 7.21786C10.5212 7.28252 10.423 7.37762 10.3546 7.49322C10.2862 7.60882 10.25 7.74067 10.25 7.875V13.125C10.25 13.2593 10.2862 13.3912 10.3546 13.5068C10.423 13.6224 10.5212 13.7175 10.639 13.7821C10.7567 13.8468 10.8896 13.8787 11.0239 13.8744C11.1582 13.8701 11.2888 13.8298 11.4022 13.7578L15.5272 11.1328C15.6337 11.0651 15.7215 10.9716 15.7823 10.861C15.8431 10.7504 15.875 10.6262 15.875 10.5Z" fill="#E82827"/>
</svg>
