<svg width="29" height="28" viewBox="0 0 29 28" fill="none" xmlns="http://www.w3.org/2000/svg">
<g clip-path="url(#clip0_4324_11755)">
<path d="M8.09458 8.83318L5.35933 6.09705L6.59658 4.8598L23.9207 22.1831L22.6835 23.4212L19.7872 20.5249C18.248 21.5012 16.4623 22.0181 14.6396 22.0151C9.92158 22.0151 5.99633 18.6201 5.17383 14.1401C5.5498 12.1025 6.57431 10.241 8.09458 8.83318ZM17.0528 17.7906L15.7718 16.5096C15.2819 16.744 14.7313 16.8206 14.1959 16.729C13.6605 16.6373 13.1668 16.3819 12.7827 15.9978C12.3986 15.6137 12.1432 15.12 12.0515 14.5846C11.9599 14.0492 12.0365 13.4986 12.271 13.0087L10.99 11.7277C10.4332 12.569 10.1843 13.5768 10.2854 14.5806C10.3865 15.5844 10.8314 16.5223 11.5448 17.2357C12.2582 17.9491 13.1961 18.394 14.1999 18.4951C15.2037 18.5962 16.2115 18.3473 17.0528 17.7906ZM11.1168 6.93005C12.208 6.5013 13.3971 6.26505 14.6396 6.26505C19.3576 6.26505 23.2828 9.66005 24.1062 14.1401C23.8382 15.5978 23.2356 16.9736 22.3457 18.1589L18.9682 14.7814C19.0685 14.1056 19.0092 13.4156 18.7949 12.7669C18.5806 12.1181 18.2173 11.5285 17.7342 11.0454C17.2511 10.5623 16.6615 10.199 16.0128 9.98474C15.364 9.77046 14.674 9.7111 13.9982 9.81143L11.1168 6.93005Z" fill="#7F8A9A" fill-opacity="0.8"/>
</g>
<defs>
<clipPath id="clip0_4324_11755">
<rect width="21" height="21" fill="white" transform="translate(4.13965 3.64005)"/>
</clipPath>
</defs>
</svg>
