<svg width="16" height="16" viewBox="0 0 16 16" fill="none" xmlns="http://www.w3.org/2000/svg">
<g clip-path="url(#clip0_4572_8014)">
<path d="M3.92518 14.0801C3.72497 14.0797 3.52831 14.0272 3.35453 13.9278C2.96323 13.7061 2.71997 13.2756 2.71997 12.8083V3.35187C2.71997 2.88328 2.96323 2.45416 3.35453 2.23242C3.53245 2.13017 3.73456 2.07759 3.93974 2.08017C4.14493 2.08275 4.34566 2.1404 4.52094 2.24709L12.603 7.08489C12.7714 7.19051 12.9103 7.33717 13.0065 7.51113C13.1028 7.68509 13.1532 7.88064 13.1532 8.07945C13.1532 8.27826 13.1028 8.47382 13.0065 8.64778C12.9103 8.82173 12.7714 8.9684 12.603 9.07401L4.51964 13.9131C4.34026 14.0216 4.13479 14.0793 3.92518 14.0801Z" fill="white"/>
</g>
<defs>
<clipPath id="clip0_4572_8014">
<rect width="16" height="16" fill="white"/>
</clipPath>
</defs>
</svg>
