<svg width="31" height="30" viewBox="0 0 31 30" fill="none" xmlns="http://www.w3.org/2000/svg">
<path d="M4.80774 14.9962C4.80774 9.60617 9.28662 5.21433 14.7834 5.21433H23.1696C24.8139 5.21433 26.1685 6.52728 26.1764 8.13967C26.1842 8.93051 25.871 9.67528 25.3072 10.2435C24.7356 10.804 23.9761 11.1188 23.1696 11.1188H16.6783C12.1525 11.1188 8.47228 14.6967 8.40964 19.1193H13.2252C13.2879 17.2996 14.8147 15.8331 16.6862 15.8331H23.1774C25.2759 15.8331 27.2491 15.0269 28.729 13.568C30.2089 12.1092 31.0154 10.1667 30.9998 8.10895C30.9685 3.91674 27.4605 0.500007 23.1774 0.500007H14.7834C6.63218 0.492329 0 7.00332 0 14.9962C0 22.989 6.63218 29.5 14.7913 29.5H30.4673V24.778H14.7834C9.28662 24.778 4.80774 20.3862 4.80774 14.9962Z" fill="#E82827"/>
</svg>
