<svg width="25" height="23" viewBox="0 0 25 23" fill="none" xmlns="http://www.w3.org/2000/svg">
<path d="M4.57957 11C4.57957 6.89512 7.916 3.58049 11.9987 3.58049H18.2545C19.4837 3.58049 20.4935 4.5683 20.4935 5.79756C20.4935 6.39025 20.274 6.96098 19.8349 7.4C19.4179 7.81707 18.8472 8.05854 18.2545 8.05854H13.4255C10.0452 8.05854 7.30139 10.7805 7.25749 14.139H10.8354C10.8793 12.7561 12.0207 11.6366 13.4035 11.6366H18.2326C19.791 11.6366 21.2617 11.022 22.3592 9.92439C23.4567 8.80488 24.0713 7.33415 24.0494 5.77561C24.0274 2.59268 21.4154 0.00244141 18.2326 0.00244141H11.9987C5.91853 0.00244141 0.979736 4.94146 0.979736 11.022C0.979736 17.1024 5.91853 22.0415 11.9987 22.0415H23.6762V18.4634H11.9987C7.89404 18.4195 4.57957 15.0829 4.57957 11Z" fill="#E28E7D"/>
</svg>
