<svg width="202" height="202" viewBox="0 0 202 202" fill="none" xmlns="http://www.w3.org/2000/svg">
<rect opacity="0.1" width="202" height="202" rx="6" fill="#E82827"/>
<g clip-path="url(#clip0_4538_10383)">
<path d="M114.994 139.911L113.067 128.35H89.9433L88.0164 139.911H114.994Z" fill="#2D393F"/>
<path d="M159.314 57.0509C159.314 54.4956 158.299 52.0449 156.492 50.238C154.685 48.4311 152.235 47.416 149.679 47.416H53.3307C50.7753 47.416 48.3247 48.4311 46.5178 50.238C44.7109 52.0449 43.6958 54.4956 43.6958 57.0509V118.714C43.6958 121.269 44.7109 123.72 46.5178 125.527C48.3247 127.334 50.7753 128.349 53.3307 128.349H149.679C152.235 128.349 154.685 127.334 156.492 125.527C158.299 123.72 159.314 121.269 159.314 118.714V57.0509Z" fill="#7F8A9A"/>
<path d="M51.4036 112.934V55.125H151.606V112.934" fill="#86DEF2"/>
<path d="M57.1846 97.5184C57.1846 100.074 58.1997 102.524 60.0066 104.331C61.8134 106.138 64.2641 107.153 66.8194 107.153H151.606V55.125H57.1846V97.5184Z" fill="#ADEBF4"/>
<path d="M116.921 139.91H86.0891C85.0669 139.91 84.0867 140.316 83.3639 141.039C82.6411 141.762 82.2351 142.742 82.2351 143.764C82.2351 144.786 82.6411 145.767 83.3639 146.489C84.0867 147.212 85.0669 147.618 86.0891 147.618H116.921C117.943 147.618 118.923 147.212 119.646 146.489C120.369 145.767 120.775 144.786 120.775 143.764C120.775 142.742 120.369 141.762 119.646 141.039C118.923 140.316 117.943 139.91 116.921 139.91Z" fill="#5A6A72"/>
<path d="M74.5272 82.1013C78.7842 82.1013 82.2351 78.6504 82.2351 74.3934C82.2351 70.1365 78.7842 66.6855 74.5272 66.6855C70.2703 66.6855 66.8193 70.1365 66.8193 74.3934C66.8193 78.6504 70.2703 82.1013 74.5272 82.1013Z" fill="#1F9FCC"/>
<path d="M138.118 99.4442C140.246 99.4442 141.972 97.7188 141.972 95.5903C141.972 93.4618 140.246 91.7363 138.118 91.7363C135.989 91.7363 134.264 93.4618 134.264 95.5903C134.264 97.7188 135.989 99.4442 138.118 99.4442Z" fill="#1F9FCC"/>
<path d="M132.337 112.932V105.224C132.337 103.691 132.946 102.221 134.03 101.137C135.114 100.052 136.585 99.4434 138.118 99.4434C139.651 99.4434 141.122 100.052 142.206 101.137C143.29 102.221 143.899 103.691 143.899 105.224V112.932" fill="#1F9FCC"/>
<path d="M138.117 70.5399C140.246 70.5399 141.971 68.8145 141.971 66.686C141.971 64.5575 140.246 62.832 138.117 62.832C135.989 62.832 134.263 64.5575 134.263 66.686C134.263 68.8145 135.989 70.5399 138.117 70.5399Z" fill="#1F9FCC"/>
<path d="M132.337 84.0298V76.3219C132.337 74.7887 132.946 73.3183 134.03 72.2342C135.114 71.1501 136.585 70.541 138.118 70.541C139.651 70.541 141.121 71.1501 142.206 72.2342C143.29 73.3183 143.899 74.7887 143.899 76.3219V84.0298" fill="#1F9FCC"/>
<path d="M111.14 70.5399C113.268 70.5399 114.994 68.8145 114.994 66.686C114.994 64.5575 113.268 62.832 111.14 62.832C109.011 62.832 107.286 64.5575 107.286 66.686C107.286 68.8145 109.011 70.5399 111.14 70.5399Z" fill="#1F9FCC"/>
<path d="M105.359 84.0298V76.3219C105.359 74.7887 105.968 73.3183 107.053 72.2342C108.137 71.1501 109.607 70.541 111.14 70.541C112.673 70.541 114.144 71.1501 115.228 72.2342C116.312 73.3183 116.921 74.7887 116.921 76.3219V84.0298" fill="#1F9FCC"/>
<path d="M111.14 99.4442C113.268 99.4442 114.994 97.7188 114.994 95.5903C114.994 93.4618 113.268 91.7363 111.14 91.7363C109.011 91.7363 107.286 93.4618 107.286 95.5903C107.286 97.7188 109.011 99.4442 111.14 99.4442Z" fill="#1F9FCC"/>
<path d="M105.359 112.933V105.225C105.359 103.692 105.968 102.222 107.052 101.138C108.137 100.053 109.607 99.4443 111.14 99.4443C112.673 99.4443 114.144 100.053 115.228 101.138C116.312 102.222 116.921 103.692 116.921 105.225V112.933M59.1118 101.371V97.5174C59.1118 93.4288 60.736 89.5078 63.627 86.6167C66.518 83.7257 70.4391 82.1016 74.5276 82.1016C78.6161 82.1016 82.5372 83.7257 85.4282 86.6167C88.3192 89.5078 89.9434 93.4288 89.9434 97.5174V101.371H59.1118Z" fill="#1F9FCC"/>
<path d="M43.6958 118.715C43.6958 121.27 44.7109 123.721 46.5178 125.527C48.3247 127.334 50.7753 128.349 53.3307 128.349H149.679C152.235 128.349 154.685 127.334 156.492 125.527C158.299 123.721 159.314 121.27 159.314 118.715V112.934H43.6958V118.715Z" fill="#43525B"/>
<path d="M151.606 82.1026H126.556V55.125H122.702V82.1026H99.5781V55.125H95.7241V112.934H99.5781V85.9566H122.702V112.934H126.556V85.9566H151.606V82.1026Z" fill="white"/>
<path d="M130.41 155.327C146.373 155.327 159.314 142.386 159.314 126.422C159.314 110.459 146.373 97.5176 130.41 97.5176C114.446 97.5176 101.505 110.459 101.505 126.422C101.505 142.386 114.446 155.327 130.41 155.327Z" fill="#C12121"/>
<path d="M130.409 97.5176C123.683 97.5079 117.166 99.8539 111.989 104.148C107.695 109.325 105.349 115.842 105.359 122.568C105.359 138.531 118.3 151.473 134.263 151.473C141.264 151.473 147.683 148.983 152.683 144.842C156.978 139.665 159.324 133.148 159.314 126.422C159.314 110.459 146.372 97.5176 130.409 97.5176Z" fill="#E82827"/>
<path d="M120.775 112.934V139.911L143.898 126.422L120.775 112.934Z" fill="white"/>
</g>
<defs>
<clipPath id="clip0_4538_10383">
<rect width="115.353" height="107.911" fill="white" transform="translate(43.6958 47.416)"/>
</clipPath>
</defs>
</svg>
