<svg width="93" height="93" viewBox="0 0 93 93" fill="none" xmlns="http://www.w3.org/2000/svg">
<rect width="93" height="93" rx="6" fill="#FDE9E9"/>
<g clip-path="url(#clip0_4877_6937)">
<path d="M63.1208 38.3721H30.4792C30.4792 38.3721 28.3912 45.695 28.3133 56.2772C28.3115 56.4718 28.3568 56.6639 28.4453 56.8372C28.5338 57.0105 28.663 57.1598 28.8217 57.2724C30.477 58.4445 36.21 61.9057 46.8001 62.4267C57.3902 61.9057 63.1233 58.4445 64.7785 57.2724C64.9372 57.1598 65.0663 57.0105 65.1549 56.8372C65.2434 56.6639 65.2887 56.4718 65.2869 56.2772C65.2086 45.695 63.1208 38.3721 63.1208 38.3721Z" fill="#685E67"/>
<path d="M65.2868 56.2773C65.2887 56.4719 65.2436 56.664 65.1552 56.8373C65.0668 57.0107 64.9378 57.16 64.7791 57.2727C64.1758 57.6998 63.0321 58.4303 61.3097 59.2123C61.6095 58.9579 61.7823 58.5763 61.7788 58.169C61.7041 47.4991 59.8509 39.6406 59.5347 38.3721H63.1208C63.1208 38.3721 65.2086 45.695 65.2868 56.2773Z" fill="#554E55"/>
<path d="M64.4231 44.9295L47.5553 50.5077C47.0651 50.6699 46.5356 50.6699 46.0453 50.5077L29.1775 44.9295C29.782 40.8193 30.4799 38.3721 30.4799 38.3721H63.1207C63.1207 38.3721 63.8186 40.8193 64.4231 44.9295Z" fill="#554E55"/>
<path d="M46.0444 26.9312L18.6254 35.9986C17.5249 36.3626 17.5249 37.9194 18.6254 38.2833L46.0444 47.3506C46.535 47.5128 47.0648 47.5128 47.5554 47.3506L74.9744 38.2833C76.0749 37.9193 76.0749 36.3625 74.9744 35.9986L47.5554 26.9312C47.0648 26.769 46.535 26.769 46.0444 26.9312Z" fill="#918291"/>
<path d="M74.9745 38.2825L47.5548 47.3501C47.0645 47.5124 46.535 47.5124 46.0448 47.3501L41.9031 45.9801C42.231 46.0058 42.5624 45.9661 42.8787 45.8611L72.8821 35.9392C73.1319 35.8575 73.2836 35.6685 73.336 35.4561L74.9745 35.9975C76.075 36.3616 76.075 37.9184 74.9745 38.2825Z" fill="#7A6E79"/>
<path d="M49.8666 35.7467C49.8666 36.9087 48.4887 37.3695 46.7888 37.3695C45.0889 37.3695 43.7109 36.9087 43.7109 35.7467C43.7109 34.5846 45.0889 33.6426 46.7888 33.6426C48.4887 33.6426 49.8666 34.5846 49.8666 35.7467Z" fill="#685E67"/>
<path d="M49.8673 35.7458C49.8673 36.9082 48.4891 37.3691 46.7887 37.3691C46.6252 37.3692 46.4618 37.3646 46.2986 37.3551C46.9649 37.1018 47.3886 36.6723 47.3886 36.0282C47.3886 35.0491 46.4117 34.2275 45.0884 33.9918C45.575 33.7712 46.1597 33.6416 46.7887 33.6416C48.489 33.6417 49.8673 34.5847 49.8673 35.7458Z" fill="#554E55"/>
<path d="M34.019 51.4995C33.9041 51.4995 33.7903 51.4769 33.6841 51.4329C33.5779 51.3889 33.4814 51.3244 33.4001 51.2432C33.3188 51.1619 33.2544 51.0654 33.2104 50.9592C33.1664 50.853 33.1438 50.7392 33.1438 50.6243V43.3744C33.1438 43.2298 33.1796 43.0874 33.2481 42.9601C33.3165 42.8327 33.4155 42.7243 33.5361 42.6445L43.6479 35.9531C44.0507 35.6862 44.5939 35.7969 44.8608 36.2001C44.9889 36.3937 45.0348 36.6302 44.9885 36.8576C44.9422 37.0851 44.8074 37.2848 44.6139 37.413L34.8943 43.8448V50.6244C34.8943 50.8565 34.802 51.0791 34.6379 51.2432C34.4737 51.4073 34.2511 51.4995 34.019 51.4995Z" fill="#433F43"/>
<path d="M33.4009 49.4922C32.5636 51.2962 31.1672 55.7595 31.1267 65.5119C31.1263 65.6417 31.1692 65.7679 31.2486 65.8705C31.328 65.9732 31.4394 66.0465 31.5651 66.0787C32.0523 66.2043 32.917 66.3751 34.0189 66.3751C35.1208 66.3751 35.9856 66.2043 36.4727 66.0787C36.5984 66.0465 36.7098 65.9732 36.7892 65.8706C36.8686 65.7679 36.9115 65.6417 36.9111 65.5119C36.8706 55.7595 35.4742 51.2962 34.6368 49.4922H33.4009Z" fill="#FDD330"/>
<path d="M36.9106 65.5126C36.9109 65.6422 36.868 65.7681 36.7888 65.8706C36.7096 65.9731 36.5984 66.0463 36.473 66.0786C36.0213 66.1953 35.2476 66.3493 34.2628 66.3715C34.3306 66.317 34.3853 66.2479 34.4226 66.1693C34.46 66.0907 34.4792 66.0047 34.4787 65.9176C34.4461 58.045 33.53 53.6187 32.7375 51.2567C32.9733 50.4957 33.202 49.9193 33.4004 49.4922H34.6363C35.474 51.2963 36.8708 55.76 36.9106 65.5126Z" fill="#E7B729"/>
<path d="M34.0189 51.805C35.3622 51.805 36.4512 50.716 36.4512 49.3727C36.4512 48.0294 35.3622 46.9404 34.0189 46.9404C32.6756 46.9404 31.5867 48.0294 31.5867 49.3727C31.5867 50.716 32.6756 51.805 34.0189 51.805Z" fill="#FDDD45"/>
<path d="M74.6531 57.1154C75.8122 56.6935 76.1485 54.6941 75.4044 52.6496C74.6602 50.6051 73.1173 49.2897 71.9583 49.7115L43.3953 60.1077L46.09 67.5115L74.6531 57.1154Z" fill="#F2EFF2"/>
<path d="M75.4033 52.6502C76.1477 54.6954 75.8121 56.694 74.6529 57.116L46.0893 67.5123L45.0798 64.7389L73.0578 54.5557C74.1786 54.1478 74.5296 52.2665 73.8806 50.2959C74.4871 50.829 75.0405 51.6535 75.4033 52.6502Z" fill="#E1DDE1"/>
<path d="M46.0896 67.514C47.2486 67.0921 47.585 65.0927 46.8408 63.0482C46.0967 61.0037 44.5539 59.6883 43.3948 60.1102C42.2357 60.532 41.8994 62.5314 42.6435 64.5759C43.3877 66.6204 44.9305 67.9358 46.0896 67.514Z" fill="#B5ADB6"/>
<path d="M46.0891 67.5117C45.5487 67.709 44.9232 67.5269 44.3363 67.0695C45.0948 66.556 45.2746 65.0564 44.7179 63.5252C44.229 62.1808 43.3211 61.2216 42.489 61.0699C42.6816 60.5984 42.9873 60.2565 43.3946 60.1082C44.5535 59.6858 46.0974 61.001 46.8407 63.0456C47.5852 65.0902 47.2491 67.0904 46.0891 67.5117Z" fill="#A69CA7"/>
<path d="M59.6181 62.5881C60.7772 62.1662 61.1135 60.1668 60.3694 58.1223C59.6252 56.0778 58.0823 54.7624 56.9233 55.1842L60.8996 53.7369C62.0587 53.3151 63.6015 54.6305 64.3456 56.675C65.0898 58.7195 64.7535 60.7189 63.5944 61.1408C63.5944 61.1408 67.4127 60.5914 68.9637 63.5413C69.1269 63.8519 68.9733 64.236 68.6435 64.3559L64.6268 65.8179C64.3238 65.9283 63.9882 65.7725 63.879 65.4691C63.4492 64.2755 62.1872 61.653 59.6181 62.5881Z" fill="#FC9744"/>
<path d="M64.6178 57.6279C64.9638 59.3089 64.5712 60.7856 63.5952 61.1409L59.6189 62.5882C60.5959 62.2326 60.9887 60.7559 60.6415 59.0752L64.6178 57.6279Z" fill="#FB7722"/>
</g>
<defs>
<clipPath id="clip0_4877_6937">
<rect width="58" height="58" fill="white" transform="translate(17.8 18.2002)"/>
</clipPath>
</defs>
</svg>
