<svg width="14" height="15" viewBox="0 0 14 15" fill="none" xmlns="http://www.w3.org/2000/svg">
<path d="M7 0.5C3.136 0.5 1.34212e-08 3.636 2.9958e-08 7.5C4.64948e-08 11.364 3.136 14.5 7 14.5L10.5 14.5L10.5 13.1L7 13.1C3.962 13.1 1.4 10.538 1.4 7.5C1.4 4.462 3.962 1.9 7 1.9C10.038 1.9 12.6 4.462 12.6 7.5L12.6 8.501C12.6 9.054 12.103 9.6 11.55 9.6C10.997 9.6 10.5 9.054 10.5 8.501L10.5 7.5C10.5 5.568 8.932 4 7 4C5.068 4 3.5 5.568 3.5 7.5C3.5 9.432 5.068 11 7 11C7.966 11 8.848 10.608 9.478 9.971C9.933 10.594 10.717 11 11.55 11C12.929 11 14 9.88 14 8.501L14 7.5C14 3.636 10.864 0.5 7 0.5ZM7 9.6C5.838 9.6 4.9 8.662 4.9 7.5C4.9 6.338 5.838 5.4 7 5.4C8.162 5.4 9.1 6.338 9.1 7.5C9.1 8.662 8.162 9.6 7 9.6Z" fill="#E82827"/>
</svg>
