<svg width="20" height="21" viewBox="0 0 20 21" fill="none" xmlns="http://www.w3.org/2000/svg">
<g clip-path="url(#clip0_4484_11291)">
<path d="M8.06229 9.76278L16.4054 3.32297C17.1007 2.78501 18.1074 3.28208 18.1074 4.15666L18.1074 17.0394C18.1074 17.9171 17.1007 18.4111 16.4054 17.8762L8.06229 11.4364C7.59983 11.0809 7.51489 10.4171 7.87039 9.95468C7.92701 9.88233 7.98993 9.81941 8.06229 9.76278ZM4.32173 18.0996L3.45659 18.0996C2.65122 18.0996 2 17.4484 2 16.643L2 4.5562C2 3.75083 2.65122 3.09961 3.45659 3.09961L4.32173 3.09961C5.1271 3.09961 5.77831 3.75083 5.77831 4.5562L5.77831 16.643C5.77831 17.4484 5.1271 18.0996 4.32173 18.0996Z" fill="#E82827"/>
</g>
<defs>
<clipPath id="clip0_4484_11291">
<rect width="20" height="20" fill="white" transform="translate(0 0.5)"/>
</clipPath>
</defs>
</svg>
