<svg width="24" height="24" viewBox="0 0 24 24" fill="none" xmlns="http://www.w3.org/2000/svg">
<path d="M22.8643 12.1181C22.8643 12.459 22.7289 12.7859 22.4878 13.027C22.2467 13.268 21.9198 13.4035 21.5789 13.4035L5.83278 13.4035L11.3514 18.921C11.5929 19.1625 11.7286 19.49 11.7286 19.8315C11.7286 20.173 11.5929 20.5005 11.3514 20.742C11.1099 20.9835 10.7824 21.1191 10.4409 21.1191C10.0994 21.1191 9.77192 20.9835 9.53044 20.742L1.81807 13.0296C1.69823 12.9102 1.60315 12.7683 1.53827 12.6121C1.4734 12.4558 1.44 12.2883 1.44 12.1191C1.44 11.95 1.4734 11.7825 1.53827 11.6262C1.60315 11.47 1.69823 11.3281 1.81807 11.2087L9.53044 3.49628C9.65001 3.37671 9.79195 3.28186 9.94817 3.21716C10.1044 3.15245 10.2718 3.11914 10.4409 3.11914C10.61 3.11914 10.7775 3.15245 10.9337 3.21716C11.0899 3.28186 11.2318 3.37671 11.3514 3.49628C11.471 3.61584 11.5658 3.75779 11.6305 3.91401C11.6952 4.07023 11.7286 4.23767 11.7286 4.40677C11.7286 4.57586 11.6952 4.7433 11.6305 4.89952C11.5658 5.05574 11.471 5.19769 11.3514 5.31725L5.83278 10.8327L21.5789 10.8327C21.9198 10.8327 22.2467 10.9681 22.4878 11.2092C22.7289 11.4502 22.8643 11.7772 22.8643 12.1181Z" fill="#7F8A9A" fill-opacity="0.8"/>
</svg>
