<svg width="16" height="16" viewBox="0 0 16 16" fill="none" xmlns="http://www.w3.org/2000/svg">
<g opacity="0.45" clip-path="url(#clip0_4443_11614)">
<path d="M6.44981 7.41061L13.1243 2.25877C13.6805 1.8284 14.4859 2.22605 14.4859 2.92572L14.4859 13.2319C14.4859 13.9341 13.6805 14.3292 13.1243 13.9014L6.44981 8.74954C6.07984 8.46514 6.01189 7.9341 6.29628 7.56414C6.34159 7.50625 6.39192 7.45592 6.44981 7.41061ZM3.45736 14.0801L2.76524 14.0801C2.12095 14.0801 1.59998 13.5591 1.59998 12.9148L1.59998 3.24535C1.59998 2.60105 2.12095 2.08008 2.76524 2.08008L3.45736 2.08008C4.10165 2.08008 4.62263 2.60105 4.62263 3.24535L4.62263 12.9148C4.62263 13.5591 4.10165 14.0801 3.45736 14.0801Z" fill="#7F8A9A"/>
</g>
<defs>
<clipPath id="clip0_4443_11614">
<rect width="16" height="16" fill="white"/>
</clipPath>
</defs>
</svg>
