<svg width="20" height="21" viewBox="0 0 20 21" fill="none" xmlns="http://www.w3.org/2000/svg">
<path fill-rule="evenodd" clip-rule="evenodd" d="M15.0922 9.24347C15.5387 9.24348 15.9746 9.37905 16.3423 9.63224C16.7101 9.88542 16.9922 10.2443 17.1516 10.6614C17.3109 11.0784 17.3398 11.534 17.2345 11.9679C17.1292 12.4018 16.8946 12.7934 16.5619 13.0911V16.7322C16.5619 16.7949 16.5459 16.8565 16.5153 16.9112C16.4848 16.9659 16.4408 17.0119 16.3875 17.0448C16.3342 17.0777 16.2733 17.0965 16.2107 17.0992C16.1481 17.102 16.0859 17.0887 16.0299 17.0607L15.0922 16.5918L14.1546 17.0607C14.0985 17.0887 14.0363 17.102 13.9737 17.0992C13.9111 17.0965 13.8503 17.0777 13.7969 17.0448C13.7436 17.0119 13.6996 16.9659 13.6691 16.9112C13.6386 16.8565 13.6225 16.7949 13.6225 16.7322V13.0911C13.2898 12.7934 13.0552 12.4018 12.9499 11.9679C12.8447 11.534 12.8736 11.0784 13.0329 10.6614C13.1922 10.2443 13.4744 9.88542 13.8421 9.63224C14.2098 9.37905 14.6458 9.24348 15.0922 9.24347ZM15.8271 4.09961C16.2168 4.09961 16.5907 4.25445 16.8663 4.53007C17.1419 4.80568 17.2967 5.1795 17.2967 5.56928V8.50864C16.5892 7.97798 15.714 7.72034 14.8318 7.78304C13.9495 7.84574 13.1196 8.22455 12.4942 8.84994C11.8688 9.47533 11.49 10.3053 11.4273 11.1875C11.3646 12.0697 11.6222 12.945 12.1529 13.6525V15.857H4.06965C3.67987 15.857 3.30605 15.7022 3.03043 15.4266C2.75482 15.1509 2.59998 14.7771 2.59998 14.3873V5.56928C2.59998 5.1795 2.75482 4.80568 3.03043 4.53007C3.30605 4.25445 3.67987 4.09961 4.06965 4.09961H15.8271ZM7.009 10.7131H5.53933C5.34443 10.7131 5.15753 10.7906 5.01972 10.9284C4.88191 11.0662 4.80449 11.2531 4.80449 11.448C4.80449 11.6429 4.88191 11.8298 5.01972 11.9676C5.15753 12.1054 5.34443 12.1828 5.53933 12.1828H7.009C7.20389 12.1828 7.3908 12.1054 7.52861 11.9676C7.66642 11.8298 7.74384 11.6429 7.74384 11.448C7.74384 11.2531 7.66642 11.0662 7.52861 10.9284C7.3908 10.7906 7.20389 10.7131 7.009 10.7131ZM9.94835 7.7738H5.53933C5.35203 7.77401 5.17188 7.84572 5.03569 7.9743C4.8995 8.10287 4.81754 8.2786 4.80657 8.46557C4.79559 8.65254 4.85642 8.83665 4.97663 8.98028C5.09685 9.1239 5.26737 9.21621 5.45335 9.23833L5.53933 9.24347H9.94835C10.1356 9.24327 10.3158 9.17155 10.452 9.04297C10.5882 8.9144 10.6701 8.73867 10.6811 8.5517C10.6921 8.36473 10.6313 8.18062 10.511 8.03699C10.3908 7.89337 10.2203 7.80106 10.0343 7.77894L9.94835 7.7738Z" fill="#7F8A9A" fill-opacity="0.8"/>
</svg>
