<svg width="24" height="24" viewBox="0 0 24 24" fill="none" xmlns="http://www.w3.org/2000/svg">
<g clip-path="url(#clip0_4571_13955)">
<path fill-rule="evenodd" clip-rule="evenodd" d="M3.61834 6.58472C3.3722 4.16006 5.64709 2.37949 7.6569 3.42456L18.9641 9.30232C21.1301 10.4274 21.1301 13.8099 18.9641 14.9349L7.6569 20.8137C5.64709 21.8588 3.37315 20.0782 3.61834 17.6536L4.07275 13.1575L11.7579 13.1575C12.009 13.1575 12.2498 13.048 12.4273 12.8532C12.6049 12.6584 12.7046 12.3941 12.7046 12.1186C12.7046 11.8431 12.6049 11.5789 12.4273 11.384C12.2498 11.1892 12.009 11.0798 11.7579 11.0798L4.07369 11.0798L3.61928 6.58472H3.61834Z" fill="white"/>
</g>
<defs>
<clipPath id="clip0_4571_13955">
<rect width="24" height="24" fill="white"/>
</clipPath>
</defs>
</svg>
