<svg width="58" height="58" viewBox="0 0 58 58" fill="none" xmlns="http://www.w3.org/2000/svg">
<circle cx="29" cy="29" r="29" fill="black" fill-opacity="0.5"/>
<path d="M21.7931 39.7814C21.4333 39.7807 21.0799 39.6864 20.7677 39.5077C20.0646 39.1093 19.6274 38.3358 19.6274 37.4962V20.504C19.6274 19.662 20.0646 18.8909 20.7677 18.4925C21.0874 18.3088 21.4505 18.2143 21.8192 18.2189C22.1879 18.2236 22.5486 18.3271 22.8636 18.5189L37.386 27.2118C37.6887 27.4016 37.9382 27.6651 38.1111 27.9777C38.2841 28.2903 38.3748 28.6417 38.3748 28.9989C38.3748 29.3562 38.2841 29.7076 38.1111 30.0201C37.9382 30.3327 37.6887 30.5963 37.386 30.786L22.8612 39.4814C22.5389 39.6762 22.1697 39.7799 21.7931 39.7814Z" fill="white"/>
</svg>
