<svg width="60" height="56" viewBox="0 0 60 56" fill="none" xmlns="http://www.w3.org/2000/svg">
<circle cx="28" cy="28" r="28" fill="#BB2027" fill-opacity="0.1"/>
<g clip-path="url(#clip0_5779_3995)">
<path d="M31.2382 32.6343V34.4354C31.2382 35.8509 30.3161 37.0545 29.0415 37.479V25.4119C29.0415 24.8531 28.5888 24.4004 28.03 24.4004C27.4714 24.4004 27.0187 24.8531 27.0187 25.4119V37.4792C25.7441 37.0545 24.822 35.8509 24.822 34.4356V32.6343H22.7992V34.4356C22.7992 36.974 24.6167 39.0948 27.0187 39.5675V43.7885C27.0187 44.3471 27.4714 44.7998 28.03 44.7998C28.5888 44.7998 29.0415 44.3471 29.0415 43.7885V39.5675C31.4435 39.0948 33.261 36.9737 33.261 34.4356V32.6343H31.2382Z" fill="#023933"/>
<path d="M23.1196 33.685C22.1217 33.685 20.4593 33.4922 19.3231 32.3561C17.7012 30.7342 18.0019 28.0389 18.0416 27.7369C18.1011 27.2827 18.4587 26.9253 18.913 26.8656C19.215 26.8259 21.9102 26.5252 23.5321 28.1474C25.154 29.7693 24.8533 32.4645 24.8138 32.7665C24.7541 33.2207 24.3968 33.5781 23.9425 33.6378C23.852 33.6496 23.5465 33.685 23.1196 33.685Z" fill="#61C18E"/>
<path d="M32.9413 33.685C32.5142 33.685 32.2086 33.6496 32.1181 33.6378C31.6639 33.5781 31.3065 33.2207 31.2468 32.7665C31.2073 32.4645 30.9066 29.7693 32.5285 28.1474C34.1505 26.5252 36.8459 26.8259 37.1477 26.8656C37.6019 26.9253 37.9595 27.2827 38.019 27.7369C38.0587 28.0389 38.3594 30.7342 36.7375 32.3561C35.6016 33.492 33.9392 33.685 32.9413 33.685Z" fill="#61C18E"/>
<path d="M28.0304 26.4237C23.8332 26.4237 20.4187 23.0091 20.4187 18.8119C20.4184 14.6147 23.8332 11.2002 28.0304 11.2002C32.2276 11.2002 35.6422 14.6147 35.6422 18.8119C35.6422 23.0091 32.2273 26.4237 28.0304 26.4237Z" fill="#FFAE03"/>
<path d="M18.38 19.8236H16.6083C16.0498 19.8236 15.5968 19.3707 15.5968 18.8121C15.5968 18.2535 16.0498 17.8008 16.6083 17.8008H18.38C18.9388 17.8008 19.3915 18.2535 19.3915 18.8121C19.3915 19.3707 18.9388 19.8236 18.38 19.8236Z" fill="#77D4E0"/>
<path d="M18.9647 16.5075C18.8499 16.5075 18.733 16.4878 18.6189 16.4463L16.9539 15.8403C16.4289 15.6493 16.1585 15.0687 16.3495 14.5437C16.5404 14.0187 17.1208 13.7482 17.6458 13.9392L19.3108 14.5452C19.8358 14.7364 20.1065 15.3168 19.9153 15.8418C19.7658 16.2525 19.378 16.5075 18.9647 16.5075Z" fill="#77D4E0"/>
<path d="M17.3 23.7456C16.8868 23.7456 16.4989 23.4905 16.3494 23.0798C16.1582 22.5548 16.4289 21.9745 16.9539 21.7832L18.6189 21.1775C19.1439 20.9865 19.7243 21.2569 19.9152 21.7819C20.1062 22.3069 19.8355 22.8873 19.3108 23.0783L17.6458 23.6843C17.5317 23.7258 17.4148 23.7456 17.3 23.7456Z" fill="#77D4E0"/>
<path d="M27.4934 23.4249C27.3327 23.4249 27.1696 23.3864 27.0179 23.3054C26.5252 23.0424 26.3388 22.4295 26.6021 21.9368L27.486 20.281H26.8874C26.5318 20.281 26.2027 20.0944 26.0199 19.7896C25.8371 19.4851 25.8277 19.1067 25.9951 18.7932L27.6736 15.6496C27.9366 15.1566 28.5496 14.9705 29.0423 15.2338C29.535 15.4968 29.7213 16.1097 29.4581 16.6024L28.5742 18.2582H29.1727C29.5283 18.2582 29.8574 18.4445 30.0402 18.7493C30.223 19.0541 30.2325 19.4325 30.0651 19.746L28.3865 22.8896C28.2045 23.2306 27.8549 23.4249 27.4934 23.4249Z" fill="white"/>
<path d="M39.4522 19.8236H37.6806C37.122 19.8236 36.6691 19.3707 36.6691 18.8121C36.6691 18.2535 37.122 17.8008 37.6806 17.8008H39.4522C40.0108 17.8008 40.4638 18.2535 40.4638 18.8121C40.4638 19.3707 40.0111 19.8236 39.4522 19.8236Z" fill="#77D4E0"/>
<path d="M38.7611 23.7457C38.6463 23.7457 38.5294 23.7259 38.4153 23.6844L36.7503 23.0784C36.2253 22.8874 35.9546 22.307 36.1456 21.782C36.3368 21.257 36.9172 20.9863 37.4422 21.1776L39.1072 21.7833C39.6319 21.9746 39.9026 22.5549 39.7116 23.0799C39.5622 23.4906 39.1741 23.7457 38.7611 23.7457Z" fill="#77D4E0"/>
<path d="M37.0961 16.5075C36.6831 16.5075 36.2953 16.2524 36.1456 15.8418C35.9546 15.3168 36.2253 14.7364 36.7503 14.5452L38.4153 13.9392C38.94 13.7482 39.5206 14.0189 39.7116 14.5436C39.9026 15.0686 39.6322 15.6493 39.1072 15.8402L37.4422 16.4462C37.3279 16.4878 37.211 16.5075 37.0961 16.5075Z" fill="#77D4E0"/>
</g>
<g clip-path="url(#clip1_5779_3995)">
<rect x="39.7598" width="20" height="20" rx="10" fill="white"/>
<mask id="mask0_5779_3995" style="mask-type:luminance" maskUnits="userSpaceOnUse" x="40" y="0" width="20" height="20">
<path d="M49.76 18.3337C50.8545 18.3351 51.9386 18.1202 52.9498 17.7013C53.961 17.2824 54.8795 16.6678 55.6525 15.8928C56.4275 15.1199 57.0421 14.2014 57.4609 13.1902C57.8798 12.1789 58.0947 11.0949 58.0933 10.0003C58.0947 8.90578 57.8798 7.82174 57.4609 6.81051C57.042 5.79928 56.4274 4.88079 55.6525 4.10783C54.8795 3.33284 53.961 2.71825 52.9498 2.29937C51.9386 1.88049 50.8545 1.66558 49.76 1.667C48.6654 1.6656 47.5814 1.88052 46.5702 2.2994C45.5589 2.71828 44.6404 3.33286 43.8675 4.10783C43.0925 4.88079 42.4779 5.79928 42.059 6.81051C41.6402 7.82174 41.4252 8.90578 41.4266 10.0003C41.4252 11.0949 41.6401 12.1789 42.059 13.1902C42.4779 14.2014 43.0925 15.1199 43.8675 15.8928C44.6404 16.6678 45.5589 17.2824 46.5702 17.7013C47.5814 18.1201 48.6654 18.3351 49.76 18.3337Z" fill="white" stroke="white" stroke-width="2" stroke-linejoin="round"/>
<path d="M46.4266 10L48.9266 12.5L53.9266 7.5" stroke="black" stroke-width="2" stroke-linecap="round" stroke-linejoin="round"/>
</mask>
<g mask="url(#mask0_5779_3995)">
<path d="M39.7598 0H59.7598V20H39.7598V0Z" fill="#35B572"/>
</g>
</g>
<rect x="40.7598" y="1" width="18" height="18" rx="9" stroke="white" stroke-width="2"/>
<defs>
<clipPath id="clip0_5779_3995">
<rect width="33.6" height="33.6" fill="white" transform="translate(11.2 11.2002)"/>
</clipPath>
<clipPath id="clip1_5779_3995">
<rect x="39.7598" width="20" height="20" rx="10" fill="white"/>
</clipPath>
</defs>
</svg>
