<svg width="56" height="56" viewBox="0 0 56 56" fill="none" xmlns="http://www.w3.org/2000/svg">
<circle cx="28" cy="28" r="28" fill="#BB2027" fill-opacity="0.1"/>
<g clip-path="url(#clip0_5779_2443)">
<path d="M43.4703 32.7821L41.1863 31.4632C41.4808 30.3365 41.6303 29.175 41.6303 28.0002C41.6303 26.8254 41.4808 25.6638 41.1863 24.5372L43.4703 23.2183C43.9443 22.944 44.1068 22.338 43.833 21.8643L41.2191 17.3361C41.0876 17.1088 40.871 16.9424 40.6172 16.875C40.3634 16.8068 40.0927 16.8419 39.8653 16.9734L37.5784 18.2936C35.9006 16.6291 33.8524 15.4456 31.5819 14.8285V12.1912C31.5819 11.6442 31.1379 11.2002 30.5906 11.2002L25.3627 11.2002C24.8156 11.2002 24.3716 11.6442 24.3716 12.1912V14.8285C22.1012 15.4456 20.053 16.6291 18.3752 18.2936L16.0883 16.9734C15.8609 16.8419 15.5899 16.8063 15.3362 16.875C15.0826 16.9424 14.8658 17.1088 14.7343 17.3361L12.1203 21.8643C11.8468 22.338 12.0093 22.944 12.483 23.2183L14.7673 24.5372C14.4728 25.6638 14.3233 26.8254 14.3233 28.0002C14.3233 29.175 14.4728 30.3365 14.7673 31.4632L12.483 32.7821C12.0093 33.0564 11.8468 33.6624 12.1203 34.1361L14.7343 38.6643C14.8658 38.8916 15.0826 39.058 15.3362 39.1254C15.5899 39.1941 15.8609 39.1585 16.0883 39.027L18.3752 37.7068C20.053 39.3713 22.1012 40.5548 24.3716 41.1718L24.3716 43.8092C24.3716 44.3562 24.8156 44.8002 25.3627 44.8002H30.5906C31.1379 44.8002 31.5819 44.3562 31.5819 43.8092V41.1718C33.8524 40.5548 35.9006 39.3713 37.5784 37.7068L39.8653 39.027C40.0927 39.1585 40.3634 39.1936 40.6172 39.1254C40.871 39.058 41.0876 38.8916 41.2191 38.6643L43.833 34.1361C44.1068 33.6624 43.9443 33.0564 43.4703 32.7821ZM36.2364 28.0002C36.2364 32.5178 32.5307 36.1936 27.9767 36.1936C23.4227 36.1936 19.7171 32.5178 19.7171 28.0002C19.7171 23.4826 23.4227 19.8068 27.9767 19.8068C32.5307 19.8068 36.2364 23.4826 36.2364 28.0002Z" fill="#BB2027"/>
<path d="M24.094 23.2639C23.6488 23.3219 23.2986 23.6723 23.2404 24.1176C23.2166 24.2952 22.6967 28.4986 25.0879 30.889C26.7293 32.5312 29.2248 32.8001 30.686 32.8001C31.3525 32.8001 31.8039 32.7439 31.8593 32.7365C32.3048 32.6786 32.655 32.3281 32.7132 31.8829C32.7204 31.8275 32.7765 31.3761 32.7765 30.7088C32.7765 29.2479 32.5071 26.7526 30.8657 25.1114C28.475 22.72 24.2719 23.2401 24.094 23.2639Z" fill="#FFAE03"/>
<path d="M27.9765 23.5342L27.9765 32.4661C28.9806 32.7335 29.9606 32.8001 30.6858 32.8001C31.3523 32.8001 31.8037 32.744 31.8591 32.7365C32.3047 32.6786 32.6548 32.3282 32.713 31.8829C32.7202 31.8275 32.7763 31.3761 32.7763 30.7088C32.7763 29.2479 32.5069 26.7526 30.8655 25.1115C30.0388 24.2845 28.9955 23.8059 27.9765 23.5342Z" fill="#E98145"/>
</g>
<defs>
<clipPath id="clip0_5779_2443">
<rect width="33.6" height="33.6" fill="white" transform="translate(11.2 11.2002)"/>
</clipPath>
</defs>
</svg>
