<svg width="60" height="56" viewBox="0 0 60 56" fill="none" xmlns="http://www.w3.org/2000/svg">
<circle cx="28" cy="28" r="28" fill="#BB2027" fill-opacity="0.1"/>
<g clip-path="url(#clip0_5779_2505)">
<path d="M37.6235 39.5574L32.0622 38.7174C29.3684 38.3119 26.6311 38.3119 23.9446 38.7174L18.376 39.5574C18.2311 39.5791 18.0863 39.5936 17.9415 39.5864C14.1977 39.4415 11.207 35.495 11.207 30.6577C11.1273 29.9336 11.6415 29.2674 12.3656 29.166L43.6339 29.166C44.358 29.2674 44.8722 29.9264 44.7925 30.6577C44.7925 35.495 41.8018 39.4415 38.0653 39.5936C37.9132 39.5936 37.7684 39.5791 37.6235 39.5574Z" fill="#BB2027"/>
<path d="M14.6831 25.6904L41.3169 25.6904C41.6355 25.6904 41.8962 25.9511 41.8962 26.2697V29.1663L14.1038 29.1663V26.2697C14.1038 25.9511 14.3644 25.6904 14.6831 25.6904Z" fill="#E2725B"/>
<path d="M26.8416 16.4287L29.1588 16.4287C34.2785 16.4287 38.4205 20.578 38.4205 25.6904L17.5798 25.6904C17.5798 20.578 21.7219 16.4287 26.8416 16.4287Z" fill="#FFAE03"/>
<path d="M34.3726 28.5868L33.7933 29.1662L33.214 28.5868C32.6202 28.0872 32.3015 27.3413 32.345 26.5665V25.9727C32.3015 25.1979 32.6202 24.452 33.214 23.9524L33.7933 23.373L34.3726 23.9524C34.9664 24.452 35.285 25.1979 35.2415 25.9727V26.5665C35.285 27.3413 34.9591 28.0872 34.3726 28.5868Z" fill="#FDE7E7"/>
<path d="M32.6345 28.587V29.1663H32.0552C31.0993 29.1301 30.1869 28.7753 29.4628 28.1525L29.021 27.7108C28.3983 26.9866 28.0362 26.0742 28 25.1184V24.5391H28.5793C29.5352 24.5753 30.4476 24.9301 31.1717 25.5601L31.6134 26.0018C32.2362 26.7187 32.5983 27.6311 32.6345 28.587Z" fill="#FDE7E7"/>
<path d="M36.6824 36.6968C36.6317 36.6968 36.5883 36.6895 36.5448 36.6823C26.4431 34.155 19.5855 36.6388 19.5131 36.6606C19.2162 36.7692 18.8831 36.6171 18.7672 36.3202C18.6586 36.0233 18.8107 35.6902 19.1076 35.5743C19.3972 35.4657 26.349 32.9385 36.82 35.5526C37.1024 35.625 37.2907 35.893 37.2545 36.1826C37.2255 36.4723 36.9793 36.6968 36.6824 36.6968Z" fill="#FFCFD1"/>
<path d="M35.5235 29.1657H34.9442V28.5864C34.9804 27.6306 35.3352 26.7181 35.9652 25.994L36.407 25.5523C37.1311 24.9295 38.0435 24.5675 38.9994 24.5312H39.5787V25.1106C39.5425 26.0664 39.1877 26.9788 38.5649 27.703L38.1232 28.1447C37.399 28.7747 36.4794 29.1295 35.5235 29.1657Z" fill="#FDE7E7"/>
</g>
<g clip-path="url(#clip1_5779_2505)">
<rect x="39.76" width="20" height="20" rx="10" fill="white"/>
<mask id="mask0_5779_2505" style="mask-type:luminance" maskUnits="userSpaceOnUse" x="40" y="0" width="20" height="20">
<path d="M49.7602 18.3337C50.8548 18.3351 51.9388 18.1202 52.9501 17.7013C53.9613 17.2824 54.8798 16.6678 55.6527 15.8928C56.4277 15.1199 57.0423 14.2014 57.4612 13.1902C57.8801 12.1789 58.095 11.0949 58.0936 10.0003C58.0949 8.90578 57.88 7.82174 57.4612 6.81051C57.0423 5.79928 56.4277 4.88079 55.6527 4.10783C54.8798 3.33284 53.9613 2.71825 52.9501 2.29937C51.9388 1.88049 50.8548 1.66558 49.7602 1.667C48.6657 1.6656 47.5816 1.88052 46.5704 2.2994C45.5592 2.71828 44.6407 3.33286 43.8677 4.10783C43.0928 4.88079 42.4782 5.79928 42.0593 6.81051C41.6404 7.82174 41.4255 8.90578 41.4269 10.0003C41.4255 11.0949 41.6404 12.1789 42.0593 13.1902C42.4781 14.2014 43.0927 15.1199 43.8677 15.8928C44.6407 16.6678 45.5592 17.2824 46.5704 17.7013C47.5816 18.1201 48.6657 18.3351 49.7602 18.3337Z" fill="white" stroke="white" stroke-width="2" stroke-linejoin="round"/>
<path d="M46.4269 10L48.9269 12.5L53.9269 7.5" stroke="black" stroke-width="2" stroke-linecap="round" stroke-linejoin="round"/>
</mask>
<g mask="url(#mask0_5779_2505)">
<path d="M39.76 0H59.76V20H39.76V0Z" fill="#35B572"/>
</g>
</g>
<rect x="40.76" y="1" width="18" height="18" rx="9" stroke="white" stroke-width="2"/>
<defs>
<clipPath id="clip0_5779_2505">
<rect width="33.6" height="33.6" fill="white" transform="translate(11.2 11.2002)"/>
</clipPath>
<clipPath id="clip1_5779_2505">
<rect x="39.76" width="20" height="20" rx="10" fill="white"/>
</clipPath>
</defs>
</svg>
