<svg width="25" height="24" viewBox="0 0 25 24" fill="none" xmlns="http://www.w3.org/2000/svg">
<g clip-path="url(#clip0_4324_11686)">
<path fill-rule="evenodd" clip-rule="evenodd" d="M14.1965 4.90406C13.7745 4.4821 13.2022 4.24505 12.6055 4.24505C12.0087 4.24505 11.4364 4.4821 11.0145 4.90406C10.5925 5.32602 10.3555 5.89831 10.3555 6.49505L10.3555 10.995L14.8555 10.995L14.8555 6.49505C14.8555 5.89831 14.6184 5.32602 14.1965 4.90406ZM15.9805 6.49505L15.9805 10.995C16.5772 10.995 17.1495 11.2321 17.5715 11.6541C17.9934 12.076 18.2305 12.6483 18.2305 13.245L18.2305 18.87C18.2305 19.4668 17.9934 20.0391 17.5715 20.461C17.1495 20.883 16.5772 21.12 15.9805 21.12L9.23047 21.12C8.63373 21.12 8.06143 20.883 7.63948 20.461C7.21752 20.0391 6.98047 19.4668 6.98047 18.87L6.98047 13.245C6.98047 12.6483 7.21752 12.076 7.63948 11.6541C8.06144 11.2321 8.63373 10.995 9.23047 10.995L9.23047 6.49505C9.23047 5.59994 9.58605 4.7415 10.219 4.10856C10.8519 3.47563 11.7104 3.12005 12.6055 3.12005C13.5006 3.12005 14.359 3.47563 14.992 4.10856C15.6249 4.7415 15.9805 5.59994 15.9805 6.49505ZM10.9692 14.7326C10.0313 15.6773 10.0153 17.1988 10.9181 18.1694L11.8388 17.2423L11.8448 19.5707L9.64571 19.4506L10.3406 18.7513C9.11769 17.4574 9.13286 15.4143 10.3897 14.1491C10.9036 13.6292 11.5784 13.2985 12.3042 13.2108L12.3317 14.0398C11.8147 14.1178 11.3368 14.3608 10.9692 14.7326ZM13.577 15.7248L13.571 13.3964L15.7701 13.5162L15.0753 14.2162C16.2981 15.5093 16.283 17.5524 15.0266 18.8184C14.5123 19.338 13.8374 19.6685 13.1116 19.7563L13.0841 18.9277C13.6011 18.8499 14.0791 18.6068 14.4466 18.2349C15.3846 17.291 15.4005 15.7695 14.4977 14.7981L13.577 15.7248Z" fill="#E82827"/>
</g>
<defs>
<clipPath id="clip0_4324_11686">
<rect width="24" height="24" fill="white" transform="translate(0.5 4.95911e-05)"/>
</clipPath>
</defs>
</svg>
