<svg width="17" height="16" viewBox="0 0 17 16" fill="none" xmlns="http://www.w3.org/2000/svg">
<g clip-path="url(#clip0_4572_672)">
<path fill-rule="evenodd" clip-rule="evenodd" d="M9.2066 10.7072C9.0191 10.8945 8.76493 10.9997 8.49993 10.9997C8.23493 10.9997 7.98077 10.8945 7.79327 10.7072L4.02127 6.93658C3.83376 6.74898 3.72845 6.49458 3.72852 6.22934C3.72858 5.9641 3.834 5.70975 4.0216 5.52224C4.2092 5.33474 4.4636 5.22943 4.72884 5.22949C4.99408 5.22955 5.24843 5.33498 5.43593 5.52258L8.49993 8.58658L11.5639 5.52258C11.7525 5.34033 12.005 5.23941 12.2672 5.24157C12.5294 5.24372 12.7803 5.34877 12.9658 5.53409C13.1513 5.71941 13.2565 5.97018 13.2589 6.23238C13.2613 6.49457 13.1607 6.74722 12.9786 6.93591L9.20727 10.7079L9.2066 10.7072Z" fill="#231F20"/>
</g>
<defs>
<clipPath id="clip0_4572_672">
<rect width="16" height="16" fill="white" transform="translate(0.5)"/>
</clipPath>
</defs>
</svg>
