<svg width="16" height="17" viewBox="0 0 16 17" fill="none" xmlns="http://www.w3.org/2000/svg">
<path fill-rule="evenodd" clip-rule="evenodd" d="M8.7066 11.2068C8.5191 11.394 8.26493 11.4992 7.99993 11.4992C7.73493 11.4992 7.48077 11.394 7.29327 11.2068L3.52127 7.43609C3.33376 7.24849 3.22845 6.99409 3.22852 6.72885C3.22858 6.46361 3.334 6.20926 3.5216 6.02176C3.7092 5.83425 3.9636 5.72894 4.22884 5.729C4.49408 5.72907 4.74843 5.83449 4.93593 6.02209L7.99993 9.08609L11.0639 6.02209C11.2525 5.83984 11.505 5.73892 11.7672 5.74108C12.0294 5.74323 12.2803 5.84828 12.4658 6.0336C12.6513 6.21893 12.7565 6.46969 12.7589 6.73189C12.7613 6.99408 12.6607 7.24673 12.4786 7.43542L8.70727 11.2074L8.7066 11.2068Z" fill="white"/>
</svg>
