<svg width="72" height="73" viewBox="0 0 72 73" fill="none" xmlns="http://www.w3.org/2000/svg">
<circle cx="35.9326" cy="36.5" r="35.9326" fill="#F4D4CF"/>
<mask id="mask0_4378_24694" style="mask-type:alpha" maskUnits="userSpaceOnUse" x="0" y="0" width="72" height="73">
<circle cx="35.9326" cy="36.5" r="35.9326" fill="#F4D4CF"/>
</mask>
<g mask="url(#mask0_4378_24694)">
<path d="M56.1939 68.4745L53.7518 56.2097C53.2134 53.5126 51.2502 52.4074 50.1281 51.9886C50.0819 51.9716 43.0522 49.8993 43.0051 49.8854L40.8019 48.3954V46.9964C44.1016 45.2604 46.4794 41.921 46.7336 37.7479C46.7587 37.3338 47.0215 36.9655 47.4137 36.8304C49.71 36.0387 50.7125 33.5594 49.3115 31.6659C49.3163 31.5996 49.3147 28.9548 49.3147 28.8883C49.3144 21.3512 43.1828 15.2195 35.6459 15.2195C28.109 15.2195 21.9771 21.3512 21.9771 28.8882C21.9771 28.9546 21.9754 31.5997 21.9802 31.6659C20.6438 33.4728 21.4948 35.8141 23.5728 36.712C24.1428 36.9583 24.5299 37.5064 24.5872 38.1248C24.9537 42.0776 27.2443 45.2761 30.4602 46.9807V48.4156L28.3096 49.8698C28.2574 49.8852 21.1849 51.9698 21.134 51.9887C20.0116 52.4073 18.0485 53.5125 17.5099 56.2103L15.0678 68.4745C14.8021 69.8123 15.1961 72.4326 18.4577 72.4326H52.804C54.0018 72.4326 54.9152 72.0801 55.5188 71.385C56.1901 70.6119 56.3788 69.3983 56.1939 68.4745Z" fill="#CD888B"/>
</g>
</svg>
