<svg width="21" height="20" viewBox="0 0 21 20" fill="none" xmlns="http://www.w3.org/2000/svg">
<g clip-path="url(#clip0_4519_7874)">
<path fill-rule="evenodd" clip-rule="evenodd" d="M12.4889 2.79192C12.4889 2.74091 12.4687 2.692 12.4326 2.65594C12.3965 2.61987 12.3476 2.59961 12.2966 2.59961L6.91202 2.59961C6.35098 2.59961 5.81292 2.82248 5.41621 3.21919C5.0195 3.6159 4.79663 4.15396 4.79663 4.71499L4.79663 15.4842C4.79663 16.0453 5.0195 16.5833 5.41621 16.98C5.81292 17.3767 6.35098 17.5996 6.91202 17.5996L14.6043 17.5996C15.1654 17.5996 15.7034 17.3767 16.1001 16.98C16.4968 16.5833 16.7197 16.0453 16.7197 15.4842L16.7197 7.90499C16.7197 7.85399 16.6994 7.80508 16.6634 7.76901C16.6273 7.73295 16.5784 7.71269 16.5274 7.71269L13.0659 7.71269C12.9129 7.71269 12.7661 7.6519 12.6579 7.54371C12.5497 7.43552 12.4889 7.28877 12.4889 7.13576L12.4889 2.79192ZM13.0659 10.2919C13.2189 10.2919 13.3656 10.3527 13.4738 10.4609C13.582 10.5691 13.6428 10.7158 13.6428 10.8688C13.6428 11.0218 13.582 11.1686 13.4738 11.2768C13.3656 11.385 13.2189 11.4458 13.0659 11.4458L8.45048 11.4458C8.29747 11.4458 8.15073 11.385 8.04253 11.2768C7.93434 11.1686 7.87355 11.0218 7.87355 10.8688C7.87355 10.7158 7.93434 10.5691 8.04253 10.4609C8.15073 10.3527 8.29747 10.2919 8.45048 10.2919L13.0659 10.2919ZM13.0659 13.3688C13.2189 13.3688 13.3656 13.4296 13.4738 13.5378C13.582 13.646 13.6428 13.7928 13.6428 13.9458C13.6428 14.0988 13.582 14.2455 13.4738 14.3537C13.3656 14.4619 13.2189 14.5227 13.0659 14.5227L8.45048 14.5227C8.29747 14.5227 8.15073 14.4619 8.04253 14.3537C7.93434 14.2455 7.87355 14.0988 7.87355 13.9458C7.87355 13.7928 7.93434 13.646 8.04253 13.5378C8.15073 13.4296 8.29747 13.3688 8.45048 13.3688L13.0659 13.3688Z" fill="#E82827"/>
<path d="M13.6426 3.04149C13.6426 2.89995 13.791 2.80995 13.901 2.89841C13.9941 2.9738 14.078 3.06149 14.1495 3.16149L16.4672 6.38995C16.5195 6.4638 16.4626 6.55918 16.3718 6.55918L13.8349 6.55918C13.7839 6.55918 13.735 6.53892 13.6989 6.50286C13.6628 6.46679 13.6426 6.41788 13.6426 6.36687L13.6426 3.04149Z" fill="#E82827"/>
</g>
<defs>
<clipPath id="clip0_4519_7874">
<rect width="20" height="20" fill="white" transform="translate(0.796631)"/>
</clipPath>
</defs>
</svg>
