<svg width="32" height="33" viewBox="0 0 32 33" fill="none" xmlns="http://www.w3.org/2000/svg">
<g clip-path="url(#clip0_4321_546)">
<path fill-rule="evenodd" clip-rule="evenodd" d="M20.4912 5.88944C18.8459 5.08117 17.0373 4.66053 15.204 4.65991C13.1221 4.65921 11.0758 5.20016 9.26625 6.22961C7.45668 7.25906 5.94607 8.74158 4.88284 10.5315C3.81962 12.3214 3.24036 14.3572 3.20199 16.4387C3.16362 18.5203 3.66745 20.576 4.66399 22.4039L3.24399 27.3839C3.19403 27.5588 3.19269 27.744 3.24014 27.9195C3.28759 28.0951 3.38202 28.2544 3.51326 28.3803C3.64451 28.5062 3.8076 28.5939 3.98499 28.634C4.16238 28.6741 4.34735 28.6651 4.51999 28.6079L9.19599 27.0499C10.7897 27.9709 12.5739 28.5128 14.4106 28.6339C16.2473 28.755 18.0872 28.4519 19.7881 27.7482C21.4889 27.0444 23.005 25.9588 24.2192 24.5754C25.4333 23.1919 26.3129 21.5477 26.79 19.7699C27.267 17.9921 27.3287 16.1284 26.9702 14.323C26.9613 14.2779 26.9521 14.2329 26.9426 14.1879C26.4788 14.3095 25.992 14.3742 25.4901 14.3742C22.3342 14.3742 19.7759 11.8158 19.7759 8.65988C19.7759 7.65465 20.0354 6.71005 20.4912 5.88944ZM11.4969 13.9528C11.3093 14.1403 11.204 14.3947 11.204 14.6599C11.204 14.9251 11.3093 15.1795 11.4969 15.367C11.6844 15.5546 11.9388 15.6599 12.204 15.6599H18.204C18.4692 15.6599 18.7236 15.5546 18.9111 15.367C19.0986 15.1795 19.204 14.9251 19.204 14.6599C19.204 14.3947 19.0986 14.1403 18.9111 13.9528C18.7236 13.7653 18.4692 13.6599 18.204 13.6599H12.204C11.9388 13.6599 11.6844 13.7653 11.4969 13.9528ZM16.204 17.6599H12.204C11.9388 17.6599 11.6844 17.7653 11.4969 17.9528C11.3093 18.1403 11.204 18.3947 11.204 18.6599C11.204 18.9251 11.3093 19.1795 11.4969 19.367C11.6844 19.5546 11.9388 19.6599 12.204 19.6599H16.204C16.4692 19.6599 16.7236 19.5546 16.9111 19.367C17.0986 19.1795 17.204 18.9251 17.204 18.6599C17.204 18.3947 17.0986 18.1403 16.9111 17.9528C16.7236 17.7653 16.4692 17.6599 16.204 17.6599Z" fill="white"/>
<circle cx="25.4704" cy="8.68533" r="3.44388" fill="#FFAE03"/>
</g>
<defs>
<clipPath id="clip0_4321_546">
<rect width="32" height="32" fill="white" transform="translate(0 0.5)"/>
</clipPath>
</defs>
</svg>
