<svg width="100" height="100" viewBox="0 0 100 100" fill="none" xmlns="http://www.w3.org/2000/svg">
<path d="M17 51.125C19.9375 35.125 33.9562 23 50.8063 23C67.6563 23 81.675 35.125 84.6156 51.125C81.6781 67.125 67.6563 79.25 50.8063 79.25C33.9562 79.25 19.9375 67.125 17 51.125ZM50.8063 66.75C54.9503 66.75 58.9245 65.1038 61.8548 62.1735C64.7851 59.2433 66.4313 55.269 66.4313 51.125C66.4313 46.981 64.7851 43.0067 61.8548 40.0765C58.9245 37.1462 54.9503 35.5 50.8063 35.5C46.6622 35.5 42.688 37.1462 39.7577 40.0765C36.8275 43.0067 35.1813 46.981 35.1813 51.125C35.1813 55.269 36.8275 59.2433 39.7577 62.1735C42.688 65.1038 46.6622 66.75 50.8063 66.75ZM50.8063 60.5C48.3198 60.5 45.9353 59.5123 44.1771 57.7541C42.419 55.996 41.4313 53.6114 41.4313 51.125C41.4313 48.6386 42.419 46.254 44.1771 44.4959C45.9353 42.7377 48.3198 41.75 50.8063 41.75C53.2927 41.75 55.6772 42.7377 57.4354 44.4959C59.1935 46.254 60.1813 48.6386 60.1813 51.125C60.1813 53.6114 59.1935 55.996 57.4354 57.7541C55.6772 59.5123 53.2927 60.5 50.8063 60.5Z" fill="#7F8A9A" fill-opacity="0.8"/>
</svg>
