<svg width="24" height="25" viewBox="0 0 24 25" fill="none" xmlns="http://www.w3.org/2000/svg">
<path d="M11.9062 5.28125C12.4533 5.28125 12.9779 5.49855 13.3647 5.88534C13.7515 6.27214 13.9687 6.79674 13.9687 7.34375L13.9687 11.4688L9.84375 11.4688L9.84375 7.34375C9.84375 6.79674 10.061 6.27214 10.4478 5.88534C10.8346 5.49855 11.3592 5.28125 11.9062 5.28125ZM15 11.4688L15 7.34375C15 6.52324 14.6741 5.73633 14.0939 5.15614C13.5137 4.57595 12.7268 4.25 11.9062 4.25C11.0857 4.25 10.2988 4.57595 9.71864 5.15614C9.13845 5.73633 8.8125 6.52324 8.8125 7.34375L8.8125 11.4688C8.26549 11.4688 7.74089 11.686 7.35409 12.0728C6.9673 12.4596 6.75 12.9842 6.75 13.5312L6.75 18.6875C6.75 19.2345 6.9673 19.7591 7.35409 20.1459C7.74089 20.5327 8.26549 20.75 8.8125 20.75L15 20.75C15.547 20.75 16.0716 20.5327 16.4584 20.1459C16.8452 19.7591 17.0625 19.2345 17.0625 18.6875L17.0625 13.5313C17.0625 12.9842 16.8452 12.4596 16.4584 12.0728C16.0716 11.686 15.547 11.4688 15 11.4688Z" fill="#E82827"/>
</svg>
