<svg width="25" height="25" viewBox="0 0 25 25" fill="none" xmlns="http://www.w3.org/2000/svg">
<path fill-rule="evenodd" clip-rule="evenodd" d="M21.38 12.6201C21.38 17.5907 17.3506 21.6201 12.38 21.6201C7.40944 21.6201 3.38 17.5907 3.38 12.6201C3.38 7.64955 7.40944 3.62011 12.38 3.62011C17.3506 3.62011 21.38 7.64955 21.38 12.6201ZM11.0327 15.8668C11.1719 15.9244 11.321 15.954 11.4717 15.9538C11.6223 15.954 11.7715 15.9244 11.9107 15.8667C12.0499 15.8091 12.1763 15.7245 12.2827 15.6178L16.6559 11.2446C16.8691 11.0292 16.9884 10.738 16.9876 10.4349C16.9868 10.1317 16.866 9.84118 16.6516 9.62684C16.4372 9.4125 16.1467 9.29177 15.8435 9.29105C15.5404 9.29034 15.2493 9.40969 15.0339 9.62301L11.4717 13.1862L9.72567 11.4404C9.62051 11.3286 9.49398 11.2391 9.35358 11.1771C9.21317 11.1151 9.06175 11.0819 8.90829 11.0795C8.75482 11.0771 8.60244 11.1056 8.46017 11.1631C8.3179 11.2207 8.18865 11.3063 8.08007 11.4148C7.97148 11.5233 7.88578 11.6524 7.82805 11.7946C7.77031 11.9369 7.74172 12.0892 7.74396 12.2427C7.74619 12.3961 7.77922 12.5476 7.84108 12.6881C7.90294 12.8285 7.99236 12.9551 8.10406 13.0604L10.6609 15.6178C10.7672 15.7245 10.8936 15.8091 11.0327 15.8668Z" fill="#35B572"/>
</svg>
