<svg width="113" height="47" viewBox="0 0 113 47" fill="none" xmlns="http://www.w3.org/2000/svg">
<rect y="0.5" width="113" height="46" rx="8" fill="#E82827"/>
<g clip-path="url(#clip0_4765_7368)">
<path d="M31.3639 29.8109H30.3737C30.1365 29.8109 29.944 29.6184 29.944 29.3812V19.8394C29.944 19.1342 29.3723 18.5625 28.6671 18.5625H28.1907V29.8109H26.6025V16.7892C26.6025 16.2993 26.1049 15.966 25.652 16.1527L20.5909 18.2366C20.1125 18.4337 19.8 18.9001 19.8 19.4174V29.8109V30.4555C19.8 30.8115 20.0886 31.1001 20.4447 31.1001H31.3821C31.7485 31.1001 32.0437 30.7946 32.0259 30.4242C32.0101 30.0778 31.7111 29.8109 31.3639 29.8109ZM25.1613 25.154H24.4816V22.9556L25.1613 22.4599V25.154Z" fill="white"/>
</g>
<path d="M47.7075 25.798C47.7075 26.302 47.5815 26.7687 47.3295 27.198C47.0775 27.618 46.7042 27.9587 46.2095 28.22C45.7149 28.472 45.1129 28.598 44.4035 28.598C43.7035 28.598 43.0782 28.4813 42.5275 28.248C41.9769 28.0053 41.5335 27.66 41.1975 27.212C40.8709 26.764 40.6842 26.2413 40.6375 25.644L42.7375 25.644C42.7842 26.0453 42.9429 26.3813 43.2135 26.652C43.4935 26.9133 43.8622 27.044 44.3195 27.044C44.7302 27.044 45.0429 26.9367 45.2575 26.722C45.4815 26.498 45.5935 26.2133 45.5935 25.868C45.5935 25.56 45.5049 25.308 45.3275 25.112C45.1502 24.9067 44.9262 24.7433 44.6555 24.622C44.3849 24.5007 44.0115 24.3607 43.5355 24.202C42.9195 23.9967 42.4155 23.796 42.0235 23.6C41.6315 23.3947 41.2955 23.1007 41.0155 22.718C40.7449 22.3353 40.6095 21.836 40.6095 21.22C40.6095 20.3707 40.9129 19.7033 41.5195 19.218C42.1355 18.7233 42.9475 18.476 43.9555 18.476C45.0009 18.476 45.8315 18.728 46.4475 19.232C47.0729 19.736 47.4275 20.408 47.5115 21.248L45.3835 21.248C45.3275 20.8933 45.1782 20.604 44.9355 20.38C44.6929 20.1467 44.3615 20.03 43.9415 20.03C43.5775 20.03 43.2835 20.128 43.0595 20.324C42.8355 20.5107 42.7235 20.786 42.7235 21.15C42.7235 21.4393 42.8075 21.682 42.9755 21.878C43.1529 22.0647 43.3722 22.2187 43.6335 22.34C43.9042 22.4613 44.2682 22.5967 44.7255 22.746C45.3602 22.97 45.8735 23.18 46.2655 23.376C46.6669 23.572 47.0075 23.866 47.2875 24.258C47.5675 24.65 47.7075 25.1633 47.7075 25.798ZM48.8537 18.518C48.8537 18.2007 48.9657 17.944 49.1897 17.748C49.4137 17.5427 49.7077 17.44 50.0717 17.44C50.4357 17.44 50.7297 17.5427 50.9537 17.748C51.1777 17.944 51.2897 18.2007 51.2897 18.518C51.2897 18.826 51.1777 19.0827 50.9537 19.288C50.7297 19.484 50.4357 19.582 50.0717 19.582C49.7077 19.582 49.4137 19.484 49.1897 19.288C48.9657 19.0827 48.8537 18.826 48.8537 18.518ZM51.0517 20.744L51.0517 28.5L49.0777 28.5L49.0777 20.744L51.0517 20.744ZM55.7914 20.646C56.4448 20.646 57.0048 20.8 57.4714 21.108C57.9381 21.416 58.2694 21.8313 58.4654 22.354L58.4654 20.744L60.4254 20.744L60.4254 28.528C60.4254 29.2467 60.2808 29.8907 59.9914 30.46C59.7114 31.0387 59.2868 31.4913 58.7174 31.818C58.1574 32.1447 57.4761 32.308 56.6734 32.308C55.5534 32.308 54.6481 32.042 53.9574 31.51C53.2668 30.978 52.8468 30.2547 52.6974 29.34L54.6434 29.34C54.7554 29.732 54.9701 30.0353 55.2874 30.25C55.6141 30.474 56.0294 30.586 56.5334 30.586C57.1121 30.586 57.5788 30.4133 57.9334 30.068C58.2881 29.732 58.4654 29.2187 58.4654 28.528L58.4654 26.876C58.2694 27.3987 57.9381 27.8187 57.4714 28.136C57.0048 28.444 56.4448 28.598 55.7914 28.598C55.1381 28.598 54.5501 28.4393 54.0274 28.122C53.5048 27.8047 53.0941 27.3473 52.7954 26.75C52.5061 26.1433 52.3614 25.434 52.3614 24.622C52.3614 23.81 52.5061 23.1053 52.7954 22.508C53.0941 21.9013 53.5048 21.4393 54.0274 21.122C54.5501 20.8047 55.1381 20.646 55.7914 20.646ZM56.4074 22.368C55.7914 22.368 55.2968 22.5687 54.9234 22.97C54.5501 23.3713 54.3634 23.922 54.3634 24.622C54.3634 25.322 54.5501 25.8727 54.9234 26.274C55.2968 26.666 55.7914 26.862 56.4074 26.862C57.0048 26.862 57.4948 26.6613 57.8774 26.26C58.2694 25.8493 58.4654 25.3033 58.4654 24.622C58.4654 23.9313 58.2694 23.3853 57.8774 22.984C57.4948 22.5733 57.0048 22.368 56.4074 22.368ZM66.7504 20.632C67.6464 20.632 68.3604 20.926 68.8924 21.514C69.4244 22.102 69.6904 22.928 69.6904 23.992L69.6904 28.5L67.7304 28.5L67.7304 24.216C67.7304 23.6 67.5717 23.124 67.2544 22.788C66.937 22.4427 66.503 22.27 65.9524 22.27C65.3924 22.27 64.9444 22.452 64.6084 22.816C64.2724 23.18 64.1044 23.7027 64.1044 24.384L64.1044 28.5L62.1304 28.5L62.1304 20.744L64.1044 20.744L64.1044 22.298C64.3097 21.7753 64.6457 21.3693 65.1124 21.08C65.5884 20.7813 66.1344 20.632 66.7504 20.632ZM77.8921 20.646C78.6481 20.646 79.3248 20.8047 79.9221 21.122C80.5288 21.4393 81.0048 21.9013 81.3501 22.508C81.6954 23.1053 81.8681 23.81 81.8681 24.622C81.8681 25.434 81.6954 26.1387 81.3501 26.736C81.0048 27.3333 80.5288 27.7953 79.9221 28.122C79.3248 28.4393 78.6481 28.598 77.8921 28.598C77.1361 28.598 76.4548 28.4393 75.8481 28.122C75.2508 27.7953 74.7794 27.3333 74.4341 26.736C74.0888 26.1387 73.9161 25.434 73.9161 24.622C73.9161 23.81 74.0888 23.1053 74.4341 22.508C74.7794 21.9013 75.2508 21.4393 75.8481 21.122C76.4548 20.8047 77.1361 20.646 77.8921 20.646ZM77.8921 22.354C77.3414 22.354 76.8748 22.55 76.4921 22.942C76.1094 23.3247 75.9181 23.8847 75.9181 24.622C75.9181 25.3593 76.1094 25.924 76.4921 26.316C76.8748 26.6987 77.3414 26.89 77.8921 26.89C78.4428 26.89 78.9094 26.6987 79.2921 26.316C79.6748 25.924 79.8661 25.3593 79.8661 24.622C79.8661 23.8847 79.6748 23.3247 79.2921 22.942C78.9094 22.55 78.4428 22.354 77.8921 22.354ZM90.5992 20.744L90.5992 28.5L88.6252 28.5L88.6252 26.932C88.4198 27.4547 88.0792 27.8653 87.6032 28.164C87.1365 28.4533 86.5952 28.598 85.9792 28.598C85.0832 28.598 84.3692 28.304 83.8372 27.716C83.3052 27.128 83.0392 26.3067 83.0392 25.252L83.0392 20.744L84.9992 20.744L84.9992 25.028C84.9992 25.644 85.1578 26.1247 85.4752 26.47C85.7925 26.806 86.2218 26.974 86.7632 26.974C87.3325 26.974 87.7852 26.792 88.1212 26.428C88.4572 26.064 88.6252 25.5413 88.6252 24.86L88.6252 20.744L90.5992 20.744ZM96.454 26.806L96.454 28.5L95.418 28.5C94.55 28.5 93.8827 28.29 93.416 27.87C92.9587 27.45 92.73 26.75 92.73 25.77L92.73 22.41L91.652 22.41L91.652 20.744L92.73 20.744L92.73 18.826L94.704 18.826L94.704 20.744L96.44 20.744L96.44 22.41L94.704 22.41L94.704 25.798C94.704 26.1713 94.7787 26.4327 94.928 26.582C95.0773 26.7313 95.3293 26.806 95.684 26.806L96.454 26.806Z" fill="white"/>
<defs>
<clipPath id="clip0_4765_7368">
<rect width="20" height="20" fill="white" transform="translate(16 13.5)"/>
</clipPath>
</defs>
</svg>
