<svg width="18" height="14" viewBox="0 0 18 14" fill="none" xmlns="http://www.w3.org/2000/svg">
<path d="M15.6667 0.333252H2.33341C1.89139 0.333252 1.46746 0.508847 1.1549 0.821407C0.842343 1.13397 0.666748 1.55789 0.666748 1.99992V11.9999C0.666748 12.4419 0.842343 12.8659 1.1549 13.1784C1.46746 13.491 1.89139 13.6666 2.33341 13.6666H15.6667C16.1088 13.6666 16.5327 13.491 16.8453 13.1784C17.1578 12.8659 17.3334 12.4419 17.3334 11.9999V1.99992C17.3334 1.55789 17.1578 1.13397 16.8453 0.821407C16.5327 0.508847 16.1088 0.333252 15.6667 0.333252ZM15.6667 3.86325L9.00008 7.93159L2.33341 3.86325V1.99992H15.6667V3.86325Z" fill="#7F8A9A"/>
</svg>
