<svg width="20" height="20" viewBox="0 0 20 20" fill="none" xmlns="http://www.w3.org/2000/svg">
<g clip-path="url(#clip0_4794_4504)">
<rect width="20" height="20" rx="4" fill="#7F8A9A" fill-opacity="0.16"/>
<path fill-rule="evenodd" clip-rule="evenodd" d="M8.17593 10.4322C8.06328 10.3195 8 10.1667 8 10.0074C8 9.84805 8.06328 9.69525 8.17593 9.58257L11.5751 6.18344C11.6305 6.12605 11.6968 6.08027 11.7701 6.04878C11.8434 6.01729 11.9223 6.00072 12.002 6.00002C12.0818 5.99933 12.1609 6.01453 12.2348 6.04474C12.3086 6.07496 12.3757 6.11957 12.4321 6.17599C12.4886 6.23241 12.5332 6.2995 12.5634 6.37334C12.5936 6.44719 12.6088 6.52631 12.6081 6.60609C12.6074 6.68588 12.5908 6.76472 12.5593 6.83803C12.5279 6.91134 12.4821 6.97764 12.4247 7.03307L9.45037 10.0074L12.4247 12.9817C12.5341 13.095 12.5947 13.2468 12.5933 13.4043C12.592 13.5619 12.5288 13.7126 12.4174 13.824C12.306 13.9354 12.1553 13.9986 11.9977 14C11.8402 14.0013 11.6884 13.9408 11.5751 13.8313L8.17593 10.4322Z" fill="#7F8A9A" fill-opacity="0.5"/>
</g>
<defs>
<clipPath id="clip0_4794_4504">
<rect width="20" height="20" rx="4" fill="white"/>
</clipPath>
</defs>
</svg>
