<svg width="42" height="42" viewBox="0 0 42 42" fill="none" xmlns="http://www.w3.org/2000/svg">
<g clip-path="url(#clip0_4715_12288)">
<g clip-path="url(#clip1_4715_12288)">
<path fill-rule="evenodd" clip-rule="evenodd" d="M13.1113 5.46094H23.6428L32.5685 14.7645V32.8601C32.5685 35.127 30.7346 36.9609 28.4756 36.9609H13.1113C10.8444 36.9609 9.01047 35.127 9.01047 32.8601V9.56175C9.01043 7.29489 10.8444 5.46094 13.1113 5.46094Z" fill="#E82827"/>
<path fill-rule="evenodd" clip-rule="evenodd" d="M23.6345 5.46094V14.6937H32.5681L23.6345 5.46094Z" fill="#ED676A"/>
<path d="M13.5676 28.9647V23.2109H16.0155C16.6216 23.2109 17.1017 23.3762 17.4638 23.7147C17.8259 24.0453 18.0069 24.4939 18.0069 25.0528C18.0069 25.6116 17.8259 26.0603 17.4638 26.3909C17.1017 26.7293 16.6216 26.8946 16.0155 26.8946H15.0395V28.9647H13.5676ZM15.0395 25.6431H15.8502C16.0706 25.6431 16.2438 25.5959 16.3618 25.4857C16.4799 25.3834 16.5429 25.2417 16.5429 25.0528C16.5429 24.8639 16.4799 24.7222 16.3618 24.6199C16.2438 24.5097 16.0706 24.4625 15.8502 24.4625H15.0395V25.6431ZM18.6129 28.9647V23.2109H20.6515C21.053 23.2109 21.4308 23.266 21.785 23.3841C22.1392 23.5022 22.4619 23.6675 22.7452 23.8957C23.0286 24.1161 23.2569 24.4152 23.4222 24.793C23.5796 25.1709 23.6662 25.6038 23.6662 26.0918C23.6662 26.5719 23.5796 27.0048 23.4222 27.3826C23.2569 27.7604 23.0286 28.0595 22.7452 28.2799C22.4619 28.5081 22.1392 28.6734 21.785 28.7915C21.4308 28.9096 21.053 28.9647 20.6515 28.9647H18.6129ZM20.0534 27.7132H20.4784C20.7066 27.7132 20.9192 27.6896 21.1159 27.6345C21.3048 27.5794 21.4859 27.4928 21.659 27.3748C21.8243 27.2567 21.9581 27.0914 22.0526 26.871C22.147 26.6506 22.1943 26.3909 22.1943 26.0918C22.1943 25.7848 22.147 25.525 22.0526 25.3047C21.9581 25.0843 21.8243 24.919 21.659 24.8009C21.4859 24.6829 21.3049 24.5963 21.1159 24.5412C20.9192 24.4861 20.7066 24.4625 20.4784 24.4625H20.0534V27.7132ZM24.4061 28.9647V23.2109H28.499V24.4625H25.8779V25.3833H27.9716V26.627H25.8779V28.9647H24.4061Z" fill="white"/>
</g>
</g>
<defs>
<clipPath id="clip0_4715_12288">
<rect width="42" height="42" fill="white"/>
</clipPath>
<clipPath id="clip1_4715_12288">
<rect width="31.5" height="31.5" fill="white" transform="translate(5.04001 5.46094)"/>
</clipPath>
</defs>
</svg>
