<svg width="37" height="38" viewBox="0 0 37 38" fill="none" xmlns="http://www.w3.org/2000/svg">
<rect width="37" height="38" rx="4" fill="#FDEAEA"/>
<path d="M20.4899 14.1538H24.8233C25.1257 14.1538 25.4249 14.2162 25.7016 14.3369C25.9783 14.4577 26.2266 14.6342 26.4306 14.8552C26.6345 15.0762 26.7897 15.3368 26.8862 15.6204C26.9827 15.9041 27.0184 16.2045 26.9911 16.5026L26.2979 24.0411C26.2487 24.5762 25.9992 25.0739 25.5983 25.4363C25.1975 25.7987 24.6742 25.9998 24.1312 26H12.869C12.326 25.9998 11.8027 25.7987 11.4018 25.4363C11.001 25.0739 10.7515 24.5762 10.7023 24.0411L10.0091 16.5026C9.96274 16.0038 10.0944 15.5046 10.3813 15.0918L10.3388 14.1538C10.3388 13.5826 10.5682 13.0348 10.9763 12.6308C11.3845 12.2269 11.9381 12 12.5153 12H16.5113C17.0885 12.0001 17.642 12.2271 18.0501 12.6311L18.9512 13.5228C19.3592 13.9267 19.9127 14.1537 20.4899 14.1538ZM11.4336 14.2831C11.6665 14.1991 11.9168 14.1538 12.178 14.1538H18.0501L17.2807 13.3925C17.0767 13.1905 16.7999 13.077 16.5113 13.0769H12.5153C12.2303 13.0769 11.9565 13.1875 11.753 13.3851C11.5495 13.5826 11.4325 13.8513 11.4271 14.1334L11.4336 14.2831Z" fill="#E82827"/>
</svg>
