<svg width="208" height="54" viewBox="0 0 208 54" fill="none" xmlns="http://www.w3.org/2000/svg">
<path d="M19.5796 27C19.5796 22.8951 22.916 19.5805 26.9987 19.5805H33.2545C34.4837 19.5805 35.4935 20.5683 35.4935 21.7976C35.4935 22.3902 35.274 22.961 34.8349 23.4C34.4179 23.8171 33.8472 24.0585 33.2545 24.0585H28.4255C25.0452 24.0585 22.3014 26.7805 22.2575 30.139H25.8354C25.8793 28.7561 27.0207 27.6366 28.4035 27.6366H33.2326C34.791 27.6366 36.2617 27.022 37.3592 25.9244C38.4567 24.8049 39.0713 23.3341 39.0494 21.7756C39.0274 18.5927 36.4154 16.0024 33.2326 16.0024H26.9987C20.9185 16.0024 15.9797 20.9415 15.9797 27.022C15.9797 33.1024 20.9185 38.0415 26.9987 38.0415H38.6762V34.4634H26.9987C22.894 34.4195 19.5796 31.0829 19.5796 27Z" fill="#E28E7D"/>
<path d="M57.3519 24.8707V28.5805H44.05V24.8707H57.3519Z" fill="#E82827"/>
<path d="M67.0539 34.4415H74.2755V37.9317H62.6638V16.0244H67.0539V34.4415Z" fill="#E82827"/>
<path d="M92.2966 30.5561H79.5875C79.6972 31.8073 80.1362 32.7951 80.9045 33.4975C81.6727 34.2 82.6385 34.5732 83.758 34.5732C85.3823 34.5732 86.5457 33.8707 87.2481 32.4658H91.9893C91.4845 34.1341 90.5187 35.5171 89.0919 36.5927C87.6651 37.6683 85.9311 38.2171 83.8458 38.2171C82.1776 38.2171 80.663 37.8439 79.346 37.0975C78.007 36.3512 76.9754 35.2975 76.2291 33.9366C75.4828 32.5756 75.1096 31.0171 75.1096 29.239C75.1096 27.439 75.4828 25.8585 76.2071 24.4975C76.9315 23.1366 77.9631 22.0829 79.2802 21.3585C80.5972 20.6341 82.1117 20.261 83.8238 20.261C85.4701 20.261 86.9627 20.6122 88.2578 21.3366C89.5748 22.039 90.5845 23.0488 91.3089 24.3658C92.0332 25.6829 92.3844 27.1756 92.3844 28.8658C92.4283 29.5024 92.3844 30.0512 92.2966 30.5561ZM87.8846 27.6146C87.8627 26.4951 87.4456 25.5732 86.6554 24.8927C85.8652 24.2122 84.8775 23.8829 83.736 23.8829C82.6385 23.8829 81.7386 24.2122 80.9923 24.8707C80.246 25.5292 79.785 26.4512 79.6314 27.6146H87.8846Z" fill="#E82827"/>
<path d="M94.777 24.4975C95.4794 23.1366 96.4233 22.0829 97.6305 21.3585C98.8378 20.6341 100.177 20.261 101.669 20.261C102.964 20.261 104.106 20.5244 105.072 21.0512C106.037 21.578 106.828 22.2366 107.42 23.0268V20.5463H111.854V37.9317H107.42V35.3853C106.85 36.1975 106.081 36.878 105.072 37.4049C104.084 37.9317 102.942 38.1951 101.625 38.1951C100.155 38.1951 98.8378 37.8219 97.6305 37.0756C96.4233 36.3292 95.4794 35.2536 94.777 33.8927C94.0746 32.5317 93.7234 30.9512 93.7234 29.1731C93.7234 27.4171 94.0746 25.8585 94.777 24.4975ZM106.762 26.4951C106.345 25.7268 105.774 25.1561 105.072 24.739C104.369 24.3219 103.601 24.1244 102.789 24.1244C101.977 24.1244 101.23 24.3219 100.528 24.7171C99.8475 25.1122 99.2768 25.7049 98.8597 26.4512C98.4207 27.2195 98.2232 28.1195 98.2232 29.1731C98.2232 30.2268 98.4427 31.1268 98.8597 31.9171C99.2987 32.7073 99.8475 33.3 100.55 33.7171C101.252 34.1341 101.999 34.3536 102.789 34.3536C103.601 34.3536 104.369 34.1561 105.072 33.739C105.774 33.3219 106.345 32.7512 106.762 31.9829C107.179 31.2146 107.398 30.3146 107.398 29.239C107.398 28.1634 107.179 27.2634 106.762 26.4951Z" fill="#E82827"/>
<path d="M121.951 21.0732C122.851 20.5463 123.905 20.2829 125.068 20.2829V24.8927H123.905C122.522 24.8927 121.49 25.222 120.788 25.8585C120.085 26.5171 119.734 27.6366 119.734 29.239V37.9098H115.344V20.5463H119.734V23.2463C120.305 22.3244 121.029 21.6 121.951 21.0732Z" fill="#E82827"/>
<path d="M141.882 22.2585C143.155 23.5756 143.792 25.3976 143.792 27.7244V37.9317H139.402V28.339C139.402 26.9561 139.05 25.9024 138.37 25.1561C137.689 24.4097 136.746 24.0366 135.538 24.0366C134.331 24.0366 133.365 24.4097 132.663 25.1561C131.96 25.9024 131.609 26.9561 131.609 28.339V37.9317H127.219V20.5463H131.609V22.7195C132.202 21.9732 132.948 21.3805 133.848 20.9415C134.748 20.5024 135.758 20.3049 136.855 20.3049C138.941 20.3049 140.609 20.9415 141.882 22.2585Z" fill="#E82827"/>
<path d="M147.479 17.7366C146.975 17.2536 146.711 16.639 146.711 15.8927C146.711 15.1683 146.975 14.5536 147.479 14.0488C147.984 13.5658 148.643 13.3024 149.411 13.3024C150.179 13.3024 150.838 13.5439 151.343 14.0488C151.848 14.5317 152.111 15.1463 152.111 15.8927C152.111 16.6171 151.848 17.2317 151.343 17.7366C150.838 18.2195 150.179 18.4829 149.411 18.4829C148.643 18.4829 148.006 18.2415 147.479 17.7366ZM151.584 20.5463V37.9317H147.194V20.5463H151.584Z" fill="#E82827"/>
<path d="M169.781 22.2585C171.054 23.5756 171.69 25.3976 171.69 27.7244V37.9317H167.3V28.339C167.3 26.9561 166.949 25.9024 166.269 25.1561C165.588 24.4097 164.644 24.0366 163.437 24.0366C162.23 24.0366 161.264 24.4097 160.562 25.1561C159.859 25.9024 159.508 26.9561 159.508 28.339V37.9317H155.118V20.5463H159.508V22.7195C160.101 21.9732 160.847 21.3805 161.747 20.9415C162.647 20.5024 163.657 20.3049 164.754 20.3049C166.839 20.3049 168.508 20.9415 169.781 22.2585Z" fill="#E82827"/>
<path d="M185.321 21.0293C186.309 21.5341 187.077 22.2146 187.648 23.0268V20.5463H192.082V38.0634C192.082 39.6658 191.753 41.1146 191.116 42.3878C190.458 43.661 189.492 44.6488 188.197 45.3951C186.902 46.1415 185.321 46.5146 183.5 46.5146C181.041 46.5146 179 45.9439 177.419 44.7805C175.839 43.639 174.939 42.0585 174.741 40.0829H179.11C179.329 40.8732 179.834 41.5097 180.602 41.9707C181.37 42.4317 182.292 42.6732 183.39 42.6732C184.663 42.6732 185.695 42.3 186.507 41.5317C187.297 40.7634 187.692 39.6219 187.692 38.0634V35.3634C187.121 36.1756 186.353 36.8561 185.343 37.4049C184.356 37.9536 183.214 38.2171 181.941 38.2171C180.47 38.2171 179.131 37.8439 177.924 37.0975C176.717 36.3512 175.751 35.2756 175.049 33.9146C174.346 32.5536 173.995 30.9732 173.995 29.1951C173.995 27.439 174.346 25.8805 175.049 24.5195C175.751 23.1585 176.695 22.1049 177.902 21.3805C179.11 20.6561 180.448 20.2829 181.941 20.2829C183.192 20.261 184.334 20.5244 185.321 21.0293ZM187.012 26.4951C186.595 25.7268 186.024 25.1561 185.321 24.739C184.619 24.3219 183.851 24.1244 183.039 24.1244C182.226 24.1244 181.48 24.3219 180.778 24.7171C180.097 25.1122 179.527 25.7049 179.11 26.4512C178.671 27.2195 178.473 28.1195 178.473 29.1732C178.473 30.2268 178.692 31.1268 179.11 31.9171C179.549 32.7073 180.097 33.3 180.8 33.7171C181.502 34.1341 182.248 34.3536 183.039 34.3536C183.851 34.3536 184.619 34.1561 185.321 33.739C186.024 33.3219 186.595 32.7512 187.012 31.9829C187.429 31.2146 187.648 30.3146 187.648 29.239C187.626 28.1634 187.429 27.2634 187.012 26.4951Z" fill="#E82827"/>
</svg>
