<svg width="17" height="18" viewBox="0 0 17 18" fill="none" xmlns="http://www.w3.org/2000/svg">
<path fill-rule="evenodd" clip-rule="evenodd" d="M1.6505 1.2755C0.625 2.30012 0.625 3.95037 0.625 7.25V10.75C0.625 14.0496 0.625 15.6999 1.6505 16.7245C2.67512 17.75 4.32538 17.75 7.625 17.75H9.375C12.6746 17.75 14.3249 17.75 15.3495 16.7245C16.375 15.6999 16.375 14.0496 16.375 10.75V7.25C16.375 3.95037 16.375 2.30012 15.3495 1.2755C14.3249 0.25 12.6746 0.25 9.375 0.25H7.625C4.32538 0.25 2.67512 0.25 1.6505 1.2755ZM5 6.59375C4.82595 6.59375 4.65903 6.66289 4.53596 6.78596C4.41289 6.90903 4.34375 7.07595 4.34375 7.25C4.34375 7.42405 4.41289 7.59097 4.53596 7.71404C4.65903 7.83711 4.82595 7.90625 5 7.90625H12C12.174 7.90625 12.341 7.83711 12.464 7.71404C12.5871 7.59097 12.6562 7.42405 12.6562 7.25C12.6562 7.07595 12.5871 6.90903 12.464 6.78596C12.341 6.66289 12.174 6.59375 12 6.59375H5ZM5 10.0937C4.82595 10.0937 4.65903 10.1629 4.53596 10.286C4.41289 10.409 4.34375 10.576 4.34375 10.75C4.34375 10.924 4.41289 11.091 4.53596 11.214C4.65903 11.3371 4.82595 11.4062 5 11.4062H9.375C9.54905 11.4062 9.71597 11.3371 9.83904 11.214C9.96211 11.091 10.0312 10.924 10.0312 10.75C10.0312 10.576 9.96211 10.409 9.83904 10.286C9.71597 10.1629 9.54905 10.0937 9.375 10.0937H5Z" fill="#7F8A9A" fill-opacity="0.6"/>
</svg>
