<svg width="36" height="36" viewBox="0 0 36 36" fill="none" xmlns="http://www.w3.org/2000/svg">
<g clip-path="url(#clip0_4633_13098)">
<path d="M17.8641 21.5547C20.6937 21.5547 22.9869 19.2886 22.9869 16.4922L22.9869 9.74219C22.9869 6.94576 20.6937 4.67969 17.8641 4.67969C15.0345 4.67969 12.7414 6.94576 12.7414 9.74219L12.7414 16.4922C12.7414 19.2886 15.0345 21.5547 17.8641 21.5547ZM27.8083 16.4319C27.8083 16.2993 27.6998 16.1908 27.5672 16.1908L25.7592 16.1908C25.6266 16.1908 25.5181 16.2993 25.5181 16.4319C25.5181 20.6597 22.0919 24.0859 17.8641 24.0859C13.6363 24.0859 10.2101 20.6597 10.2101 16.4319C10.2101 16.2993 10.1016 16.1908 9.96903 16.1908L8.16099 16.1908C8.0284 16.1908 7.91992 16.2993 7.91992 16.4319C7.91992 21.5155 11.7349 25.7102 16.6588 26.3038L16.6588 29.3895L12.2803 29.3895C11.8675 29.3895 11.536 29.8204 11.536 30.3538L11.536 31.4386C11.536 31.5712 11.6204 31.6797 11.7228 31.6797L24.0054 31.6797C24.1079 31.6797 24.1922 31.5712 24.1922 31.4386L24.1922 30.3538C24.1922 29.8204 23.8608 29.3895 23.4479 29.3895L18.9489 29.3895L18.9489 26.3189C23.9301 25.7764 27.8083 21.5577 27.8083 16.4319Z" fill="#7F8A9A"/>
</g>
<defs>
<clipPath id="clip0_4633_13098">
<rect width="36" height="36" fill="white"/>
</clipPath>
</defs>
</svg>
