<svg width="56" height="56" viewBox="0 0 56 56" fill="none" xmlns="http://www.w3.org/2000/svg">
<g clip-path="url(#clip0_4045_5819)">
<circle cx="28" cy="28" r="28" fill="#F2F2F2"/>
<path d="M19.4443 16H38.9999C40.1045 16 40.9999 16.8954 40.9999 18V39.5556C40.9999 40.6601 40.1045 41.5556 38.9999 41.5556H19.4443V16Z" fill="#BDBDBD"/>
<path d="M15 20.4444C15 17.9898 16.9898 16 19.4444 16V41.5556C16.9898 41.5556 15 39.5657 15 37.1111V20.4444Z" fill="#E0E0E0"/>
<path d="M15 37.5557C15 35.3465 16.7909 33.5557 19 33.5557H41V41.5557H19C16.7909 41.5557 15 39.7648 15 37.5557Z" fill="#828282"/>
<path d="M17.2222 37.5555C17.2222 36.2055 18.3166 35.1111 19.6666 35.1111H40.9999V40H19.6666C18.3166 40 17.2222 38.9056 17.2222 37.5555Z" fill="white"/>
<path fill-rule="evenodd" clip-rule="evenodd" d="M17.6732 36.1404C17.6609 36.24 17.6545 36.3415 17.6545 36.4445C17.6545 37.7945 18.7489 38.8889 20.099 38.8889H40.9999V40H19.6666C18.3166 40 17.2222 38.9056 17.2222 37.5556C17.2222 37.0282 17.3892 36.5398 17.6732 36.1404Z" fill="#E0E0E0"/>
<rect x="22.3333" y="20" width="15.7778" height="6.66667" fill="white"/>
<path d="M31.8889 37.7778H37V43.7778L34.4445 42.1112L31.8889 43.7778V37.7778Z" fill="#BDBDBD"/>
</g>
<defs>
<clipPath id="clip0_4045_5819">
<rect width="56" height="56" fill="white"/>
</clipPath>
</defs>
</svg>
