<svg width="20" height="20" viewBox="0 0 20 20" fill="none" xmlns="http://www.w3.org/2000/svg">
<path d="M4.80132 15.2844H0.767802C0.444208 15.2844 0.181865 15.5467 0.181865 15.8703V19.4141C0.181865 19.7377 0.444208 20 0.767802 20H5.38729V15.8703C5.38726 15.5467 5.12495 15.2844 4.80132 15.2844ZM10.5927 12.0031H7.14507C6.82147 12.0031 6.55913 12.2655 6.55913 12.5891V20H11.1786V12.5891C11.1786 12.2655 10.9163 12.0031 10.5927 12.0031ZM18.6641 3.16445L19.8449 1.88281C20.0027 1.71172 20.0441 1.46367 19.9508 1.25078C19.9051 1.14645 19.83 1.0577 19.7347 0.995399C19.6394 0.933096 19.5279 0.899943 19.4141 0.9H15.6367V0.585938C15.6367 0.2625 15.3746 0 15.0508 0C14.7274 0 14.4649 0.2625 14.4649 0.585938V7.42188H12.9364C12.6128 7.42188 12.3504 7.68422 12.3504 8.00781V20H17.0695C17.3933 20 17.6555 19.7375 17.6555 19.4141V8.00781C17.6555 7.68437 17.3933 7.42188 17.0695 7.42188H15.6367V5.32539H19.4141C19.6512 5.32539 19.8648 5.18242 19.9555 4.96328C20.0461 4.74414 19.9957 4.4918 19.8277 4.32461L18.6641 3.16445ZM9.94351 5.03066C10.0873 5.32059 10.4388 5.43902 10.7287 5.29527C11.0187 5.15148 11.1371 4.79992 10.9933 4.51C9.93108 2.36793 10.0385 2.58387 10.0231 2.55477C9.96854 2.45154 9.88435 2.367 9.78136 2.31199C9.67837 2.25699 9.56128 2.23404 9.44515 2.24609C9.44351 2.24625 9.44183 2.2466 9.44015 2.2468C9.39222 2.25219 9.52022 2.22707 7.30093 2.6941C6.98425 2.76074 6.78159 3.07148 6.84819 3.38816C6.90628 3.66414 7.14976 3.85355 7.42097 3.85355C7.50253 3.85355 7.44999 3.86031 8.4805 3.64344C7.71214 5.15164 6.7121 6.52609 5.49768 7.74059C4.00929 9.22902 2.27999 10.3959 0.357841 11.2089C0.0597943 11.335 -0.0796198 11.6787 0.0464349 11.9768C0.172568 12.2751 0.516513 12.4142 0.814326 12.2882C2.87616 11.4162 4.73065 10.1649 6.32628 8.56922C7.62679 7.26871 8.69835 5.79664 9.5221 4.18102L9.94351 5.03066Z" fill="#7F8A9A"/>
</svg>
