<svg width="96" height="96" viewBox="0 0 96 96" fill="none" xmlns="http://www.w3.org/2000/svg">
<rect width="96" height="96" rx="6" fill="#E82827" fill-opacity="0.1"/>
<ellipse cx="47.9999" cy="80.3538" rx="23.0718" ry="3.44751" fill="#F6BFBF"/>
<path fill-rule="evenodd" clip-rule="evenodd" d="M0 29.1195C10.2256 19.8093 24.708 15.2283 53.8342 33.6799C70.2232 44.0624 85.1719 44.5163 96 39.9724V6C96 2.68629 93.3137 0 90 0H6C2.68629 0 0 2.68629 0 6V29.1195Z" fill="white"/>
<g clip-path="url(#clip0_4601_12423)">
<path d="M81.9447 8.05854C81.7557 8.05854 81.5744 7.98345 81.4407 7.8498C81.3071 7.71614 81.232 7.53486 81.232 7.34584V5.48614C81.232 5.29712 81.3071 5.11584 81.4407 4.98218C81.5744 4.84853 81.7557 4.77344 81.9447 4.77344C82.1337 4.77344 82.315 4.84853 82.4487 4.98218C82.5823 5.11584 82.6574 5.29712 82.6574 5.48614V7.34584C82.6574 7.53486 82.5823 7.71614 82.4487 7.8498C82.315 7.98345 82.1337 8.05854 81.9447 8.05854ZM88.189 10.6452C88.0479 10.6453 87.91 10.6035 87.7927 10.5251C87.6754 10.4467 87.584 10.3353 87.5301 10.205C87.4761 10.0746 87.4621 9.93119 87.4897 9.79286C87.5174 9.65453 87.5854 9.52751 87.6853 9.42789L89.0005 8.11271C89.0667 8.04651 89.1453 7.99399 89.2318 7.95816C89.3183 7.92234 89.411 7.90389 89.5046 7.90389C89.5982 7.90389 89.691 7.92234 89.7775 7.95816C89.8639 7.99399 89.9425 8.04651 90.0087 8.11271C90.0749 8.17891 90.1275 8.2575 90.1633 8.344C90.1991 8.4305 90.2176 8.52321 90.2176 8.61683C90.2176 8.71045 90.1991 8.80316 90.1633 8.88966C90.1275 8.97616 90.0749 9.05475 90.0087 9.12095L88.6936 10.4361C88.5597 10.5699 88.3782 10.6451 88.189 10.6452ZM92.6353 16.8895H90.7756C90.5866 16.8895 90.4053 16.8144 90.2717 16.6807C90.138 16.5471 90.0629 16.3658 90.0629 16.1768C90.0629 15.9877 90.138 15.8065 90.2717 15.6728C90.4053 15.5391 90.5866 15.464 90.7756 15.464H92.6353C92.8243 15.464 93.0056 15.5391 93.1393 15.6728C93.2729 15.8065 93.348 15.9877 93.348 16.1768C93.348 16.3658 93.2729 16.5471 93.1393 16.6807C93.0056 16.8144 92.8243 16.8895 92.6353 16.8895ZM89.5041 24.4489C89.4105 24.4491 89.3178 24.4308 89.2314 24.3949C89.1449 24.359 89.0664 24.3063 89.0005 24.2398L87.6853 22.9247C87.6191 22.8585 87.5666 22.7799 87.5308 22.6934C87.4949 22.6069 87.4765 22.5142 87.4765 22.4205C87.4765 22.3269 87.4949 22.2342 87.5308 22.1477C87.5666 22.0612 87.6191 21.9826 87.6853 21.9164C87.7515 21.8502 87.8301 21.7977 87.9166 21.7619C88.0031 21.726 88.0958 21.7076 88.1894 21.7076C88.2831 21.7076 88.3758 21.726 88.4623 21.7619C88.5488 21.7977 88.6274 21.8502 88.6936 21.9164L90.0087 23.2316C90.1087 23.3313 90.1768 23.4584 90.2044 23.5968C90.232 23.7352 90.2179 23.8787 90.1638 24.0091C90.1098 24.1395 90.0182 24.2509 89.9008 24.3292C89.7833 24.4075 89.6453 24.4492 89.5041 24.4489ZM74.3852 24.4489C74.2442 24.449 74.1063 24.4072 73.989 24.3288C73.8717 24.2504 73.7803 24.139 73.7264 24.0087C73.6724 23.8783 73.6584 23.7349 73.686 23.5966C73.7137 23.4582 73.7817 23.3312 73.8816 23.2316L75.1968 21.9164C75.263 21.8502 75.3416 21.7977 75.4281 21.7619C75.5146 21.726 75.6073 21.7076 75.7009 21.7076C75.7945 21.7076 75.8872 21.726 75.9737 21.7619C76.0602 21.7977 76.1388 21.8502 76.205 21.9164C76.2712 21.9826 76.3237 22.0612 76.3596 22.1477C76.3954 22.2342 76.4138 22.3269 76.4138 22.4205C76.4138 22.5142 76.3954 22.6069 76.3596 22.6934C76.3237 22.7799 76.2712 22.8585 76.205 22.9247L74.8898 24.2398C74.8237 24.3062 74.745 24.3589 74.6584 24.3948C74.5718 24.4307 74.479 24.4491 74.3852 24.4489ZM73.1138 16.8895H71.2541C71.0651 16.8895 70.8838 16.8144 70.7501 16.6807C70.6165 16.5471 70.5414 16.3658 70.5414 16.1768C70.5414 15.9877 70.6165 15.8065 70.7501 15.6728C70.8838 15.5391 71.0651 15.464 71.2541 15.464H73.1138C73.3028 15.464 73.4841 15.5391 73.6177 15.6728C73.7514 15.8065 73.8265 15.9877 73.8265 16.1768C73.8265 16.3658 73.7514 16.5471 73.6177 16.6807C73.4841 16.8144 73.3028 16.8895 73.1138 16.8895ZM75.7004 10.6452C75.6068 10.6454 75.5141 10.6271 75.4276 10.5912C75.3412 10.5553 75.2627 10.5026 75.1968 10.4361L73.8816 9.12095C73.8154 9.05475 73.7629 8.97616 73.7271 8.88966C73.6912 8.80316 73.6728 8.71045 73.6728 8.61683C73.6728 8.52321 73.6912 8.4305 73.7271 8.344C73.7629 8.2575 73.8154 8.17891 73.8816 8.11271C73.9478 8.04651 74.0264 7.99399 74.1129 7.95816C74.1994 7.92234 74.2921 7.90389 74.3857 7.90389C74.4793 7.90389 74.5721 7.92234 74.6586 7.95816C74.7451 7.99399 74.8236 8.04651 74.8898 8.11271L76.205 9.42789C76.305 9.52757 76.373 9.65468 76.4007 9.7931C76.4283 9.93151 76.4141 10.075 76.3601 10.2054C76.306 10.3358 76.2145 10.4472 76.0971 10.5255C75.9796 10.6038 75.8416 10.6454 75.7004 10.6452ZM88.5966 16.1768C88.5966 18.2294 87.6654 20.1299 86.0594 21.4033C85.4037 21.9164 84.9761 22.5911 84.843 23.3133C84.824 23.3038 84.8145 23.3038 84.7955 23.3038H79.0939C79.0749 23.3038 79.0464 23.3038 79.0273 23.3133C78.8943 22.5626 78.5047 21.9069 77.944 21.4888C75.8724 19.9208 74.9032 17.3551 75.4353 14.7703C75.958 12.2521 78.0011 10.1995 80.5193 9.67686C82.5244 9.24924 84.577 9.74338 86.1354 11.0073C86.9061 11.63 87.5273 12.4178 87.9533 13.3124C88.3792 14.2071 88.5991 15.1859 88.5966 16.1768Z" fill="#FFC107"/>
<path d="M84.843 23.3132C84.8145 23.4748 84.7955 23.6363 84.7955 23.8074V25.917C84.7955 26.8292 84.0448 27.58 83.1325 27.58H80.7568C79.9586 27.58 79.0939 26.9718 79.0939 25.6414V23.9594C79.0939 23.7408 79.0749 23.5223 79.0273 23.3132C79.0463 23.3037 79.0749 23.3037 79.0939 23.3037H84.7955C84.8145 23.3037 84.824 23.3037 84.843 23.3132Z" fill="#607D8B"/>
<path d="M85.5083 16.6518C85.3193 16.6518 85.138 16.5767 85.0043 16.443C84.8707 16.3094 84.7956 16.1281 84.7956 15.9391C84.7951 15.2461 84.5196 14.5817 84.0296 14.0918C83.5396 13.6018 82.8752 13.3263 82.1823 13.3258C81.9933 13.3258 81.812 13.2507 81.6784 13.1171C81.5447 12.9834 81.4696 12.8021 81.4696 12.6131C81.4696 12.4241 81.5447 12.2428 81.6784 12.1091C81.812 11.9755 81.9933 11.9004 82.1823 11.9004C83.253 11.9016 84.2796 12.3276 85.0367 13.0847C85.7938 13.8418 86.2197 14.8683 86.221 15.9391C86.221 16.1281 86.1459 16.3094 86.0122 16.443C85.8786 16.5767 85.6973 16.6518 85.5083 16.6518Z" fill="#FFD54F"/>
</g>
<path d="M33.6047 20.6846H64.5414C67.8551 20.6846 70.5414 23.3709 70.5414 26.6846V59.0885C70.5414 62.4022 67.8551 65.0885 64.5414 65.0885H33.6047V20.6846Z" fill="#BB2027"/>
<path d="M25.9889 28.3004C25.9889 24.0943 29.3986 20.6846 33.6047 20.6846V65.0885C29.3986 65.0885 25.9889 61.6788 25.9889 57.4727V28.3004Z" fill="#E82827"/>
<path d="M25.9889 58.1387C25.9889 54.3002 29.1006 51.1885 32.9391 51.1885H70.5414V65.0889H32.9391C29.1006 65.0889 25.9889 61.9771 25.9889 58.1387Z" fill="#8B141A"/>
<path d="M29.7968 58.138C29.7968 55.7922 31.6984 53.8906 34.0441 53.8906H70.5413V62.3853H34.0441C31.6983 62.3853 29.7968 60.4837 29.7968 58.138Z" fill="white"/>
<path fill-rule="evenodd" clip-rule="evenodd" d="M30.568 55.6973C30.5479 55.8647 30.5376 56.0351 30.5376 56.2079C30.5376 58.5536 32.4392 60.4552 34.7849 60.4552H70.5413V62.3858H34.0441C31.6983 62.3858 29.7968 60.4842 29.7968 58.1385C29.7968 57.2299 30.0821 56.3879 30.568 55.6973Z" fill="#FFD7D7"/>
<rect x="38.5549" y="27.6348" width="27.0361" height="11.5836" fill="white"/>
<path d="M54.929 58.5244H63.6871V68.9497L59.308 66.0538L54.929 68.9497V58.5244Z" fill="#FFAE03"/>
<defs>
<clipPath id="clip0_4601_12423">
<rect width="22.8066" height="22.8066" fill="white" transform="translate(70.5414 4.77344)"/>
</clipPath>
</defs>
</svg>
