<svg width="21" height="20" viewBox="0 0 21 20" fill="none" xmlns="http://www.w3.org/2000/svg">
<path fill-rule="evenodd" clip-rule="evenodd" d="M3.97667 2.64268C3 3.61852 3 5.19018 3 8.33268V11.666C3 14.8085 3 16.3802 3.97667 17.356C4.9525 18.3327 6.52417 18.3327 9.66667 18.3327H11.3333C14.4758 18.3327 16.0475 18.3327 17.0233 17.356C18 16.3802 18 14.8085 18 11.666V8.33268C18 5.19018 18 3.61852 17.0233 2.64268C16.0475 1.66602 14.4758 1.66602 11.3333 1.66602H9.66667C6.52417 1.66602 4.9525 1.66602 3.97667 2.64268ZM7.16667 7.70768C7.00091 7.70768 6.84193 7.77353 6.72472 7.89074C6.60751 8.00795 6.54167 8.16692 6.54167 8.33268C6.54167 8.49844 6.60751 8.65741 6.72472 8.77462C6.84193 8.89183 7.00091 8.95768 7.16667 8.95768H13.8333C13.9991 8.95768 14.1581 8.89183 14.2753 8.77462C14.3925 8.65741 14.4583 8.49844 14.4583 8.33268C14.4583 8.16692 14.3925 8.00795 14.2753 7.89074C14.1581 7.77353 13.9991 7.70768 13.8333 7.70768H7.16667ZM7.16667 11.041C7.00091 11.041 6.84193 11.1069 6.72472 11.2241C6.60751 11.3413 6.54167 11.5003 6.54167 11.666C6.54167 11.8318 6.60751 11.9907 6.72472 12.108C6.84193 12.2252 7.00091 12.291 7.16667 12.291H11.3333C11.4991 12.291 11.6581 12.2252 11.7753 12.108C11.8925 11.9907 11.9583 11.8318 11.9583 11.666C11.9583 11.5003 11.8925 11.3413 11.7753 11.2241C11.6581 11.1069 11.4991 11.041 11.3333 11.041H7.16667Z" fill="#E82827"/>
</svg>
