<svg width="36" height="36" viewBox="0 0 36 36" fill="none" xmlns="http://www.w3.org/2000/svg">
<path d="M17.9957 16.3078C20.3438 16.3078 22.2473 14.4043 22.2473 12.0562C22.2473 9.70818 20.3438 7.80469 17.9957 7.80469C15.6476 7.80469 13.7441 9.70818 13.7441 12.0562C13.7441 14.4043 15.6476 16.3078 17.9957 16.3078Z" fill="#E82827"/>
<path d="M17.9951 24.1789C17.9951 21.6992 19.5607 19.5852 21.7545 18.7695H11.9107C10.3779 18.7695 9.13574 20.0117 9.13574 21.5445V26.8836H18.6701C18.2389 26.0773 17.9951 25.1539 17.9951 24.1789Z" fill="#E82827"/>
<path d="M19.9781 23.2372C20.0156 23.2278 20.0578 23.2138 20.0953 23.2091C20.3859 23.1669 20.6719 23.1247 20.9625 23.0872C21.0422 23.0778 21.0844 23.045 21.1219 22.9747C21.2063 22.8059 21.3094 22.6419 21.4031 22.4778C21.4219 22.4403 21.4359 22.3794 21.4172 22.3372C21.3094 22.0559 21.1969 21.7794 21.0844 21.5028C21.0234 21.3481 21.0469 21.2684 21.1922 21.1841C21.6094 20.9403 22.0312 20.7012 22.4484 20.4575C22.5938 20.3731 22.6734 20.3872 22.7766 20.5184C22.9594 20.7528 23.1422 20.9825 23.325 21.2169C23.3625 21.2684 23.4 21.2825 23.4656 21.2778C23.6578 21.2684 23.8453 21.2684 24.0375 21.2778C24.1219 21.2825 24.1641 21.2591 24.2156 21.1981C24.3938 20.9638 24.5812 20.7341 24.7641 20.4997C24.8578 20.3872 24.9375 20.3684 25.0687 20.4434C25.4906 20.6872 25.9125 20.9263 26.3344 21.17C26.4797 21.2544 26.5031 21.3294 26.4422 21.4887C26.3344 21.7653 26.2219 22.0372 26.1094 22.3138C26.0859 22.3747 26.0859 22.4169 26.1234 22.4778C26.2266 22.6325 26.325 22.7966 26.4047 22.9606C26.4422 23.0403 26.4891 23.0684 26.5687 23.0778C26.85 23.1106 27.1312 23.1575 27.4125 23.195C27.5953 23.2184 27.6422 23.2794 27.6422 23.4622C27.6422 23.9356 27.6422 24.4138 27.6375 24.8872C27.6375 25.0559 27.5859 25.1169 27.4219 25.145C27.1453 25.1872 26.8688 25.2294 26.5875 25.2622C26.4891 25.2762 26.4328 25.3044 26.3859 25.4028C26.3109 25.5669 26.2031 25.7216 26.1188 25.8809C26.1 25.9184 26.0859 25.9794 26.1047 26.0216C26.2125 26.3028 26.325 26.5794 26.4375 26.8559C26.4984 27.0106 26.475 27.0903 26.3297 27.1747C25.9125 27.4184 25.4906 27.6575 25.0734 27.9013C24.9234 27.9856 24.8438 27.9716 24.7359 27.8309C24.5531 27.5966 24.375 27.3622 24.1875 27.1325C24.1641 27.0997 24.1078 27.0809 24.0656 27.0809C23.8688 27.0763 23.6672 27.0809 23.4703 27.0716C23.4 27.0669 23.3625 27.0856 23.3203 27.1372C23.1328 27.3762 22.9453 27.6153 22.7578 27.8544C22.6688 27.9669 22.5844 27.9856 22.4531 27.9106C22.0313 27.6669 21.6094 27.4278 21.1875 27.1841C21.0422 27.0997 21.0188 27.02 21.0797 26.8653C21.1922 26.5888 21.3047 26.3122 21.4125 26.0309C21.4266 25.9934 21.4172 25.9325 21.3984 25.8903C21.3047 25.7122 21.2016 25.5388 21.0938 25.3653C21.0703 25.3278 21.0234 25.2903 20.9813 25.2809C20.6906 25.2341 20.3953 25.1966 20.1047 25.1544C19.9312 25.1309 19.875 25.07 19.875 24.8966C19.875 24.4138 19.875 23.9309 19.8797 23.4481C19.8797 23.3731 19.9219 23.2981 19.9453 23.2278C19.9594 23.2325 19.9688 23.2325 19.9781 23.2372ZM24.4406 25.3466C25.0875 24.9716 25.3078 24.1466 24.9328 23.4997C24.5625 22.8622 23.7328 22.6419 23.0953 23.0075C22.4484 23.3778 22.2281 24.2075 22.5984 24.8497C22.9688 25.4966 23.7938 25.7169 24.4406 25.3466Z" fill="#E82827"/>
</svg>
