<svg width="20" height="20" viewBox="0 0 20 20" fill="none" xmlns="http://www.w3.org/2000/svg">
<g clip-path="url(#clip0_4794_4511)">
<rect width="20" height="20" rx="4" transform="matrix(-1 0 0 1 20 0)" fill="#7F8A9A" fill-opacity="0.16"/>
<path fill-rule="evenodd" clip-rule="evenodd" d="M11.8241 10.4322C11.9367 10.3195 12 10.1667 12 10.0074C12 9.84805 11.9367 9.69525 11.8241 9.58257L8.42494 6.18344C8.36952 6.12605 8.30321 6.08027 8.2299 6.04878C8.1566 6.01729 8.07775 6.00072 7.99797 6.00002C7.91818 5.99933 7.83906 6.01453 7.76522 6.04474C7.69137 6.07496 7.62428 6.11957 7.56786 6.17599C7.51145 6.23241 7.46683 6.2995 7.43662 6.37334C7.40641 6.44719 7.3912 6.52631 7.3919 6.60609C7.39259 6.68588 7.40917 6.76472 7.44066 6.83803C7.47215 6.91134 7.51792 6.97764 7.57531 7.03307L10.5496 10.0074L7.57531 12.9817C7.46586 13.095 7.40529 13.2468 7.40666 13.4043C7.40803 13.5619 7.47123 13.7126 7.58263 13.824C7.69404 13.9354 7.84474 13.9986 8.00229 14C8.15984 14.0013 8.31162 13.9408 8.42494 13.8313L11.8241 10.4322Z" fill="#7F8A9A" fill-opacity="0.5"/>
</g>
<defs>
<clipPath id="clip0_4794_4511">
<rect width="20" height="20" rx="4" transform="matrix(-1 0 0 1 20 0)" fill="white"/>
</clipPath>
</defs>
</svg>
