<svg width="18" height="17" viewBox="0 0 18 17" fill="none" xmlns="http://www.w3.org/2000/svg">
<path d="M14.8334 1.83341H14.0001V1.00008C14.0001 0.500081 13.6667 0.166748 13.1667 0.166748C12.6667 0.166748 12.3334 0.500081 12.3334 1.00008V1.83341H5.66675V1.00008C5.66675 0.500081 5.33341 0.166748 4.83341 0.166748C4.33341 0.166748 4.00008 0.500081 4.00008 1.00008V1.83341H3.16675C1.75008 1.83341 0.666748 2.91675 0.666748 4.33341V5.16675H17.3334V4.33341C17.3334 2.91675 16.2501 1.83341 14.8334 1.83341ZM0.666748 14.3334C0.666748 15.7501 1.75008 16.8334 3.16675 16.8334H14.8334C16.2501 16.8334 17.3334 15.7501 17.3334 14.3334V6.83341H0.666748V14.3334ZM13.1667 8.50008C13.6667 8.50008 14.0001 8.83341 14.0001 9.33341C14.0001 9.83341 13.6667 10.1667 13.1667 10.1667C12.6667 10.1667 12.3334 9.83341 12.3334 9.33341C12.3334 8.83341 12.6667 8.50008 13.1667 8.50008ZM13.1667 11.8334C13.6667 11.8334 14.0001 12.1667 14.0001 12.6667C14.0001 13.1667 13.6667 13.5001 13.1667 13.5001C12.6667 13.5001 12.3334 13.1667 12.3334 12.6667C12.3334 12.1667 12.6667 11.8334 13.1667 11.8334ZM9.00008 8.50008C9.50008 8.50008 9.83341 8.83341 9.83341 9.33341C9.83341 9.83341 9.50008 10.1667 9.00008 10.1667C8.50008 10.1667 8.16675 9.83341 8.16675 9.33341C8.16675 8.83341 8.50008 8.50008 9.00008 8.50008ZM9.00008 11.8334C9.50008 11.8334 9.83341 12.1667 9.83341 12.6667C9.83341 13.1667 9.50008 13.5001 9.00008 13.5001C8.50008 13.5001 8.16675 13.1667 8.16675 12.6667C8.16675 12.1667 8.50008 11.8334 9.00008 11.8334ZM4.83341 8.50008C5.33341 8.50008 5.66675 8.83341 5.66675 9.33341C5.66675 9.83341 5.33341 10.1667 4.83341 10.1667C4.33341 10.1667 4.00008 9.83341 4.00008 9.33341C4.00008 8.83341 4.33341 8.50008 4.83341 8.50008ZM4.83341 11.8334C5.33341 11.8334 5.66675 12.1667 5.66675 12.6667C5.66675 13.1667 5.33341 13.5001 4.83341 13.5001C4.33341 13.5001 4.00008 13.1667 4.00008 12.6667C4.00008 12.1667 4.33341 11.8334 4.83341 11.8334Z" fill="#7F8A9A"/>
</svg>
