<svg width="20" height="20" viewBox="0 0 20 20" fill="none" xmlns="http://www.w3.org/2000/svg">
<path d="M13.1204 12.0336H12.4429L12.2027 11.802C13.0723 10.7935 13.5502 9.50587 13.5492 8.17423C13.5492 7.07167 13.2223 5.99388 12.6097 5.07714C11.9972 4.1604 11.1266 3.44588 10.1079 3.02395C9.0893 2.60202 7.96843 2.49163 6.88706 2.70673C5.80569 2.92182 4.81239 3.45275 4.03277 4.23238C3.25315 5.012 2.72222 6.0053 2.50712 7.08667C2.29202 8.16804 2.40242 9.28891 2.82435 10.3075C3.24628 11.3262 3.96079 12.1968 4.87753 12.8093C5.79427 13.4219 6.87206 13.7488 7.97462 13.7488C9.35541 13.7488 10.6247 13.2428 11.6024 12.4024L11.834 12.6425V13.32L16.1221 17.5996L17.4 16.3217L13.1204 12.0336ZM7.97462 12.0336C5.83911 12.0336 4.11527 10.3097 4.11527 8.17423C4.11527 6.03872 5.83911 4.31488 7.97462 4.31488C10.1101 4.31488 11.834 6.03872 11.834 8.17423C11.834 10.3097 10.1101 12.0336 7.97462 12.0336Z" fill="#7F8A9A" fill-opacity="0.8"/>
</svg>
