<svg width="56" height="56" viewBox="0 0 56 56" fill="none" xmlns="http://www.w3.org/2000/svg">
<circle cx="28" cy="28" r="28" fill="#F2F2F2"/>
<g clip-path="url(#clip0_4921_2483)">
<path d="M22.9545 20.3906H24.9679V23.2843H22.9545V20.3906Z" fill="#BCBCBC"/>
<path d="M31.0198 20.3906H33.0332V23.2979H31.0198V20.3906Z" fill="#BCBCBC"/>
<path d="M27.9938 23.5252C27.4378 23.5252 26.9872 23.0746 26.9872 22.5188V18.649C26.9872 18.0932 27.4378 17.6426 27.9938 17.6426C28.5499 17.6426 29.0005 18.0932 29.0005 18.649V22.5188C29.0005 23.0746 28.5499 23.5252 27.9938 23.5252Z" fill="#BCBCBC"/>
<path d="M23.3014 21.4333C22.3409 21.4333 20.7392 21.2474 19.6436 20.1518C18.0799 18.5881 18.3693 15.9941 18.4072 15.7034C18.4664 15.2515 18.8222 14.8957 19.2744 14.8362C19.5651 14.7982 22.1591 14.5091 23.7228 16.0726C25.2863 17.6363 24.9971 20.2303 24.959 20.521C24.8997 20.9729 24.5439 21.3287 24.092 21.3879C24.0048 21.3995 23.7116 21.4333 23.3014 21.4333Z" fill="#DCDCDC"/>
<path d="M32.6859 21.4342C32.2757 21.4342 31.9825 21.4003 31.8956 21.3891C31.4436 21.3296 31.0878 20.9738 31.0286 20.5218C30.9904 20.2311 30.701 17.6372 32.2647 16.0734C33.8284 14.51 36.4224 14.7991 36.7131 14.8373C37.165 14.8965 37.5208 15.2524 37.5803 15.7043C37.6183 15.995 37.9077 18.589 36.344 20.1527C35.2481 21.2483 33.6464 21.4342 32.6859 21.4342Z" fill="#DCDCDC"/>
<path d="M27.9936 19.6561C27.7773 19.6561 27.5612 19.5866 27.3805 19.4477C27.148 19.2693 25.1092 17.6394 25.1092 15.4281C25.1092 13.2166 27.148 11.587 27.3805 11.4086C27.7422 11.1307 28.2451 11.1307 28.6068 11.4086C28.8391 11.587 30.8781 13.2169 30.8781 15.4281C30.8781 17.6394 28.8391 19.2693 28.6068 19.4477C28.4258 19.5866 28.2097 19.6561 27.9936 19.6561Z" fill="#DCDCDC"/>
<path d="M27.9938 44.8002C21.6646 44.8002 16.5156 39.6512 16.5156 33.322C16.5156 26.993 21.6646 21.8438 27.9938 21.8438C34.3228 21.8438 39.4721 26.993 39.4721 33.322C39.4721 39.6512 34.3228 44.8002 27.9938 44.8002Z" fill="#D2D2D2"/>
<path d="M35.208 33.3216C35.208 37.306 31.978 40.5357 27.9938 40.5357C24.0097 40.5357 20.7797 37.306 20.7797 33.3216C20.7797 29.3374 24.0097 26.1074 27.9938 26.1074C31.978 26.1074 35.208 29.3374 35.208 33.3216Z" fill="#F1F1F1"/>
</g>
<defs>
<clipPath id="clip0_4921_2483">
<rect width="33.6" height="33.6" fill="white" transform="translate(11.2 11.2002)"/>
</clipPath>
</defs>
</svg>
