<svg width="76" height="77" viewBox="0 0 76 77" fill="none" xmlns="http://www.w3.org/2000/svg">
<rect opacity="0.1" y="0.5" width="76" height="76" rx="6" fill="#E82827"/>
<g clip-path="url(#clip0_4529_10325)">
<path d="M18.8486 24.291H58.3871V52.0922H18.8486V24.291Z" fill="#ECF4FF"/>
<path d="M46.6492 52.0921V57.034C46.6492 57.7142 45.3631 57.6428 44.5691 57.6428L30.8891 57.6289C30.095 57.6289 29.3511 57.7142 29.3511 57.034V52.0921C29.3511 51.4119 29.9939 50.8613 30.7879 50.8613H45.2123C46.0064 50.8613 46.6492 51.4119 46.6492 52.0921Z" fill="#231F20"/>
<path d="M46.6491 52.0921V57.034C46.6491 57.7142 45.9826 57.7824 45.1885 57.7824L38 57.9221V50.8613H45.2122C46.0063 50.8613 46.6491 51.4119 46.6491 52.0921Z" fill="#231F20"/>
<path d="M51.5868 57.0345C51.5868 57.7147 51.0354 58.2652 50.3561 58.2652H25.6441C24.9647 58.2652 24.4133 57.7147 24.4133 57.0345C24.4133 56.3551 24.9647 55.8037 25.6441 55.8037H38.0001L47.5232 56.6517C48.2026 56.6517 51.5868 56.3551 51.5868 57.0345Z" fill="#7F8A9A"/>
<path d="M51.5867 57.0345C51.5867 57.7147 51.0354 58.2652 50.356 58.2652H38V55.8037H50.356C51.0354 55.8037 51.5867 56.3551 51.5867 57.0345Z" fill="#7F8A9A"/>
<path d="M59 24.2913V52.0925C59 52.7719 58.4486 53.3232 57.7692 53.3232H18.2308C17.5514 53.3232 17 52.7719 17 52.0925V24.2913C17 23.6111 17.5514 23.0605 18.2308 23.0605H25.644C26.3234 23.0605 26.8748 23.6111 26.8748 24.2913C26.8748 24.9707 26.3234 25.5221 25.644 25.5221H19.4615V50.8617H56.5385V25.5221H50.9738C50.2944 25.5221 49.7431 24.9707 49.7431 24.2913C49.7431 23.6111 50.2944 23.0605 50.9738 23.0605H57.7692C58.4486 23.0605 59 23.6111 59 24.2913Z" fill="#7F8A9A"/>
<path d="M59 24.2913V52.0925C59 52.7719 58.4486 53.3232 57.7692 53.3232H38V50.8617H56.5385V25.5221H50.9738C50.2944 25.5221 49.7431 24.9707 49.7431 24.2913C49.7431 23.6111 50.2944 23.0605 50.9738 23.0605H57.7692C58.4486 23.0605 59 23.6111 59 24.2913Z" fill="#7F8A9A"/>
<path d="M47.2618 25.9387V31.7044C47.2618 32.2139 46.9483 32.6701 46.4724 32.8531L37.9999 36.0244C37.6728 36.0244 37.7974 36.0267 29.5265 32.8531C29.2944 32.7638 29.0948 32.6062 28.9541 32.4011C28.8133 32.196 28.738 31.9531 28.738 31.7044V25.805C28.738 25.1256 29.2894 24.5742 29.9688 24.5742C30.6482 24.5742 31.1996 25.1256 31.1996 25.805C31.1996 25.8226 30.5919 25.8106 44.8011 25.9289C44.806 25.2536 45.3549 24.708 46.031 24.708C46.7104 24.708 47.2618 25.2593 47.2618 25.9387Z" fill="#8495AC"/>
<path d="M47.2619 25.9388V31.7045C47.2619 32.214 46.9484 32.6702 46.4725 32.8532C38.2322 36.0267 38.3243 36.0244 38 36.0244V25.8723L44.8012 25.9289C44.8061 25.2536 45.355 24.708 46.0311 24.708C46.7105 24.708 47.2619 25.2594 47.2619 25.9388Z" fill="#455873"/>
<path d="M52.0692 24.1758V32.8247C52.0692 33.5049 51.5178 34.0555 50.8385 34.0555C50.1591 34.0555 49.6077 33.5049 49.6077 32.8247L50.1251 24.9728L37.8646 29.7314C37.5643 29.7314 37.6883 29.7325 25.1025 25.3376C24.0059 24.9533 24.0058 23.3983 25.1025 23.0139C37.6726 18.6163 37.5641 18.6201 37.8646 18.6201L49.8877 23.5063C50.3906 23.6737 52.0692 23.6457 52.0692 24.1758Z" fill="#435670"/>
<path d="M52.2046 24.291V32.9399C52.2046 33.6201 51.6532 34.1707 50.9738 34.1707C50.2944 34.1707 49.7431 33.6201 49.7431 32.9399V25.9985C38.2531 29.8504 38.2885 29.8466 38 29.8466V18.7354C38.2861 18.7354 38.1523 18.7354 51.3627 23.1234C51.6079 23.205 51.8212 23.3616 51.9723 23.5712C52.1234 23.7808 52.2047 24.0326 52.2046 24.291Z" fill="#2E3D50"/>
<path d="M28.1152 39.7412H23.1729C22.4932 39.7412 21.9421 40.2923 21.9421 40.972V45.9143C21.9421 46.594 22.4932 47.145 23.1729 47.145H28.1152C28.7949 47.145 29.346 46.594 29.346 45.9143V40.972C29.346 40.2923 28.7949 39.7412 28.1152 39.7412Z" fill="#E82827"/>
<path d="M54.058 40.972C54.058 41.6513 53.5066 42.2027 52.8272 42.2027H33.0572C32.3778 42.2027 31.8264 41.6513 31.8264 40.972C31.8264 40.2918 32.3778 39.7412 33.0572 39.7412H52.8272C53.5066 39.7412 54.058 40.2918 54.058 40.972ZM54.058 45.9139C54.058 46.5941 53.5066 47.1446 52.8272 47.1446H33.0572C32.3778 47.1446 31.8264 46.5941 31.8264 45.9139C31.8264 45.2345 32.3778 44.6831 33.0572 44.6831H52.8272C53.5066 44.6831 54.058 45.2345 54.058 45.9139Z" fill="#01C1F0"/>
</g>
<defs>
<clipPath id="clip0_4529_10325">
<rect width="42" height="42" fill="white" transform="translate(17 17.5)"/>
</clipPath>
</defs>
</svg>
