<svg width="24" height="25" viewBox="0 0 24 25" fill="none" xmlns="http://www.w3.org/2000/svg">
<g clip-path="url(#clip0_4478_11021)">
<path d="M17.3401 5.42012L16.4401 5.42012V4.52012C16.4401 4.28142 16.3453 4.0525 16.1765 3.88372C16.0077 3.71494 15.7788 3.62012 15.5401 3.62012C15.3014 3.62012 15.0725 3.71494 14.9037 3.88372C14.7349 4.0525 14.6401 4.28142 14.6401 4.52012L14.6401 5.42012L9.24009 5.42012L9.24009 4.52012C9.24009 4.28142 9.14527 4.0525 8.97648 3.88372C8.8077 3.71494 8.57878 3.62012 8.34009 3.62012C8.10139 3.62012 7.87247 3.71494 7.70369 3.88372C7.53491 4.0525 7.44009 4.28142 7.44009 4.52012L7.44009 5.42012L6.54009 5.42012C5.824 5.42012 5.13725 5.70458 4.6309 6.21093C4.12455 6.71728 3.84009 7.40403 3.84009 8.12012L3.84009 18.9201C3.84009 19.6362 4.12455 20.323 4.6309 20.8293C5.13725 21.3357 5.824 21.6201 6.54009 21.6201L17.3401 21.6201C18.0562 21.6201 18.7429 21.3357 19.2493 20.8293C19.7556 20.323 20.0401 19.6362 20.0401 18.9201L20.0401 8.12012C20.0401 7.40403 19.7556 6.71728 19.2493 6.21093C18.7429 5.70458 18.0562 5.42012 17.3401 5.42012ZM8.34009 17.1201C8.16208 17.1201 7.98808 17.0673 7.84007 16.9684C7.69207 16.8695 7.57671 16.729 7.5086 16.5645C7.44048 16.4001 7.42265 16.2191 7.45738 16.0445C7.49211 15.87 7.57782 15.7096 7.70369 15.5837C7.82956 15.4579 7.98992 15.3721 8.16451 15.3374C8.33909 15.3027 8.52005 15.3205 8.6845 15.3886C8.84896 15.4567 8.98952 15.5721 9.08841 15.7201C9.1873 15.8681 9.24009 16.0421 9.24009 16.2201C9.24009 16.4588 9.14527 16.6877 8.97648 16.8565C8.8077 17.0253 8.57878 17.1201 8.34009 17.1201ZM15.5401 17.1201L11.9401 17.1201C11.7014 17.1201 11.4725 17.0253 11.3037 16.8565C11.1349 16.6877 11.0401 16.4588 11.0401 16.2201C11.0401 15.9814 11.1349 15.7525 11.3037 15.5837C11.4725 15.4149 11.7014 15.3201 11.9401 15.3201L15.5401 15.3201C15.7788 15.3201 16.0077 15.4149 16.1765 15.5837C16.3453 15.7525 16.4401 15.9814 16.4401 16.2201C16.4401 16.4588 16.3453 16.6877 16.1765 16.8565C16.0077 17.0253 15.7788 17.1201 15.5401 17.1201ZM18.2401 11.7201L5.64009 11.7201L5.64009 8.12012C5.64009 7.88142 5.73491 7.6525 5.90369 7.48372C6.07247 7.31494 6.30139 7.22012 6.54009 7.22012L7.44009 7.22012L7.44009 8.12012C7.44009 8.35881 7.53491 8.58773 7.70369 8.75651C7.87247 8.9253 8.10139 9.02012 8.34009 9.02012C8.57878 9.02012 8.8077 8.9253 8.97648 8.75651C9.14527 8.58773 9.24009 8.35881 9.24009 8.12012L9.24009 7.22012L14.6401 7.22012L14.6401 8.12012C14.6401 8.35881 14.7349 8.58773 14.9037 8.75651C15.0725 8.9253 15.3014 9.02012 15.5401 9.02012C15.7788 9.02012 16.0077 8.9253 16.1765 8.75651C16.3453 8.58773 16.4401 8.35881 16.4401 8.12012L16.4401 7.22012L17.3401 7.22012C17.5788 7.22012 17.8077 7.31494 17.9765 7.48372C18.1453 7.6525 18.2401 7.88142 18.2401 8.12012L18.2401 11.7201Z" fill="#E82827"/>
</g>
<defs>
<clipPath id="clip0_4478_11021">
<rect width="24" height="24" fill="white" transform="translate(0 0.5)"/>
</clipPath>
</defs>
</svg>
