<svg width="30" height="30" viewBox="0 0 30 30" fill="none" xmlns="http://www.w3.org/2000/svg">
<path fill-rule="evenodd" clip-rule="evenodd" d="M13.2325 2.62488C13.6749 2.18297 14.267 1.92295 14.8918 1.8961C15.5166 1.86926 16.1287 2.07755 16.6075 2.47988L16.7675 2.62613L19.1425 4.99988H22.5C23.1305 5 23.7376 5.23834 24.1999 5.66718C24.6621 6.09601 24.9452 6.68365 24.9925 7.31238L25 7.49988V10.8574L27.375 13.2324C27.8172 13.6749 28.0775 14.2672 28.1043 14.8923C28.1312 15.5174 27.9227 16.1298 27.52 16.6086L27.3737 16.7674L24.9987 19.1424V22.4999C24.9989 23.1306 24.7607 23.7381 24.3318 24.2006C23.903 24.663 23.3152 24.9463 22.6862 24.9936L22.5 24.9999H19.1437L16.7687 27.3749C16.3262 27.8171 15.7339 28.0774 15.1088 28.1042C14.4837 28.1311 13.8713 27.9226 13.3925 27.5199L13.2337 27.3749L10.8587 24.9999H7.49996C6.86924 25.0001 6.26175 24.7619 5.79928 24.333C5.3368 23.9041 5.05352 23.3163 5.00621 22.6874L4.99996 22.4999V19.1424L2.62496 16.7674C2.18271 16.3248 1.92246 15.7325 1.89561 15.1075C1.86877 14.4824 2.07728 13.87 2.47996 13.3911L2.62496 13.2324L4.99996 10.8574V7.49988C5.00008 6.86938 5.23843 6.2622 5.66726 5.79999C6.09609 5.33778 6.68373 5.05467 7.31246 5.00738L7.49996 4.99988H10.8575L13.2325 2.62488ZM18.8487 11.2286L13.5437 16.5336L11.3337 14.3236C11.0992 14.0892 10.7811 13.9576 10.4495 13.9578C10.1179 13.9579 9.79997 14.0897 9.56559 14.3243C9.3312 14.5588 9.19959 14.8769 9.19971 15.2084C9.19983 15.54 9.33166 15.858 9.56621 16.0924L12.5712 19.0974C12.6989 19.2251 12.8505 19.3265 13.0174 19.3956C13.1842 19.4648 13.3631 19.5003 13.5437 19.5003C13.7243 19.5003 13.9032 19.4648 14.0701 19.3956C14.2369 19.3265 14.3885 19.2251 14.5162 19.0974L20.6162 12.9961C20.8439 12.7604 20.9699 12.4446 20.9671 12.1169C20.9642 11.7891 20.8327 11.4756 20.601 11.2439C20.3692 11.0121 20.0557 10.8806 19.728 10.8778C19.4002 10.8749 19.0845 11.0009 18.8487 11.2286Z" fill="#35B572"/>
</svg>
