<svg width="195" height="126" viewBox="0 0 195 126" fill="none" xmlns="http://www.w3.org/2000/svg">
<path d="M0 6.00001C0 2.6863 2.68629 0 6 0H189C192.314 0 195 2.68629 195 6V125.29H0V6.00001Z" fill="#231F20"/>
<rect x="61" y="27" width="72" height="72" rx="6" fill="#E82827"/>
<mask id="mask0_4005_6194" style="mask-type:luminance" maskUnits="userSpaceOnUse" x="82" y="41" width="30" height="22">
<path d="M83.6667 54.6654C83.6667 54.3117 83.8072 53.9726 84.0572 53.7226C84.3073 53.4725 84.6464 53.332 85 53.332H87.6667V61.332H85C84.6464 61.332 84.3073 61.1916 84.0572 60.9415C83.8072 60.6915 83.6667 60.3523 83.6667 59.9987V54.6654ZM106.333 53.332H109C109.354 53.332 109.693 53.4725 109.943 53.7226C110.193 53.9726 110.333 54.3117 110.333 54.6654V59.9987C110.333 60.3523 110.193 60.6915 109.943 60.9415C109.693 61.1916 109.354 61.332 109 61.332H106.333V53.332Z" fill="white"/>
<path d="M87.6667 59.9993V51.9993C87.6667 46.8447 91.8454 42.666 97 42.666C102.155 42.666 106.333 46.8447 106.333 51.9993V59.9993M87.6667 53.3327H85C84.6464 53.3327 84.3073 53.4732 84.0572 53.7232C83.8072 53.9733 83.6667 54.3124 83.6667 54.666V59.9993C83.6667 60.353 83.8072 60.6921 84.0572 60.9422C84.3073 61.1922 84.6464 61.3327 85 61.3327H87.6667V53.3327ZM106.333 53.3327H109C109.354 53.3327 109.693 53.4732 109.943 53.7232C110.193 53.9733 110.333 54.3124 110.333 54.666V59.9993C110.333 60.353 110.193 60.6921 109.943 60.9422C109.693 61.1922 109.354 61.3327 109 61.3327H106.333V53.3327Z" stroke="white" stroke-width="2" stroke-linecap="round" stroke-linejoin="round"/>
<path d="M91.6667 57.332H94.3334L95.6667 53.332L98.3334 61.332L99.6667 57.332H102.333" stroke="white" stroke-width="2" stroke-linecap="round" stroke-linejoin="round"/>
</mask>
<g mask="url(#mask0_4005_6194)">
<path d="M81 36H113V68H81V36Z" fill="white"/>
</g>
<path d="M92.9 76.624V85H91.22V79.156L89.072 85H87.608L85.46 79.18V85H83.768V76.624H85.82L88.364 82.924L90.86 76.624H92.9ZM99.5921 83.296H96.1961L95.5961 85H93.8081L96.9281 76.624H98.8601L101.968 85H100.18L99.5921 83.296ZM99.1361 82.012L97.8881 78.436L96.6401 82.012H99.1361ZM104.069 76.528L106.337 83.236L108.617 76.528H110.429L107.429 85H105.257L102.257 76.528H104.069Z" fill="white"/>
</svg>
