<svg width="182" height="182" viewBox="0 0 182 182" fill="none" xmlns="http://www.w3.org/2000/svg">
<circle cx="91" cy="91" r="91" fill="#1F7EF1"/>
<g clip-path="url(#clip0_4823_8847)">
<path d="M43.8054 55.9844H141.24V124.494H43.8054V55.9844Z" fill="#ECF4FF"/>
<path d="M112.314 124.495V136.673C112.314 138.349 109.145 138.173 107.188 138.173L73.4764 138.139C71.5196 138.139 69.6863 138.349 69.6863 136.673V124.495C69.6863 122.819 71.2703 121.462 73.2271 121.462H108.773C110.73 121.462 112.314 122.819 112.314 124.495Z" fill="#231F20"/>
<path d="M112.314 124.495V136.673C112.314 138.349 110.671 138.518 108.715 138.518L91 138.862V121.462H108.773C110.73 121.462 112.314 122.819 112.314 124.495Z" fill="#231F20"/>
<path d="M124.482 136.674C124.482 138.35 123.123 139.707 121.449 139.707H60.5512C58.8771 139.707 57.5183 138.35 57.5183 136.674C57.5183 134.999 58.8771 133.641 60.5512 133.641H90.9999L114.468 135.73C116.142 135.73 124.482 134.999 124.482 136.674Z" fill="#7F8A9A"/>
<path d="M124.482 136.674C124.482 138.35 123.123 139.707 121.449 139.707H91V133.641H121.449C123.123 133.641 124.482 134.999 124.482 136.674Z" fill="#7F8A9A"/>
<path d="M142.75 55.9851V124.495C142.75 126.169 141.391 127.528 139.717 127.528H42.2829C40.6088 127.528 39.25 126.169 39.25 124.495V55.9851C39.25 54.3089 40.6088 52.9521 42.2829 52.9521H60.5513C62.2255 52.9521 63.5843 54.3089 63.5843 55.9851C63.5843 57.6593 62.2255 59.018 60.5513 59.018H45.3159V121.462H136.684V59.018H122.971C121.297 59.018 119.938 57.6593 119.938 55.9851C119.938 54.3089 121.297 52.9521 122.971 52.9521H139.717C141.391 52.9521 142.75 54.3089 142.75 55.9851Z" fill="#7F8A9A"/>
<path d="M142.75 55.9851V124.495C142.75 126.169 141.391 127.528 139.717 127.528H91V121.462H136.684V59.018H122.971C121.297 59.018 119.938 57.6593 119.938 55.9851C119.938 54.3089 121.297 52.9521 122.971 52.9521H139.717C141.391 52.9521 142.75 54.3089 142.75 55.9851Z" fill="#7F8A9A"/>
<path d="M113.824 60.0451V74.2534C113.824 75.5091 113.051 76.6333 111.879 77.0842L90.9999 84.899C90.1937 84.899 90.5009 84.9047 70.1191 77.0842C69.5471 76.864 69.0553 76.4756 68.7084 75.9703C68.3615 75.465 68.1759 74.8664 68.176 74.2534V59.7156C68.176 58.0414 69.5348 56.6826 71.209 56.6826C72.8831 56.6826 74.2419 58.0414 74.2419 59.7156C74.2419 59.759 72.7444 59.7293 107.76 60.0209C107.772 58.3568 109.125 57.0122 110.791 57.0122C112.465 57.0122 113.824 58.371 113.824 60.0451Z" fill="#8495AC"/>
<path d="M113.824 60.0447V74.253C113.824 75.5086 113.051 76.6328 111.879 77.0837C91.5722 84.9042 91.7993 84.8986 91 84.8986V59.8809L107.76 60.0204C107.772 58.3563 109.125 57.0117 110.791 57.0117C112.465 57.0117 113.824 58.3705 113.824 60.0447Z" fill="#455873"/>
<path d="M125.67 55.7004V77.0139C125.67 78.6901 124.312 80.0468 122.638 80.0468C120.963 80.0468 119.605 78.6901 119.605 77.0139L120.88 57.6646L90.6663 69.3911C89.9261 69.3911 90.2318 69.394 59.2168 58.5635C56.5144 57.6165 56.5142 53.7846 59.2168 52.8374C90.1932 42.0005 89.9257 42.0098 90.6663 42.0098L120.294 54.0507C121.534 54.4632 125.67 54.3943 125.67 55.7004Z" fill="#435670"/>
<path d="M126.004 55.9846V77.2981C126.004 78.9743 124.645 80.331 122.971 80.331C121.297 80.331 119.938 78.9743 119.938 77.2981V60.1923C91.6238 69.6846 91.7109 69.6753 91 69.6753V42.2939C91.7051 42.2939 91.3753 42.2939 123.93 53.1074C124.534 53.3083 125.059 53.6944 125.432 54.2109C125.804 54.7273 126.004 55.3479 126.004 55.9846Z" fill="#2E3D50"/>
<path d="M66.6412 94.0576H54.4619C52.7869 94.0576 51.429 95.4156 51.429 97.0906V109.27C51.429 110.945 52.7869 112.303 54.4619 112.303H66.6412C68.3161 112.303 69.6741 110.945 69.6741 109.27V97.0906C69.6741 95.4156 68.3161 94.0576 66.6412 94.0576Z" fill="#E82827"/>
<path d="M130.572 97.0915C130.572 98.7657 129.213 100.124 127.539 100.124H78.8198C77.1456 100.124 75.7869 98.7657 75.7869 97.0915C75.7869 95.4153 77.1456 94.0586 78.8198 94.0586H127.539C129.213 94.0586 130.572 95.4153 130.572 97.0915ZM130.572 109.27C130.572 110.946 129.213 112.303 127.539 112.303H78.8198C77.1456 112.303 75.7869 110.946 75.7869 109.27C75.7869 107.596 77.1456 106.237 78.8198 106.237H127.539C129.213 106.237 130.572 107.596 130.572 109.27Z" fill="#01C1F0"/>
</g>
<defs>
<clipPath id="clip0_4823_8847">
<rect width="103.5" height="103.5" fill="white" transform="translate(39.25 39.25)"/>
</clipPath>
</defs>
</svg>
