<svg width="20" height="20" viewBox="0 0 20 20" fill="none" xmlns="http://www.w3.org/2000/svg">
<g clip-path="url(#clip0_4463_5847)">
<path d="M17.7635 16.0092C17.7635 16.1659 17.7013 16.3162 17.5905 16.427C17.4796 16.5378 17.3293 16.6001 17.1726 16.6001L2.99081 16.6001C2.83409 16.6001 2.68379 16.5378 2.57298 16.427C2.46216 16.3162 2.3999 16.1659 2.3999 16.0092C2.3999 15.8525 2.46216 15.7022 2.57298 15.5914C2.68379 15.4805 2.83409 15.4183 2.99081 15.4183L17.1726 15.4183C17.3293 15.4183 17.4796 15.4805 17.5905 15.5914C17.7013 15.7022 17.7635 15.8525 17.7635 16.0092ZM17.7635 4.78192L17.7635 13.0546C17.7635 13.3681 17.639 13.6687 17.4174 13.8903C17.1958 14.1119 16.8952 14.2365 16.5817 14.2365L3.58172 14.2365C3.26828 14.2365 2.96768 14.1119 2.74605 13.8903C2.52441 13.6687 2.3999 13.3681 2.3999 13.0546L2.3999 4.78192C2.3999 4.46848 2.52441 4.16788 2.74605 3.94624C2.96768 3.72461 3.26828 3.6001 3.58172 3.6001L16.5817 3.6001C16.8952 3.6001 17.1958 3.72461 17.4174 3.94624C17.639 4.16788 17.7635 4.46848 17.7635 4.78192ZM12.7408 8.91828C12.7408 8.81883 12.7156 8.72099 12.6677 8.63384C12.6198 8.54669 12.5507 8.47303 12.4668 8.4197L9.21678 6.35152C9.12745 6.29476 9.02451 6.26304 8.91873 6.25967C8.81295 6.2563 8.7082 6.2814 8.61544 6.33235C8.52267 6.3833 8.4453 6.45822 8.39139 6.5493C8.33748 6.64038 8.30903 6.74426 8.30899 6.8501L8.30899 10.9865C8.30903 11.0923 8.33748 11.1962 8.39139 11.2873C8.4453 11.3783 8.52267 11.4533 8.61544 11.5042C8.7082 11.5552 8.81295 11.5803 8.91873 11.5769C9.02451 11.5735 9.12745 11.5418 9.21678 11.485L12.4668 9.41686C12.5507 9.36353 12.6198 9.28987 12.6677 9.20272C12.7156 9.11557 12.7408 9.01773 12.7408 8.91828Z" fill="white"/>
</g>
<defs>
<clipPath id="clip0_4463_5847">
<rect width="20" height="20" fill="white"/>
</clipPath>
</defs>
</svg>
