<svg width="109" height="40" viewBox="0 0 109 40" fill="none" xmlns="http://www.w3.org/2000/svg">
<rect width="109" height="40" rx="20" fill="white" fill-opacity="0.3"/>
<rect x="0.5" y="0.5" width="108" height="39" rx="19.5" stroke="white" stroke-opacity="0.3"/>
<path d="M20.0202 15.948C20.9536 15.948 21.7982 16.1673 22.5542 16.606C23.3196 17.0353 23.9216 17.6373 24.3602 18.412C24.7989 19.1773 25.0182 20.0453 25.0182 21.016C25.0182 21.9867 24.7942 22.8593 24.3462 23.634C23.9076 24.4087 23.3056 25.0153 22.5402 25.454C21.7842 25.8833 20.9442 26.098 20.0202 26.098C19.0962 26.098 18.2516 25.8833 17.4862 25.454C16.7302 25.0153 16.1282 24.4087 15.6802 23.634C15.2416 22.8593 15.0222 21.9867 15.0222 21.016C15.0222 20.0453 15.2416 19.1773 15.6802 18.412C16.1282 17.6373 16.7302 17.0353 17.4862 16.606C18.2516 16.1673 19.0962 15.948 20.0202 15.948ZM20.0202 18.174C19.2362 18.174 18.6109 18.4307 18.1442 18.944C17.6869 19.448 17.4582 20.1387 17.4582 21.016C17.4582 21.884 17.6869 22.5747 18.1442 23.088C18.6109 23.6013 19.2362 23.858 20.0202 23.858C20.7949 23.858 21.4156 23.6013 21.8822 23.088C22.3489 22.5747 22.5822 21.884 22.5822 21.016C22.5822 20.148 22.3489 19.4573 21.8822 18.944C21.4249 18.4307 20.8042 18.174 20.0202 18.174ZM31.2351 18.09C31.8791 18.09 32.4531 18.2533 32.9571 18.58C33.4704 18.8973 33.8718 19.3593 34.1611 19.966C34.4598 20.5633 34.6091 21.2727 34.6091 22.094C34.6091 22.906 34.4598 23.6153 34.1611 24.222C33.8718 24.8287 33.4704 25.2953 32.9571 25.622C32.4531 25.9393 31.8791 26.098 31.2351 26.098C30.6378 26.098 30.1244 25.9627 29.6951 25.692C29.2658 25.4213 28.9531 25.0527 28.7571 24.586L28.7571 29.724L26.3631 29.724L26.3631 18.188L28.7571 18.188L28.7571 19.602C28.9531 19.1353 29.2658 18.7667 29.6951 18.496C30.1244 18.2253 30.6378 18.09 31.2351 18.09ZM30.4651 20.19C29.9611 20.19 29.5458 20.3627 29.2191 20.708C28.9018 21.044 28.7431 21.506 28.7431 22.094C28.7431 22.6727 28.9018 23.1347 29.2191 23.48C29.5458 23.8253 29.9611 23.998 30.4651 23.998C30.9784 23.998 31.3891 23.83 31.6971 23.494C32.0144 23.158 32.1731 22.6913 32.1731 22.094C32.1731 21.4967 32.0144 21.03 31.6971 20.694C31.3891 20.358 30.9784 20.19 30.4651 20.19ZM43.2714 21.884C43.2714 22.08 43.2481 22.2947 43.2014 22.528L37.7834 22.528C37.8114 23.116 37.9607 23.5407 38.2314 23.802C38.5021 24.054 38.8474 24.18 39.2674 24.18C39.6221 24.18 39.9161 24.0913 40.1494 23.914C40.3827 23.7367 40.5367 23.508 40.6114 23.228L43.1454 23.228C43.0427 23.7787 42.8187 24.2733 42.4734 24.712C42.1281 25.1413 41.6894 25.482 41.1574 25.734C40.6254 25.9767 40.0327 26.098 39.3794 26.098C38.6141 26.098 37.9327 25.9393 37.3354 25.622C36.7474 25.2953 36.2854 24.8287 35.9494 24.222C35.6134 23.6153 35.4454 22.906 35.4454 22.094C35.4454 21.2727 35.6087 20.5633 35.9354 19.966C36.2714 19.3593 36.7381 18.8973 37.3354 18.58C37.9327 18.2533 38.6141 18.09 39.3794 18.09C40.1541 18.09 40.8354 18.2487 41.4234 18.566C42.0114 18.8833 42.4641 19.3313 42.7814 19.91C43.1081 20.4793 43.2714 21.1373 43.2714 21.884ZM40.8494 21.52C40.8587 21.0067 40.7187 20.624 40.4294 20.372C40.1494 20.1107 39.7994 19.98 39.3794 19.98C38.9407 19.98 38.5767 20.1107 38.2874 20.372C37.9981 20.6333 37.8347 21.016 37.7974 21.52L40.8494 21.52ZM49.4754 18.104C50.3714 18.104 51.0807 18.4027 51.6034 19C52.1354 19.5973 52.4014 20.4187 52.4014 21.464L52.4014 26L50.0074 26L50.0074 21.744C50.0074 21.2213 49.8674 20.8153 49.5874 20.526C49.3167 20.2273 48.9527 20.078 48.4954 20.078C48.01 20.078 47.6227 20.232 47.3334 20.54C47.0534 20.848 46.9134 21.2867 46.9134 21.856L46.9134 26L44.5194 26L44.5194 18.188L46.9134 18.188L46.9134 19.616C47.1374 19.1493 47.4687 18.7807 47.9074 18.51C48.3554 18.2393 48.878 18.104 49.4754 18.104ZM58.897 23.998L62.509 23.998L62.509 26L56.279 26L56.279 24.11L59.639 20.176L56.335 20.176L56.335 18.188L62.369 18.188L62.369 20.078L58.897 23.998ZM67.3003 18.09C68.075 18.09 68.7656 18.2533 69.3723 18.58C69.9883 18.8973 70.469 19.3593 70.8143 19.966C71.169 20.5727 71.3463 21.282 71.3463 22.094C71.3463 22.906 71.169 23.6153 70.8143 24.222C70.469 24.8287 69.9883 25.2953 69.3723 25.622C68.7656 25.9393 68.075 26.098 67.3003 26.098C66.5256 26.098 65.8303 25.9393 65.2143 25.622C64.5983 25.2953 64.113 24.8287 63.7583 24.222C63.413 23.6153 63.2403 22.906 63.2403 22.094C63.2403 21.282 63.413 20.5727 63.7583 19.966C64.113 19.3593 64.5983 18.8973 65.2143 18.58C65.8303 18.2533 66.5256 18.09 67.3003 18.09ZM67.3003 20.162C66.843 20.162 66.4556 20.33 66.1383 20.666C65.8303 20.9927 65.6763 21.4687 65.6763 22.094C65.6763 22.7193 65.8303 23.1953 66.1383 23.522C66.4556 23.8487 66.843 24.012 67.3003 24.012C67.7576 24.012 68.1403 23.8487 68.4483 23.522C68.7563 23.1953 68.9103 22.7193 68.9103 22.094C68.9103 21.4687 68.7563 20.9927 68.4483 20.666C68.1403 20.33 67.7576 20.162 67.3003 20.162ZM76.2417 18.09C77.0164 18.09 77.7071 18.2533 78.3137 18.58C78.9297 18.8973 79.4104 19.3593 79.7557 19.966C80.1104 20.5727 80.2877 21.282 80.2877 22.094C80.2877 22.906 80.1104 23.6153 79.7557 24.222C79.4104 24.8287 78.9297 25.2953 78.3137 25.622C77.7071 25.9393 77.0164 26.098 76.2417 26.098C75.4671 26.098 74.7717 25.9393 74.1557 25.622C73.5397 25.2953 73.0544 24.8287 72.6997 24.222C72.3544 23.6153 72.1817 22.906 72.1817 22.094C72.1817 21.282 72.3544 20.5727 72.6997 19.966C73.0544 19.3593 73.5397 18.8973 74.1557 18.58C74.7717 18.2533 75.4671 18.09 76.2417 18.09ZM76.2417 20.162C75.7844 20.162 75.3971 20.33 75.0797 20.666C74.7717 20.9927 74.6177 21.4687 74.6177 22.094C74.6177 22.7193 74.7717 23.1953 75.0797 23.522C75.3971 23.8487 75.7844 24.012 76.2417 24.012C76.6991 24.012 77.0817 23.8487 77.3897 23.522C77.6977 23.1953 77.8517 22.7193 77.8517 22.094C77.8517 21.4687 77.6977 20.9927 77.3897 20.666C77.0817 20.33 76.6991 20.162 76.2417 20.162ZM91.6511 18.104C92.6125 18.104 93.3685 18.4027 93.9191 19C94.4698 19.588 94.7451 20.4093 94.7451 21.464L94.7451 26L92.3651 26L92.3651 21.744C92.3651 21.2493 92.2298 20.8667 91.9591 20.596C91.6978 20.316 91.3385 20.176 90.8811 20.176C90.4051 20.176 90.0271 20.3253 89.7471 20.624C89.4765 20.9133 89.3411 21.324 89.3411 21.856L89.3411 26L86.9471 26L86.9471 21.744C86.9471 21.2493 86.8165 20.8667 86.5551 20.596C86.2938 20.316 85.9345 20.176 85.4771 20.176C85.0011 20.176 84.6231 20.3207 84.3431 20.61C84.0631 20.8993 83.9231 21.3147 83.9231 21.856L83.9231 26L81.5291 26L81.5291 18.188L83.9231 18.188L83.9231 19.518C84.1285 19.0793 84.4411 18.734 84.8611 18.482C85.2905 18.23 85.7898 18.104 86.3591 18.104C86.9565 18.104 87.4838 18.244 87.9411 18.524C88.3985 18.7947 88.7438 19.1867 88.9771 19.7C89.2478 19.2147 89.6165 18.8273 90.0831 18.538C90.5591 18.2487 91.0818 18.104 91.6511 18.104Z" fill="white"/>
</svg>
