<svg width="40" height="40" viewBox="0 0 40 40" fill="none" xmlns="http://www.w3.org/2000/svg">
<rect width="40" height="40" rx="20" fill="white" fill-opacity="0.3"/>
<rect x="0.5" y="0.5" width="39" height="39" rx="19.5" stroke="white" stroke-opacity="0.3"/>
<g clip-path="url(#clip0_4529_9460)">
<path d="M27 10C27.5304 10 28.0391 10.2107 28.4142 10.5858C28.7893 10.9609 29 11.4696 29 12V24C29 24.5304 28.7893 25.0391 28.4142 25.4142C28.0391 25.7893 27.5304 26 27 26H25V28C25 28.5304 24.7893 29.0391 24.4142 29.4142C24.0391 29.7893 23.5304 30 23 30H13C12.4696 30 11.9609 29.7893 11.5858 29.4142C11.2107 29.0391 11 28.5304 11 28V16C11 15.4696 11.2107 14.9609 11.5858 14.5858C11.9609 14.2107 12.4696 14 13 14H15V12C15 11.4696 15.2107 10.9609 15.5858 10.5858C15.9609 10.2107 16.4696 10 17 10H27ZM18 23H16C15.7451 23.0003 15.5 23.0979 15.3146 23.2728C15.1293 23.4478 15.0178 23.687 15.0028 23.9414C14.9879 24.1958 15.0707 24.4464 15.2343 24.6418C15.3979 24.8373 15.6299 24.9629 15.883 24.993L16 25H18C18.2549 24.9997 18.5 24.9021 18.6854 24.7272C18.8707 24.5522 18.9822 24.313 18.9972 24.0586C19.0121 23.8042 18.9293 23.5536 18.7657 23.3582C18.6021 23.1627 18.3701 23.0371 18.117 23.007L18 23ZM27 12H17V14H23C23.5304 14 24.0391 14.2107 24.4142 14.5858C24.7893 14.9609 25 15.4696 25 16V24H27V12ZM20 19H16C15.7348 19 15.4804 19.1054 15.2929 19.2929C15.1054 19.4804 15 19.7348 15 20C15 20.2652 15.1054 20.5196 15.2929 20.7071C15.4804 20.8946 15.7348 21 16 21H20C20.2652 21 20.5196 20.8946 20.7071 20.7071C20.8946 20.5196 21 20.2652 21 20C21 19.7348 20.8946 19.4804 20.7071 19.2929C20.5196 19.1054 20.2652 19 20 19Z" fill="white"/>
</g>
<defs>
<clipPath id="clip0_4529_9460">
<rect width="24" height="24" fill="white" transform="translate(8 8)"/>
</clipPath>
</defs>
</svg>
